<?xml version="1.0" standalone="no"?><!DOCTYPE svg PUBLIC "-//W3C//DTD SVG 1.1//EN" "http://www.w3.org/Graphics/SVG/1.1/DTD/svg11.dtd"><svg t="1723045079692" class="icon" viewBox="0 0 1024 1024" version="1.1" xmlns="http://www.w3.org/2000/svg" p-id="4041" xmlns:xlink="http://www.w3.org/1999/xlink" width="256" height="256"><path d="M189.392118 313.106991l63.026962-42.475739h550.425827l56.421498 42.475739z" fill="#E6E6E6" p-id="4042"></path><path d="M619.325461 251.26058h-201.958526l27.859394-76.157578h142.758317z" fill="#DEDEDE" p-id="4043"></path><path d="M518.348205 175.103002v76.157578h100.977256l-31.340815-76.157578z" fill="#C7C7C7" p-id="4044"></path><path d="M802.844907 365.926604c0 11.042568-9.034828 20.077396-20.077396 20.077396H272.496476c-11.042568 0-20.077396-9.034828-20.077396-20.077396V271.337976c0-11.042568 9.034828-20.077396 20.077396-20.077396h510.267019c11.042568 0 20.077396 9.034828 20.077396 20.077396v94.588628z" fill="#7A7A7A" p-id="4045"></path><path d="M617.510464 101.704057c0 56.164508-45.740324 85.096035-102.153791 85.096035-56.421498 0-102.157806-28.931528-102.157806-85.096035C413.198867 45.531519 458.935175 0 515.356673 0c56.417483 0 102.153791 45.531519 102.153791 101.704057zM859.266405 313.106991H189.392118L74.14385 747.778599h908.771206z" fill="#E0E0E0" p-id="4046"></path><path d="M189.392118 313.106991h138.056191l-43.029875 385.614498-210.274584 49.05711z" fill="#F0F0F0" p-id="4047"></path><path d="M723.611471 313.106991l49.037032 385.614498 210.266553 49.05711-123.648651-434.671608z" fill="#C7C7C7" p-id="4048"></path><path d="M74.14385 747.778599l454.383595-185.382628 454.387611 185.382628c0 268.587373-74.547371 276.072226-74.547371 276.072226H155.790588s-81.646739-42.825086-81.646738-276.072226z" fill="#DEDEDE" p-id="4049"></path><path d="M982.915056 747.778599l-454.387611-185.382628v461.454854h379.84024s74.547371-7.484853 74.547371-276.072226z" fill="#C7C7C7" p-id="4050"></path><path d="M593.991803 193.923553H439.717092l-4.469229-34.713818 158.74394 0.606337z" fill="#F2F2F2" p-id="4051"></path><path d="M521.61279 1023.943181s-90.950604 3.332848-137.224986-42.94555c-27.706806-27.706806-58.493486-28.353299-58.493486 2.963424v39.982126h195.718472z" fill="#71AFBF" p-id="4052"></path><path d="M79.436251 882.971753s92.649152-43.668336 140.879073 25.795438 188.414315 115.208114 301.558472 115.208114H81.419898l-1.983647-141.003552z" fill="#7DC2D4" p-id="4053"></path><path d="M510.598331 1023.943181s90.950604 3.332848 137.224986-42.94555c27.706806-27.706806 58.497501-28.353299 58.497501 2.963424v39.982126h-195.722487z" fill="#71AFBF" p-id="4054"></path><path d="M528.527445 1023.850825s-243.723526 8.930426-367.737585-115.083634C86.535619 834.51295 4.037598 832.778263 4.037598 916.701778v107.149047h524.489847z" fill="#84CDE0" p-id="4055"></path><path d="M944.555183 882.971753s-92.649152-43.668336-140.879072 25.795438-188.414315 115.208114-301.558472 115.208114h440.449882l1.987662-141.003552z" fill="#7DC2D4" p-id="4056"></path><path d="M495.46399 1023.850825s243.723526 8.930426 367.737585-115.083634C937.451801 834.51295 1019.953836 832.778263 1019.953836 916.701778v107.149047H495.46399z" fill="#84CDE0" p-id="4057"></path></svg>