<?xml version="1.0" standalone="no"?><!DOCTYPE svg PUBLIC "-//W3C//DTD SVG 1.1//EN" "http://www.w3.org/Graphics/SVG/1.1/DTD/svg11.dtd"><svg t="1723045185987" class="icon" viewBox="0 0 1282 1024" version="1.1" xmlns="http://www.w3.org/2000/svg" p-id="6257" xmlns:xlink="http://www.w3.org/1999/xlink" width="320.5" height="256"><path d="M610.167315 341.049973h-117.076856a20.361192 20.361192 0 0 0-20.361193 20.361193v91.625366a20.361192 20.361192 0 0 0 20.361193 20.361192h117.076856a20.361192 20.361192 0 0 0 20.361193-20.361192V361.411166a20.361192 20.361192 0 0 0-20.361193-20.361193z" fill="#BDC6D6" p-id="6258"></path><path d="M558.663679 234.153713c-42.101856 0-76.354472 34.252616-76.354472 76.354472s34.252616 76.354472 76.354472 76.354471 76.354472-34.252616 76.354472-76.354471-34.252616-76.354472-76.354472-76.354472z" fill="#B7BFCF" p-id="6259"></path><path d="M502.247905 310.508185c0-38.716807 28.984157-70.719512 66.387668-75.626559A76.817689 76.817689 0 0 0 558.663679 234.153713c-42.101856 0-76.354472 34.252616-76.354472 76.354472s34.252616 76.354472 76.354472 76.354471c3.385048 0 6.693742-0.300328 9.971894-0.727912-37.403511-4.907047-66.387668-36.909752-66.387668-75.626559zM961.372433 488.668619h-315.598482v-35.632087a20.361192 20.361192 0 0 0-20.361193-20.361193h-264.695502a20.351012 20.351012 0 0 0-18.213086 11.25974l-71.269264 142.635243a20.371373 20.371373 0 0 0 17.449542 29.447375l671.91935 25.344594a20.345922 20.345922 0 0 0 21.129828-20.351012v-111.986558a20.361192 20.361192 0 0 0-20.361193-20.356102z" fill="#C9D2E3" p-id="6260"></path><path d="M796.635116 122.167155h-35.632087V20.361192a20.361192 20.361192 0 0 0-40.722385 0v101.805963h-30.541789a20.361192 20.361192 0 0 0-20.361192 20.361192v55.993279a20.361192 20.361192 0 0 0 20.361192 20.361193h10.180597l-17.775321 288.894779A20.345922 20.345922 0 0 0 702.464601 529.391003h81.444769a20.361192 20.361192 0 0 0 20.32047-21.613405L786.454519 218.882819h10.180597a20.361192 20.361192 0 0 0 20.361192-20.361193V142.528347a20.361192 20.361192 0 0 0-20.361192-20.361192zM632.473002 341.049973h-117.076857a20.361192 20.361192 0 0 0-20.361192 20.361193v91.625366a20.361192 20.361192 0 0 0 20.361192 20.361192h117.076857a20.361192 20.361192 0 0 0 20.361192-20.361192V361.411166a20.361192 20.361192 0 0 0-20.361192-20.361193z" fill="#B0B8C7" p-id="6261"></path><path d="M318.976812 496.405872H236.559795a20.366283 20.366283 0 0 0-19.276959 13.799798l-4.484552 13.168601-76.15086-16.431482a20.361192 20.361192 0 0 0-8.592423 39.806131l71.528869 15.438874-7.609996 22.351499a20.351012 20.351012 0 0 0 19.271869 26.922587h107.725979a20.361192 20.361192 0 0 0 20.361192-20.361193V516.767064c0.00509-11.244469-9.111634-20.361192-20.356102-20.361192z" fill="#BDC6D6" p-id="6262"></path><path d="M605.051566 498.849215h38.029617v40.722385h-38.029617zM532.611533 498.849215h38.034708v40.722385h-38.034708zM454.740153 498.849215h38.029617v40.722385h-38.029617z" fill="#4A4A4A" p-id="6263"></path><path d="M1033.333978 488.668619h-315.598483v-35.632087a20.361192 20.361192 0 0 0-20.361192-20.361193H432.678801a20.351012 20.351012 0 0 0-18.213087 11.25974l-71.269264 142.635243a20.371373 20.371373 0 0 0 17.449542 29.447375l671.919351 25.344594a20.345922 20.345922 0 0 0 21.129827-20.351012v-111.986558A20.361192 20.361192 0 0 0 1033.333978 488.668619z" fill="#BDC6D6" p-id="6264"></path><path d="M403.068537 557.85086l577.66739 19.047896v21.755934l-587.104803-21.913733zM278.697283 537.128257h19.088618v34.252616h-19.088618z" fill="#4A4A4A" fill-opacity="0" p-id="6265"></path><path d="M1263.313646 615.941342l-1242.032738-55.993279a20.376463 20.376463 0 0 0-19.546745 12.140361 20.340831 20.340831 0 0 0 4.230037 22.595833l145.073497 145.073497a20.371373 20.371373 0 0 0 14.400453 5.965829H1262.397393a20.361192 20.361192 0 0 0 20.361192-20.361193V636.287264a20.381554 20.381554 0 0 0-19.444939-20.345922z" fill="#B0B8C7" p-id="6266"></path><path d="M211.240652 704.35982a20.371373 20.371373 0 0 1-14.400453-5.965829l-84.855269-134.353328-90.704022-4.0926a20.376463 20.376463 0 0 0-19.546745 12.140361 20.340831 20.340831 0 0 0 4.230037 22.595833l145.073497 145.073497a20.371373 20.371373 0 0 0 14.400453 5.965829H1262.397393a20.361192 20.361192 0 0 0 20.361192-20.361193v-21.00766H211.240652z" fill="#A2AAB8" p-id="6267"></path><path d="M21.280908 559.948063l1242.032738 55.993279L0.003461 578.252775s0.285057-15.393061 21.277447-18.304712z" fill="#C9D2E3" p-id="6268"></path><path d="M436.740859 475.739261H669.377663v50.02236H436.740859z" fill="#B0B8C7" p-id="6269"></path><path d="M771.015645 490.776002h-86.117663l14.120487-272.274956h58.818395z" fill="#BDC6D6" p-id="6270"></path><path d="M719.430564 222.476569V121.978814H689.738855a20.361192 20.361192 0 0 0-20.361192 20.361192v55.993279a20.361192 20.361192 0 0 0 20.361192 20.361193h10.180597l-0.234154 3.777001h19.745266z" fill="#BDC6D6" p-id="6271"></path></svg>