<?xml version="1.0" standalone="no"?><!DOCTYPE svg PUBLIC "-//W3C//DTD SVG 1.1//EN" "http://www.w3.org/Graphics/SVG/1.1/DTD/svg11.dtd"><svg t="1723035570933" class="icon" viewBox="0 0 1024 1024" version="1.1" xmlns="http://www.w3.org/2000/svg" p-id="3928" width="256" height="256" xmlns:xlink="http://www.w3.org/1999/xlink"><path d="M715.907063 704.493106c-2.01489 12.774955-6.060019 22.529109-12.103666 29.244045-8.058536 10.088776-20.162202 15.125489-36.295648 15.125489-18.834974 0-31.274284-12.087293-37.318954-36.295648-6.043646-24.191982-9.06547-62.165852-9.06547-113.939005L621.123326 216.473263c0-7.387247 3.357468-15.125489 10.073426-23.184025s15.461133-12.103666 26.222221-12.103666c13.447267 0 24.542976 5.212722 33.273824 15.637142s13.110599 23.024389 13.110599 37.798884c0 53.115732 2.01489 215.613686 6.043646 293.928333C713.876824 606.863555 715.907063 665.512303 715.907063 704.493106zM918.586159 800.284799c-4.045129 40.324404-13.462616 72.254627-28.237111 95.79067-18.163685 28.9084-43.698245 43.3626-76.636425 43.3626-27.565822 0-56.298214-13.110599-86.213547-39.317471-29.915333-26.238594-44.865837-49.422619-44.865837-69.584821 0-8.074909 4.860704-15.301498 14.613836-21.681812 9.753131-6.395664 18.658965-9.577123 26.733874-9.577123 13.430894 0 25.870204 6.714935 37.302581 20.162202 27.549449 30.92329 45.696762 46.384423 54.44296 46.384423 6.043646 0 10.920724-5.724375 14.613836-17.140379 3.693112-11.432377 5.548366-25.886577 5.548366-43.346227l-33.273824-651.381467c4.02978-15.445784 9.241478-25.53456 15.637142-30.235628 6.379291-4.701069 15.286148-7.066953 26.717502-7.066953 24.863271 0 39.653115 27.229155 44.369533 81.673138 1.342578 30.250978 3.021823 56.809867 5.036713 79.658248 2.01489 22.864754 5.708002 161.330362 11.096732 221.833341 2.686179 22.864754 4.02978 44.033889 4.02978 63.524802L918.586159 800.284799z" p-id="3929" fill="#d81e06"></path><path d="M229.857085 182.936449c9.602705 15.717983 21.570271 29.074176 36.063357 40.272215 6.390547 4.937452 12.69616 9.731642 19.862373 13.499455 9.233292 4.853541 19.111267 8.364505 28.763091 12.281721-3.911076-1.650593-7.822153-3.301186-11.733229-4.951779 3.76986 1.597381 7.311523 3.361561 10.673084 5.712095-3.313465-2.560312-6.626931-5.120624-9.94142-7.679913 2.046612 1.609661 3.780093 3.346211 5.379521 5.395894-2.560312-3.313465-5.120624-6.626931-7.679913-9.94142 0.876973 1.287319 1.606591 2.527566 2.297322 3.923356-1.650593-3.911076-3.301186-7.822153-4.951779-11.733229 0.575098 1.425466 0.985444 2.734274 1.313925 4.236488-0.585331-4.352121-1.169639-8.705266-1.75497-13.057387 0.189312 1.531889 0.220011 2.845815 0.097214 4.384867 0.585331-4.352121 1.169639-8.705266 1.75497-13.057387-0.093121 0.48914-0.185218 0.977257-0.278339 1.466398-2.498914 13.161764-2.006703 25.959232 4.951779 37.849026 5.962805 10.18906 17.644869 19.905352 29.354562 22.573111 12.573363 2.864234 26.687826 2.24411 37.849026-4.951779 10.256598-6.612605 20.211321-16.913205 22.573111-29.354562 2.267647-11.943007 3.391237-23.725354-0.853437-35.509748-4.009314-11.130502-9.522887-21.503756-18.255783-29.736255-13.031804-12.284791-28.166503-17.47193-44.407396-24.171516 3.911076 1.650593 7.822153 3.301186 11.733229 4.951779-7.957229-3.437286-15.335267-7.813966-22.193465-13.111622 3.313465 2.560312 6.626931 5.120624 9.94142 7.679913-6.348592-5.073552-12.011568-10.768251-17.037025-17.156752 2.560312 3.313465 5.120624 6.626931 7.679913 9.94142-2.288113-3.01159-4.40431-6.107091-6.376221-9.334599-6.519484-10.671037-17.21201-19.228947-29.354562-22.573111-11.757788-3.237741-27.414373-1.775436-37.849026 4.951779-10.487865 6.762007-19.720134 16.830317-22.573111 29.354562C222.00014 157.842934 222.874043 171.506119 229.857085 182.936449L229.857085 182.936449z" p-id="3930" fill="#d81e06"></path><path d="M133.357264 440.327634c52.458769-12.692067 105.029078-25.340131 158.576645-32.56365-4.352121 0.585331-8.705266 1.169639-13.057387 1.75497 43.369763-5.736655 87.325881-6.723122 130.185015-16.143679 37.963637-8.345062 74.435293-22.091134 110.725824-35.772738 12.261255-4.622274 22.530133-10.910491 29.354562-22.573111 6.161327-10.528797 8.771781-26.045189 4.951779-37.849026-3.846608-11.885701-11.211343-23.351847-22.573111-29.354562-11.07115-5.849218-25.63996-9.55461-37.849026-4.951779-45.722344 17.237593-91.780333 34.295084-140.421146 41.061185 4.352121-0.585331 8.705266-1.169639 13.057387-1.75497-21.13025 2.838651-42.409902 4.180206-63.614853 6.311753-24.237007 2.436492-48.415686 5.851265-72.406077 10.07138-41.376363 7.277754-82.230839 17.160845-123.046431 27.03575-11.772115 2.847861-23.309892 12.242835-29.354562 22.573111-6.161327 10.528797-8.771781 26.045189-4.951779 37.849026C81.341586 431.998945 106.581434 446.806185 133.357264 440.327634L133.357264 440.327634z" p-id="3931" fill="#d81e06"></path><path d="M405.627321 428.131871c-1.832741 9.360182-4.767584 18.36937-8.472975 27.149337 1.650593-3.911076 3.301186-7.822153 4.951779-11.733229-9.492188 21.88238-23.147186 41.501206-35.105542 62.041008-15.095813 25.927509-25.490557 54.127781-37.058011 81.721233 1.650593-3.911076 3.301186-7.822153 4.951779-11.733229-17.745153 42.037419-41.648562 80.725556-69.426209 116.850311 2.560312-3.313465 5.120624-6.626931 7.679913-9.94142-44.13315 57.087183-95.866395 108.276029-152.939251 152.387689 3.313465-2.560312 6.626931-5.120624 9.94142-7.679913-0.978281 0.754177-1.957585 1.506307-2.938935 2.25639-5.724375 3.086291-10.317996 7.303336-13.780865 12.651135-4.341888 4.744048-7.271614 10.311857-8.792247 16.70445-3.237741 11.757788-1.775436 27.414373 4.951779 37.849026 6.762007 10.487865 16.830317 19.720134 29.354562 22.573111 11.951193 2.721994 27.630291 2.87549 37.849026-4.951779 43.635823-33.423227 84.72566-69.535703 121.851209-110.140493 36.167734-39.557948 70.062705-82.398662 96.598059-129.079844 16.394389-28.840862 28.383444-59.565631 41.186028-90.095971-1.650593 3.911076-3.301186 7.822153-4.951779 11.733229 9.977235-23.62814 22.551622-45.218878 35.856649-67.075675 14.167674-23.274076 27.743878-48.400337 33.023114-75.368548 2.564405-13.101389 1.968841-26.022677-4.951779-37.849026-5.962805-10.18906-17.644869-19.905352-29.354562-22.573111-12.573363-2.864234-26.687826-2.24411-37.849026 4.951779C417.906995 405.41345 408.064836 415.676188 405.627321 428.131871L405.627321 428.131871z" p-id="3932" fill="#d81e06"></path><path d="M222.274386 577.324798c21.895683 7.4159 43.792389 14.830777 65.688071 22.246677 21.128203 7.154957 42.811038 13.462616 63.539128 21.704324-3.911076-1.650593-7.822153-3.301186-11.733229-4.951779 3.455705 1.472538 6.618744 3.152806 9.601682 5.448082-3.313465-2.560312-6.626931-5.120624-9.94142-7.679913 1.665942 1.447978 3.109828 2.975774 4.485151 4.702092-2.560312-3.313465-5.120624-6.626931-7.679913-9.94142 2.597151 3.632737 4.517897 7.552 6.287193 11.641131-1.650593-3.911076-3.301186-7.822153-4.951779-11.733229 7.17133 17.020652 14.010085 33.269731 25.078165 48.137347 6.476505 8.701173 13.124925 17.356296 20.785396 25.063839 7.873318 7.922437 16.736173 14.668071 25.657356 21.366633 22.658046 17.013489 49.825802 26.754341 72.325235 44.017516-3.313465-2.560312-6.626931-5.120624-9.94142-7.679913 5.028527 3.959172 9.718339 8.235568 14.019295 12.979616 8.206916 9.052167 22.763446 14.386662 34.732036 14.386662 12.047384 0 26.438139-5.350868 34.732036-14.386662 8.592702-9.361205 14.971993-21.650089 14.386662-34.732036-0.599657-13.388938-5.314029-24.725124-14.386662-34.732036-14.384615-15.867386-33.032324-27.964912-51.685149-38.252209-15.876596-8.755408-32.163537-16.845667-46.590108-27.944446 3.313465 2.560312 6.626931 5.120624 9.94142 7.679913-9.647731-7.603165-18.260899-16.281825-25.819039-25.963325 2.560312 3.313465 5.120624 6.626931 7.679913 9.94142-7.791453-10.216689-14.201443-21.263279-19.202341-33.097816 1.650593 3.911076 3.301186 7.822153 4.951779 11.733229-3.923356-9.423627-7.195889-19.6045-13.175067-28.007891-7.783267-10.940167-17.113773-21.064758-29.518291-26.812669-16.86204-7.813966-34.775015-13.157671-52.347229-19.108197-30.268374-10.251481-60.536748-20.50194-90.805122-30.753421-11.655458-3.946892-27.462468-1.12666-37.849026 4.951779-10.18906 5.962805-19.906375 17.644869-22.573111 29.354562-2.864234 12.573363-2.24411 26.687826 4.951779 37.849026C200.083991 565.863768 209.67237 573.056588 222.274386 577.324798L222.274386 577.324798z" p-id="3933" fill="#d81e06"></path></svg>