<?xml version="1.0" standalone="no"?><!DOCTYPE svg PUBLIC "-//W3C//DTD SVG 1.1//EN" "http://www.w3.org/Graphics/SVG/1.1/DTD/svg11.dtd"><svg t="1723045003692" class="icon" viewBox="0 0 1024 1024" version="1.1" xmlns="http://www.w3.org/2000/svg" p-id="2318" xmlns:xlink="http://www.w3.org/1999/xlink" width="256" height="256"><path d="M226.065953 922.535065c0.004156 0-43.910649 8.211948-28.101818 64.390649 11.436883 40.64-0.004156 45.66026-19.902338 25.762078l-128.78961-128.78961c-0.004156-0.004156-21.07013-23.414026 1.171948-31.609351 17.088831-6.296104 25.753766 44.488312 85.469091-15.218701l139.785974-139.79013c25.641558-29.444156 14.882078-67.191688 14.882078-67.191688l26.156883 26.156883 3.424416-3.428572c13.518961-13.523117 35.652987-13.523117 49.171948 0l38.641039 38.632728c13.523117 13.523117 13.518961 35.657143 0 49.180259l-3.432728 3.424416 26.339741 26.33974s-40.91013-11.769351-70.765715 18.086234c0 0-53.410909 40.448831-60.683636 74.734545 0.004156-0.004156-9.346494 44.671169-73.367273 59.32052z" fill="#8B5F2F" p-id="2319"></path><path d="M934.392187 10.493506L330.701797 614.17974l118.861299 118.857143c0-0.004156 505.533506-424.847792 484.829091-722.543377z" fill="#DBDBDB" p-id="2320"></path><path d="M940.243616 4.642078c22.30026 226.576623-252.230649 561.620779-381.593767 705.151169-44.081039 48.91013-59.906494-18.023896-105.130389 27.204156l-46.462338-131.877403 373.074286-373.061818s57.184416-51.698701 111.094026-135.937663c12.741818-19.918961 49.018182-91.478442 49.018182-91.478441z" fill="#F7F7F7" p-id="2321"></path><path d="M941.041538 6.645195s-8.278442 97.570909-120.386494 197.090909c-85.897143 76.255584-413.597922 401.37974-413.597922 401.37974L941.041538 6.645195z" fill="#B2B2B2" p-id="2322"></path><path d="M903.954784 73.982338s-30.200519 246.316883-259.927272 529.142857c0 0 314.688831-342.163117 296.216104-598.487273 0 0.004156-24.095584 46.582857-36.288832 69.344416z" fill="#B2B2B2" p-id="2323"></path><path d="M407.057122 605.115844L942.192706 0s-42.277403 97.263377-116.002077 180.612987C744.208291 273.296623 407.057122 605.115844 407.057122 605.115844z" fill="#F7F7F7" p-id="2324"></path><path d="M135.028031 969.658182l-11.461818-11.461818 11.461818 11.461818z m269.884675-225.242598s-1.217662-0.344935-3.353766-0.768831c1.10961-0.062338 1.982338-0.066494 2.580779-0.004156l0.407273 0.407273 3.432727-3.424415c13.518961-13.523117 13.523117-35.657143 0-49.18026l-25.924155-25.915844c13.469091 13.527273 13.448312 35.615584-0.04987 49.122078l-2.028052 2.01974c-33.620779-33.64987-89.595844-86.782338-89.595845-86.782338s89.234286 100.292987 72.527793 114.913247a6.466494 6.466494 0 0 1-2.219221 1.234286c-2.497662 0.835325-4.122597 1.467013-5.07013 1.940779a67.395325 67.395325 0 0 0-21.477403 14.520519s-53.410909 40.448831-60.683636 74.734546c0 0-9.350649 44.675325-73.367273 59.320519 0.004156 0-43.910649 8.211948-28.101818 64.39065 11.436883 40.64-0.004156 45.66026-19.902338 25.762078l-17.05974-17.055585 43.033766 43.029611c19.898182 19.898182 31.343377 14.877922 19.902338-25.762078-15.812987-56.182857 28.105974-64.390649 28.101818-64.39065 64.016623-14.645195 73.367273-59.320519 73.367273-59.320519 7.272727-34.285714 60.683636-74.734545 60.683636-74.734546 29.85974-29.855584 70.765714-18.086234 70.765715-18.086233l-25.969871-25.969871z" fill="#5A350A" opacity=".63" p-id="2325"></path><path d="M432.004655 771.511688c8.083117 8.078961 20.866494 8.519481 28.413506 0.972468 7.547013-7.547013 7.106494-20.334545-0.972467-28.413507L316.721538 601.350649c-8.083117-8.078961-20.866494-8.519481-28.413507-0.972467-7.547013 7.547013-7.110649 20.334545 0.972468 28.413506l142.724156 142.72z" fill="#8B5F2F" p-id="2326"></path><path d="M797.930888 922.535065c-0.004156 0 43.910649 8.211948 28.101818 64.390649-11.436883 40.64 0.004156 45.66026 19.902338 25.762078l128.789611-128.78961c0.004156-0.004156 21.07013-23.414026-1.171949-31.609351-17.088831-6.296104-25.753766 44.488312-85.46909-15.218701l-139.785974-139.79013c-25.641558-29.444156-14.882078-67.191688-14.882078-67.191688l-26.156883 26.156883-3.424416-3.428572c-13.518961-13.523117-35.652987-13.523117-49.171948 0l-38.641039 38.632728c-13.523117 13.523117-13.518961 35.657143 0 49.180259l3.432727 3.424416-26.33974 26.33974s40.91013-11.769351 70.765714 18.086234c0 0 53.410909 40.448831 60.683637 74.734545 0-0.004156 9.350649 44.671169 73.367272 59.32052z" fill="#8B5F2F" p-id="2327"></path><path d="M89.604655 10.493506L693.295044 614.17974l-118.861299 118.857143C574.437901 733.032727 68.900239 308.189091 89.604655 10.493506z" fill="#DBDBDB" p-id="2328"></path><path d="M83.753226 4.642078c-22.30026 226.576623 252.230649 561.620779 381.593766 705.151169 44.081039 48.91013 59.906494-18.023896 105.13039 27.204156l46.462337-131.877403-373.070129-373.065974s-57.184416-51.698701-111.094026-135.937662C120.02959 76.201558 83.753226 4.642078 83.753226 4.642078z" fill="#F7F7F7" p-id="2329"></path><path d="M82.955304 6.645195s8.278442 97.570909 120.386493 197.090909c85.897143 76.255584 413.597922 401.37974 413.597922 401.37974L82.955304 6.645195z" fill="#B2B2B2" p-id="2330"></path><path d="M120.046213 73.982338s30.200519 246.316883 259.927273 529.142857c0 0-314.688831-342.163117-296.216104-598.487273-0.004156 0.004156 24.091429 46.582857 36.288831 69.344416z" fill="#B2B2B2" p-id="2331"></path><path d="M616.939719 605.115844L81.804135 0s42.277403 97.263377 116.002078 180.612987C279.788551 273.296623 616.939719 605.115844 616.939719 605.115844z" fill="#F7F7F7" p-id="2332"></path><path d="M593.114265 770.38961s40.91013-11.769351 70.765714 18.086234c0 0 53.410909 40.448831 60.683637 74.734546 0 0 9.350649 44.675325 73.367272 59.320519-0.004156 0 43.910649 8.211948 28.101818 64.390649-11.436883 40.64 0.004156 45.66026 19.902338 25.762078l43.033766-43.02961-17.05974 17.055584c-19.898182 19.898182-31.339221 14.877922-19.902338-25.762078 15.812987-56.182857-28.105974-64.390649-28.101818-64.390649-64.016623-14.645195-73.367273-59.320519-73.367272-59.320519-7.272727-34.285714-60.683636-74.734545-60.683637-74.734546a67.34961 67.34961 0 0 0-21.477402-14.520519c-0.947532-0.473766-2.572468-1.105455-5.07013-1.94078a6.429091 6.429091 0 0 1-2.219221-1.234285c-16.710649-14.624416 72.527792-114.913247 72.527792-114.913247s-55.975065 53.132468-89.595844 86.782338l-2.028052-2.019741c-13.498182-13.506494-13.518961-35.594805-0.04987-49.122078l-25.924156 25.915845c-13.523117 13.523117-13.518961 35.657143 0 49.180259l3.432727 3.424416 0.411429-0.407273c0.598442-0.062338 1.471169-0.058182 2.576623 0.004156-2.131948 0.423896-3.353766 0.768831-3.353766 0.768831l-25.96987 25.96987z m307.316364 187.806754l-11.461819 11.461818 11.461819-11.461818z" fill="#5A350A" opacity=".63" p-id="2333"></path><path d="M591.992187 771.511688c-8.078961 8.078961-20.866494 8.519481-28.409351 0.972468-7.547013-7.547013-7.110649-20.334545 0.968312-28.413507l142.724156-142.724155c8.078961-8.078961 20.866494-8.519481 28.413506-0.972468 7.547013 7.547013 7.110649 20.334545-0.968311 28.413506l-142.728312 142.724156z" fill="#8B5F2F" p-id="2334"></path></svg>