<?xml version="1.0" standalone="no"?><!DOCTYPE svg PUBLIC "-//W3C//DTD SVG 1.1//EN" "http://www.w3.org/Graphics/SVG/1.1/DTD/svg11.dtd"><svg t="1723045140038" class="icon" viewBox="0 0 1024 1024" version="1.1" xmlns="http://www.w3.org/2000/svg" p-id="5141" xmlns:xlink="http://www.w3.org/1999/xlink" width="256" height="256"><path d="M527.36267 403.867565l-125.536911 125.532639 270.970754 270.966483 0.05553-0.068345c0.239207 0.281923 0.452785 0.580932 0.717622 0.828683 11.413611 11.413611 48.764142-7.432516 83.42359-42.100507 34.663719-34.659447 53.51839-72.01425 42.104778-83.427861-0.264837-0.260565-0.542488-0.482686-0.824411-0.709079l0.059802-0.059802-270.970754-270.962211z" fill="#D1D1D1" p-id="5142"></path><path d="M696.063706 283.751265l27.184216 27.184215-393.133132 393.184391-27.188487-27.184216z" fill="#BFBFBF" p-id="5143"></path><path d="M378.165581 215.696753L212.27096 381.591373l358.089244 358.084973 0.076889-0.085431c0.294738 0.375897 0.60229 0.751795 0.939743 1.093519 15.074339 15.087154 64.445043-9.824591 110.257537-55.624269 45.80395-45.821037 70.715695-95.178926 55.624269-110.261809-0.337453-0.337453-0.717622-0.627919-1.093519-0.935471l0.085431-0.076889-358.084973-358.089243z" fill="#BFBFBF" p-id="5144"></path><path d="M416.724964 268.971663L371.822313 224.086099h44.902651z" fill="#FFD4B5" p-id="5145"></path><path d="M416.724964 274.879232L365.93183 224.086099h5.890483l44.902651 44.885564z" fill="#FFD4B5" p-id="5146"></path><path d="M416.724964 280.786802L360.024261 224.086099h5.907569l50.793134 50.793133z" fill="#FED3B4" p-id="5147"></path><path d="M416.724964 286.677284L354.120964 224.086099h5.903297l56.700703 56.700703z" fill="#FDD2B3" p-id="5148"></path><path d="M416.724964 290.795069l-0.901299 0.884214-66.708971-66.691885 0.901299-0.901299h4.104971l62.604 62.591185z" fill="#FCD1B2" p-id="5149"></path><path d="M346.15795 227.928924l2.953949-2.954051 66.71082 66.708491-2.953949 2.954052z" fill="#FCD0B1" p-id="5150"></path><path d="M343.20203 230.880573l2.953948-2.954051 66.71082 66.708491-2.953948 2.954052z" fill="#FBCFB0" p-id="5151"></path><path d="M409.916096 297.586852l-2.934563 2.95592-66.713242-66.713242 2.938834-2.951649z" fill="#FACEAF" p-id="5152"></path><path d="M337.311547 236.788142l2.953948-2.954051 66.71082 66.708491-2.953948 2.954052z" fill="#F9CDAE" p-id="5153"></path><path d="M334.458545 239.640851l2.953253-2.9366 66.511737 66.888919-2.953254 2.9366z" fill="#F8CCAD" p-id="5154"></path><path d="M331.410019 242.687168l2.953948-2.954051 66.701759 66.69943-2.953949 2.954051z" fill="#F7CBAC" p-id="5155"></path><path d="M328.452329 245.630274l2.953949-2.954052 66.71082 66.708492-2.953949 2.954051z" fill="#F7CAAB" p-id="5156"></path><path d="M395.166395 312.336552l-2.938834 2.955921-66.708971-66.708971 2.938834-2.95592z" fill="#F6C9AA" p-id="5157"></path><path d="M322.561846 251.537843l2.953949-2.954052 66.71082 66.708492-2.953949 2.954051z" fill="#F5C8A9" p-id="5158"></path><path d="M319.711856 254.38931l2.953254-2.936601 66.511736 66.888919-2.953253 2.936601z" fill="#F4C7A8" p-id="5159"></path><path d="M316.660318 257.438638l2.953949-2.954051 66.701758 66.69943-2.953948 2.954051z" fill="#F3C6A7" p-id="5160"></path><path d="M313.702628 260.379974l2.953949-2.954051 66.71082 66.708491-2.953949 2.954052z" fill="#F2C5A6" p-id="5161"></path><path d="M310.761292 263.335895l2.953949-2.954052 66.701758 66.69943-2.953948 2.954052z" fill="#F2C4A5" p-id="5162"></path><path d="M307.720181 266.379498l2.9366-2.953253 66.898006 66.520772-2.9366 2.953253z" fill="#F1C3A4" p-id="5163"></path><path d="M304.856225 269.237423l2.953949-2.954052 66.71082 66.708492-2.953949 2.954051z" fill="#F0C2A3" p-id="5164"></path><path d="M302.007495 272.091902l2.953253-2.936601 66.511737 66.888919-2.953254 2.936601z" fill="#EFC1A2" p-id="5165"></path><path d="M298.948656 275.127906l2.953948-2.954052 66.710821 66.708492-2.953949 2.954051z" fill="#EEC0A1" p-id="5166"></path><path d="M296.008571 278.088616l2.953948-2.954052 66.701759 66.699431-2.953948 2.954051z" fill="#EDBFA0" p-id="5167"></path><path d="M293.055671 281.037244l2.953949-2.954051 66.701758 66.69943-2.953948 2.954051z" fill="#EDBE9F" p-id="5168"></path><path d="M290.018849 284.086888l2.9366-2.953253L359.853455 347.654407l-2.9366 2.953254z" fill="#ECBD9E" p-id="5169"></path><path d="M287.151855 286.946065l2.953949-2.954052 66.71082 66.708491-2.953949 2.954052z" fill="#EBBC9D" p-id="5170"></path><path d="M353.868941 353.651092l-2.951648 2.938834-66.713243-66.708971 2.955921-2.938834z" fill="#EABB9C" p-id="5171"></path><path d="M281.25887 292.838317l2.953949-2.954052 66.701758 66.69943-2.953948 2.954052z" fill="#E9BA9B" p-id="5172"></path><path d="M278.30597 295.791216l2.953949-2.954051L347.961677 359.536595l-2.953948 2.954052z" fill="#E8B99A" p-id="5173"></path><path d="M275.269148 298.836589l2.9366-2.953253 66.898006 66.520772-2.9366 2.953253z" fill="#E8B899" p-id="5174"></path><path d="M272.403924 301.691494l2.953948-2.954052 66.71082 66.708491-2.953948 2.954052z" fill="#E7B798" p-id="5175"></path><path d="M339.119241 368.400793l-2.955921 2.938834-66.70897-66.708971 2.95592-2.938834z" fill="#E6B697" p-id="5176"></path><path d="M266.496355 307.581976l2.953948-2.954051 66.71082 66.708491-2.953948 2.954052z" fill="#E5B596" p-id="5177"></path><path d="M263.55627 310.540917l2.953948-2.954051 66.701759 66.69943-2.953949 2.954051z" fill="#E4B495" p-id="5178"></path><path d="M260.515159 313.584521l2.9366-2.953254 66.898006 66.520772-2.9366 2.953254z" fill="#E3B394" p-id="5179"></path><path d="M257.654223 316.441194l2.953949-2.954051 66.71082 66.708491-2.953949 2.954052z" fill="#E3B292" p-id="5180"></path><path d="M254.802472 319.296924l2.953254-2.9366 66.511736 66.888919-2.953253 2.9366z" fill="#E2B191" p-id="5181"></path><path d="M251.746654 322.331677l2.953949-2.954051 66.71082 66.708491-2.953949 2.954052z" fill="#E1B090" p-id="5182"></path><path d="M248.791985 325.284577l2.953948-2.954051 66.71082 66.708491-2.953948 2.954051z" fill="#E0AF8F" p-id="5183"></path><path d="M315.510322 391.996896l-2.938834 2.951649-66.708971-66.70897 2.934563-2.951649z" fill="#DFAE8E" p-id="5184"></path><path d="M242.901502 331.192146l2.953948-2.954051L312.56627 394.946586l-2.953948 2.954052z" fill="#DEAD8D" p-id="5185"></path><path d="M240.048517 334.044855l2.953254-2.9366L309.513507 397.997174l-2.953253 2.9366z" fill="#DEAC8C" p-id="5186"></path><path d="M236.999974 337.097213l2.953948-2.954052L306.655681 400.842592l-2.953949 2.954051z" fill="#DDAB8B" p-id="5187"></path><path d="M234.045305 340.037298l2.953948-2.954051 66.71082 66.708491-2.953948 2.954052z" fill="#DCAA8A" p-id="5188"></path><path d="M231.100948 342.991967l2.953948-2.954051L300.756655 406.737346l-2.953948 2.954052z" fill="#DBA989" p-id="5189"></path><path d="M228.061097 346.0386l2.9366-2.953254 66.898006 66.520772-2.9366 2.953254z" fill="#DAA888" p-id="5190"></path><path d="M225.198902 348.896516l2.953948-2.954052 66.71082 66.708492-2.953948 2.954051z" fill="#D9A787" p-id="5191"></path><path d="M222.345908 351.749234l2.953254-2.9366 66.511736 66.888919-2.953253 2.9366z" fill="#D9A686" p-id="5192"></path><path d="M288.96257 418.544649l-1.601836 1.601836h-2.703898L220.664578 356.154227v-2.720985l1.589021-1.584749z" fill="#D8A585" p-id="5193"></path><path d="M278.749267 420.146485L220.664578 362.061796v-5.907569l63.992258 63.992258z" fill="#D7A484" p-id="5194"></path><path d="M272.858784 420.146485L220.664578 367.952279v-5.890483l58.084689 58.084689z" fill="#D6A383" p-id="5195"></path><path d="M266.951215 420.146485L220.664578 373.859848V367.952279l52.194206 52.194206z" fill="#D5A282" p-id="5196"></path><path d="M261.047917 420.146485l-40.383339-40.396154v-5.890483l46.286637 46.286637z" fill="#D4A181" p-id="5197"></path><path d="M255.157435 420.146485l-34.492857-34.492857v-5.903297l40.383339 40.396154z" fill="#D4A080" p-id="5198"></path><path d="M249.249865 420.146485l-28.585287-28.585288v-5.907569l34.492857 34.492857z" fill="#D39F7F" p-id="5199"></path><path d="M243.359383 420.146485l-22.694805-22.694805v-5.890483l28.585287 28.585288z" fill="#D29E7E" p-id="5200"></path><path d="M237.451814 420.146485l-16.787236-16.787236v-5.907569l22.694805 22.694805z" fill="#D19D7D" p-id="5201"></path><path d="M231.544244 420.146485l-10.879666-10.896753v-5.890483l16.787236 16.787236z" fill="#D09C7C" p-id="5202"></path><path d="M225.653762 420.146485l-4.989184-4.989184v-5.907569l10.879666 10.896753z" fill="#CF9B7B" p-id="5203"></path><path d="M220.664578 415.157301l4.989184 4.989184h-4.989184z" fill="#CF9A7A" p-id="5204"></path><path d="M373.496765 535.59824a29.388341 29.388341 0 0 1-3.11824-0.16232c-1.170408-0.128147-2.020448-1.183222-1.88803-2.357901s1.14905-2.028992 2.357902-1.88803c20.934921 2.306643 61.578826-22.066885 98.779852-59.272183 34.608189-34.599645 58.473401-72.701971 59.383243-94.811572 0.051259-1.178951 1.029446-2.157138 2.225484-2.046078a2.135781 2.135781 0 0 1 2.046077 2.221212c-0.95683 23.109146-25.321815 62.351978-60.63481 97.656432-36.338171 36.338171-76.324255 60.66044-99.151478 60.66044z" fill="#4F4539" opacity=".22" p-id="5205"></path><path d="M350.63537 146.869087L143.451839 354.052619l267.591949 267.591949 0.089702-0.093975c0.375897 0.4656 0.751795 0.935472 1.170408 1.3669 18.829042 18.829042 80.484755-12.276467 137.698046-69.489757 57.204747-57.217562 88.314527-118.869004 69.485485-137.698046-0.427156-0.427156-0.897028-0.798782-1.362628-1.170407l0.098246-0.085432-267.587677-267.604764z" fill="#ADADAD" p-id="5206"></path><path d="M472.47738 725.780957c16.919654 16.923925 16.919654 44.59937 0 61.519024l-209.767825 209.776369c-16.915382 16.923925-44.603642 16.923925-61.527567 0L25.85576 821.762937c-16.915382-16.919654-16.915382-44.59937 0-61.519024l209.772097-209.772097c16.915382-16.923925 44.59937-16.923925 61.519024 0l175.330499 175.309141z" fill="#6DB8C9" p-id="5207"></path><path d="M325.16405 578.484714l3.024266 3.019993-271.28685 271.28685-3.019993-3.019994zM441.444488 694.748065l3.019994 3.019994-271.295392 271.295393-3.019994-3.019994zM383.308541 636.61639l3.019994 3.019993-271.291121 271.291121-3.019994-3.019993z" fill="#047391" opacity=".19" p-id="5208"></path><path d="M204.407016 581.714014l236.845252 236.845252-3.024265 3.019994-236.84098-236.845252zM60.122223 725.960363L296.967475 962.809886l-3.019994 3.019994-236.849523-236.849523zM132.251805 653.830781l236.845252 236.845252-3.019994 3.024265-236.845252-236.849523z" fill="#047391" opacity=".19" p-id="5209"></path><path d="M472.47738 725.780957l-21.737974-21.742246c16.906839 16.928197 16.906839 44.595099-0.012815 61.510481l-209.772097 209.776369c-16.915382 16.923925-44.603642 16.923925-61.527567 0L25.851488 821.762937l175.317685 175.321956c16.919654 16.923925 44.607913 16.923925 61.531839 0l209.767825-209.776369c16.928197-16.919654 16.928197-44.603642 0.008543-61.527567z" fill="#035D75" opacity=".53" p-id="5210"></path><path d="M984.389813 205.573153c16.5822 16.573657 16.5822 43.702342 0 60.275999l-205.551794 205.547523c-16.577929 16.573657-43.698071 16.573657-60.280272 0L546.768372 299.6073c-16.5822-16.573657-16.5822-43.698071 0-60.280271L752.307352 33.788049c16.5822-16.586472 43.698071-16.586472 60.280271 0l171.80219 171.785104z" fill="#6DB8C9" p-id="5211"></path><path d="M840.015318 61.2072l3.019993 3.019994-265.819251 265.819251-3.019994-3.019994zM953.937854 175.134008l3.019994 3.015722-265.819252 265.819251-3.019993-3.019994zM896.976586 118.164196l3.019993 3.019994-265.832065 265.827795-3.019994-3.019994z" fill="#047391" opacity=".19" p-id="5212"></path><path d="M721.722974 64.363884l232.073918 232.073918-3.024265 3.019993-232.073918-232.073918zM580.377015 205.709843l232.073918 232.073918-3.019993 3.019993-232.073918-232.073918zM651.041452 135.045406l232.073918 232.073918-3.024266 3.015722-232.069646-232.069646z" fill="#047391" opacity=".19" p-id="5213"></path><path d="M984.385542 205.573153l-21.293733-21.298004c16.560843 16.5822 16.556571 43.693799-0.017086 60.271728l-205.547523 205.547523c-16.577929 16.577929-43.702342 16.577929-60.284543 0l-150.478556-150.482828 0.004271 0.004271 171.785104 171.789375c16.5822 16.5822 43.706614 16.5822 60.280271 0l205.551795-205.543251c16.5822-16.5822 16.5822-43.715157 0-60.288814z" fill="#035D75" opacity=".53" p-id="5214"></path><path d="M570.432821 739.599458c0.294738 0.375897 0.60229 0.751795 0.939743 1.093519 6.945558 6.94983 21.182672 5.399253 38.982268-2.7637l62.437409 62.43741 0.059802-0.068345c0.234936 0.281923 0.448514 0.580932 0.713351 0.828683 10.256018 10.256018 41.476859-3.985367 72.868562-32.130683L275.216686 297.783343l-125.840192 50.340349-5.924655 5.924655 267.587677 267.587678 0.089703-0.089703c0.375897 0.461329 0.751795 0.9312 1.170408 1.362628 7.663181 7.667452 22.412881 7.056619 41.075332-0.213578l116.980974 116.980974 0.076888-0.076888z" fill="#969696" opacity=".45" p-id="5215"></path><path d="M798.26935 674.885306l0.059802-0.059802-62.971355-62.967083c7.402615-16.902568 8.611467-30.366528 1.909388-37.068608-0.337453-0.337453-0.717622-0.627919-1.093519-0.935472l0.089702-0.076888-116.985245-116.980974c7.270197-18.666722 7.889573-33.420695 0.217849-41.092418-0.422885-0.422885-0.892756-0.79451-1.358356-1.166136l0.098246-0.089703-267.600492-267.579135-69.972444 69.976715L786.821566 723.004443c14.241385-21.528668 19.696169-39.973269 12.272196-47.414329a12.827498 12.827498 0 0 0-0.824412-0.704808z" fill="#FFFFFF" opacity=".31" p-id="5216"></path><path d="M354.416633 150.667999a48.23874 146.497462 44.999 1 0-207.175082 207.182313 48.23874 146.497462 44.999 1 0 207.175082-207.182313Z" fill="#D6D6D6" p-id="5217"></path></svg>