<?xml version="1.0" standalone="no"?><!DOCTYPE svg PUBLIC "-//W3C//DTD SVG 1.1//EN" "http://www.w3.org/Graphics/SVG/1.1/DTD/svg11.dtd"><svg t="1723044974942" class="icon" viewBox="0 0 1370 1024" version="1.1" xmlns="http://www.w3.org/2000/svg" p-id="1795" xmlns:xlink="http://www.w3.org/1999/xlink" width="342.5" height="256"><path d="M1.740176 278.257476v486.419514c-3.897288 9.874246 0-10.231079 0 0 0 126.553153 301.841925 259.32301 681.512534 259.32301 379.665033 0 687.444887-102.595143 687.444887-229.153871V278.257476H1.740176z" fill="#777D61" p-id="1796"></path><path d="M1.740176 764.67699c0-10.231079-3.902864 9.86867 0 0z m0-486.419514v486.419514c0 72.704781 99.651269 147.455777 256.429315 197.908657V278.257476H1.740176z" fill="#9CA37F" p-id="1797"></path><path d="M979.017318 1001.753675c231.623827-36.859763 391.674703-115.653011 391.674703-206.907546V278.257476h-391.674703V1001.753675z" fill="#61664F" p-id="1798"></path><path d="M1.7346 278.257476a684.478711 229.153871 0 1 0 1368.957421 0 684.478711 229.153871 0 1 0-1368.957421 0Z" fill="#9CA37F" p-id="1799"></path><path d="M246.572409 245.049679a432.593444 132.981727 0 1 0 865.186889 0 432.593444 132.981727 0 1 0-865.186889 0Z" opacity=".62" p-id="1800"></path><path d="M1058.479629 201.371055c0 64.397256-169.835914 116.612-379.319351 116.612001-209.489012 0-379.302624-52.209169-379.302625-116.612001V116.612h758.621976v84.759055z" fill="#777D61" p-id="1801"></path><path d="M299.857653 116.612a379.313775 116.600849 0 1 0 758.627551 0 379.313775 116.600849 0 1 0-758.627551 0Z" fill="#9CA37F" p-id="1802"></path><path d="M528.04696 103.214026a147.929696 45.473941 0 1 0 295.859392 0 147.929696 45.473941 0 1 0-295.859392 0Z" opacity=".62" p-id="1803"></path></svg>