<?xml version="1.0" standalone="no"?><!DOCTYPE svg PUBLIC "-//W3C//DTD SVG 1.1//EN" "http://www.w3.org/Graphics/SVG/1.1/DTD/svg11.dtd"><svg t="1723045034427" class="icon" viewBox="0 0 1096 1024" version="1.1" xmlns="http://www.w3.org/2000/svg" p-id="3066" xmlns:xlink="http://www.w3.org/1999/xlink" width="274" height="256"><path d="M718.036448 313.739154c0 16.362755-13.384232 29.742739-29.742738 29.742738h-139.051552c-16.358506 0-29.742739-13.379983-29.742739-29.742738V273.998606c0-16.358506 13.384232-29.742739 29.742739-29.742739h139.051552c16.358506 0 29.742739 13.384232 29.742738 29.742739v39.740548z" fill="#FACFA4" p-id="3067"></path><path d="M702.66795 403.230805a8.778357 8.778357 0 0 1-8.748614-8.200498c-0.169959-2.566373-4.002523-63.628216 7.941311-131.27595 16.163054-91.471668 54.004315-150.07761 109.440531-169.474125a8.778357 8.778357 0 0 1 5.791337 16.570955c-120.122423 42.034988-105.816166 280.626988-105.658955 283.0319a8.774108 8.774108 0 0 1-8.76561 9.347718z" fill="#DBCAA9" p-id="3068"></path><path d="M759.646539 313.739154c0 16.358506-13.384232 29.742739-29.742738 29.742738h-139.051552c-16.358506 0-29.742739-13.384232-29.742739-29.742738v-39.736299c0-16.358506 13.384232-29.742739 29.742739-29.742739h139.051552c16.358506 0 29.742739 13.384232 29.742738 29.742739v39.736299z" fill="#E4BC96" p-id="3069"></path><path d="M916.68395 519.750108c-14.251021-136.349212-86.168963-221.872332-214.032996-221.872332h-162.89673c-127.872531 0-164.026954 76.668282-208.152431 221.872332l-38.878009 152.813942h693.010058l-69.049892-152.813942z" fill="#FACFA4" p-id="3070"></path><path d="M899.828315 519.750108c-11.196017-136.349212-67.677477-221.872332-168.09746-221.872332h-127.932017c-100.428481 0-128.824299 76.668282-163.478838 221.872332l-30.533046 152.813942h544.262374l-54.221013-152.813942z" fill="#E4BC96" p-id="3071"></path><path d="M1002.852913 440.128797c0 15.449228-11.412714 31.140647-25.362058 34.862738l-264.298224 70.562523c-13.949344 3.72634-25.362058-5.876315-25.362058-21.325543V375.824996c0-15.453477 11.75688-28.094141 26.126871-28.094141h262.764349c14.365743 0 26.126871 12.640664 26.126871 28.094141v64.303801z" fill="#E4BC96" p-id="3072"></path><path d="M361.497494 628.421577c-106.079602 0-192.371784 76.154158-192.371784 169.763054v10.146523c0 93.617394 86.296432 169.775801 192.371784 169.7758h466.459618c106.079602 0 192.371784-76.158407 192.371784-169.7758v-10.146523c0-93.608896-86.296432-169.763054-192.371784-169.763054H361.497494z" fill="#696E6B" p-id="3073"></path><path d="M687.834822 546.352863h234.343037V489.760929z" fill="#8B6D4C" p-id="3074"></path><path d="M423.022473 628.421577c-106.079602 0-192.371784 76.583303-192.371784 170.740315v10.201759c0 94.148515 86.30068 170.744564 192.371784 170.744565H889.477842c106.079602 0 192.376033-76.591801 192.376034-170.744565v-10.201759c0-94.152763-86.30068-170.740315-192.376034-170.740315H423.022473z" fill="#4C4F4D" p-id="3075"></path><path d="M924.455303 573.60571m-105.756681 0a105.75668 105.75668 0 1 0 211.513361 0 105.75668 105.75668 0 1 0-211.513361 0Z" fill="#F2C89F" p-id="3076"></path><path d="M960.082855 573.979618m-105.756681 0a105.75668 105.75668 0 1 0 211.513361 0 105.75668 105.75668 0 1 0-211.513361 0Z" fill="#E4BC96" p-id="3077"></path><path d="M962.687469 570.73766m-40.169693 0a40.169693 40.169693 0 1 0 80.339386 0 40.169693 40.169693 0 1 0-80.339386 0Z" fill="#8B6D4C" p-id="3078"></path><path d="M394.03605 802.259386m-121.877245 0a121.877245 121.877245 0 1 0 243.75449 0 121.877245 121.877245 0 1 0-243.75449 0Z" fill="#D9D9D9" p-id="3079"></path><path d="M660.390772 804.779021m-121.881494 0a121.881494 121.881494 0 1 0 243.762988 0 121.881494 121.881494 0 1 0-243.762988 0Z" fill="#D9D9D9" p-id="3080"></path><path d="M923.707485 802.259386m-121.881493 0a121.881494 121.881494 0 1 0 243.762987 0 121.881494 121.881494 0 1 0-243.762987 0Z" fill="#D9D9D9" p-id="3081"></path><path d="M394.040299 802.259386m-41.618589 0a41.618589 41.618589 0 1 0 83.237178 0 41.618589 41.618589 0 1 0-83.237178 0Z" fill="#4C4F4D" p-id="3082"></path><path d="M660.386523 806.274656m-41.61434 0a41.61434 41.61434 0 1 0 83.22868 0 41.61434 41.61434 0 1 0-83.22868 0Z" fill="#4C4F4D" p-id="3083"></path><path d="M923.707485 804.779021m-41.61434 0a41.61434 41.61434 0 1 0 83.228681 0 41.61434 41.61434 0 1 0-83.228681 0Z" fill="#4C4F4D" p-id="3084"></path><path d="M408.074622 442.414739a47.320697 47.320697 0 0 0-7.138257-2.09049L69.886938 373.386091c-25.961162-5.251718-51.497427 11.697394-56.749145 37.658556l-2.014009 9.951071c-5.247469 25.961162 11.697394 51.497427 37.658556 56.744896l331.053677 66.938158c1.92478 0.390905 3.841062 0.620349 5.753095 0.769062 4.401925-37.777527 12.139286-72.648763 22.48551-103.033095z" fill="#E4BC96" p-id="3085"></path><path d="M726.627851 533.159834V393.521925c0-15.449228 11.752631-28.089892 26.122622-28.089892h249.15917c-3.866556-10.341975-13.290755-17.701178-24.240332-17.701178h-262.768597c-14.374241 0-26.126871 12.640664-26.126872 28.094141v165.960232c0 15.453477 11.416963 3.105992 25.362058-0.616099l12.504698-3.339685-0.012747-4.66961z" fill="#F2C89F" p-id="3086"></path><path d="M804.001461 718.265892h-245.479569l-37.705294-96.612913h312.557941z" fill="#E4BC96" p-id="3087"></path><path d="M538.509278 718.265892h280.185095v22.141345h-280.185095z" fill="#4C4F4D" p-id="3088"></path><path d="M532.059353 546.225394l-8.633892-1.550871 5.574639-31.00893h70.910937v8.778357h-63.572979zM600.450656 673.34161l-8.638141-1.55512 9.428448-52.393959h123.402622v8.778357h-116.068913z" fill="#FFFFFF" opacity=".5" p-id="3089"></path><path d="M687.834822 664.100116h94.437444v8.778357h-94.437444z" opacity=".2" p-id="3090"></path><path d="M935.324149 582.753726a40.156946 40.156946 0 0 1 40.165444-40.165444c7.49517 0 14.484714 2.09049 20.488498 5.659618a40.131452 40.131452 0 0 0-33.290622-17.679933 40.156946 40.156946 0 0 0-40.165444 40.165444c0 14.688664 7.90732 27.503535 19.681195 34.510074a39.97849 39.97849 0 0 1-6.879071-22.489759z" fill="#695239" p-id="3091"></path><path d="M93.328465 455.620515c-25.961162-5.247469-42.910274-30.787983-37.654307-56.744897l2.009759-9.95107a47.690357 47.690357 0 0 1 6.730357-16.439237c-23.063369-0.790307-44.159469 15.207037-48.875818 38.529594l-2.009759 9.95107c-5.251718 25.956913 11.693145 51.497427 37.654307 56.744896l331.049428 66.938158c1.92478 0.390905 3.841062 0.620349 5.753095 0.769062 1.164216-10.006307 2.583369-19.795917 4.202224-29.36883L93.328465 455.620515z" fill="#CFAA88" p-id="3092"></path><path d="M426.880531 426.502373l-144.553958-25.80395c-33.796249-6.029278-66.385793 16.685676-72.415071 50.481926l-2.311436 12.950838c-6.029278 33.792 16.681427 66.381544 50.473428 72.410821l145.65444 26.003652 23.152597-136.043287z" fill="#E4BC96" p-id="3093"></path><path d="M288.874224 497.324083c-33.792-6.029278-56.506954-38.618822-50.473427-72.406573l2.043751-11.46795c-13.783635 9.109776-24.00239 23.556249-27.121129 41.00249l-2.311436 12.955087c-6.033527 33.787751 16.681427 66.377295 50.473428 72.410822l145.65444 25.999402 7.826589-45.982274-126.092216-22.511004z" fill="#CFAA88" p-id="3094"></path><path d="M34.123419 444.802656l2.009759-9.951071c5.251718-25.961162 30.787983-42.914523 56.749146-37.658556l306.21424 61.915884a423.621577 423.621577 0 0 1 6.475419-20.917643 47.176232 47.176232 0 0 0-7.138257-2.09049L67.392797 369.162622C41.427386 363.906656 15.89112 380.860017 10.639402 406.821178l-2.009759 9.951071C4.117245 439.075054 16.018589 461.033693 35.916481 470.113726c-2.761826-7.890324-3.560631-16.570954-1.793062-25.31107z" fill="#FACFA4" p-id="3095"></path></svg>