<?xml version="1.0" standalone="no"?><!DOCTYPE svg PUBLIC "-//W3C//DTD SVG 1.1//EN" "http://www.w3.org/Graphics/SVG/1.1/DTD/svg11.dtd"><svg t="1723045149184" class="icon" viewBox="0 0 1127 1024" version="1.1" xmlns="http://www.w3.org/2000/svg" p-id="5386" xmlns:xlink="http://www.w3.org/1999/xlink" width="281.75" height="256"><path d="M804.380292 627.720473l109.153371 241.063307h186.954564v92.066638h-242.012822l-319.446021-153.944142zM612.287442 605.895251L50.197103 190.879833 107.004468 111.624836l596.082078 348.367622z" fill="#A5C2BA" p-id="5387"></path><path d="M956.05741 735.701715c-12.716236 21.511746-40.720122 28.712616-62.227325 16.000923L374.036336 444.550341c-21.511746-12.711693-28.712616-40.711036-16.000923-62.227326l38.830179-65.716453c12.711693-21.498117 40.711036-28.698986 62.227325-15.99638l519.798292 307.143211c21.511746 12.716236 28.712616 40.711036 15.996379 62.222782l-38.830178 65.72554z" fill="#A5C2BA" p-id="5388"></path><path d="M148.465121 99.512837c21.684385 12.411846 29.271421 40.315783 16.859576 62.000169l-34.754986 60.709918c-12.411846 21.675299-40.31124 29.257792-61.995626 16.855032l-0.308933-0.177182c-21.684385-12.416389-29.271421-40.315783-16.859575-62.000168l34.754986-60.691746c12.411846-21.684385 40.31124-29.271421 61.995625-16.868662l0.308933 0.172639z" fill="#8FA8A1" p-id="5389"></path><path d="M893.575669 725.316107c-12.70715 21.511746-40.711036 28.712616-62.209152 16.000923L411.06289 492.948362c-21.511746-12.711693-28.712616-40.711036-16.000923-62.222782l64.139985-108.549134c12.711693-21.511746 40.711036-28.712616 62.227325-16.000923l420.303627 248.359582c21.498117 12.711693 28.703529 40.711036 15.99638 62.222782l-64.153615 108.55822z" fill="#98B3AB" p-id="5390"></path><path d="M798.792236 724.78456c-12.711693 21.498117-40.715579 28.698986-62.222782 15.99638l-262.502363-155.120814c-21.511746-12.725322-28.712616-40.711036-16.000923-62.222783l115.391096-195.277588c12.716236-21.498117 40.711036-28.698986 62.213696-15.99638l262.502362 155.116272c21.498117 12.711693 28.703529 40.711036 15.99638 62.227325l-115.377466 195.277588z" fill="#8FA8A1" p-id="5391"></path><path d="M523.973433 711.573123m-253.084443 0a253.084443 253.084443 0 1 0 506.168886 0 253.084443 253.084443 0 1 0-506.168886 0Z" fill="#636363" p-id="5392"></path><path d="M519.907327 710.364649m-155.107185 0a155.107185 155.107185 0 1 0 310.21437 0 155.107185 155.107185 0 1 0-310.21437 0Z" fill="#F2F2F2" p-id="5393"></path><path d="M519.907327 711.573123m-57.388886 0a57.388886 57.388886 0 1 0 114.777772 0 57.388886 57.388886 0 1 0-114.777772 0Z" fill="#636363" p-id="5394"></path></svg>