<?xml version="1.0" standalone="no"?><!DOCTYPE svg PUBLIC "-//W3C//DTD SVG 1.1//EN" "http://www.w3.org/Graphics/SVG/1.1/DTD/svg11.dtd"><svg t="1723044949924" class="icon" viewBox="0 0 1101 1024" version="1.1" xmlns="http://www.w3.org/2000/svg" p-id="1606" xmlns:xlink="http://www.w3.org/1999/xlink" width="275.25" height="256"><path d="M722.127507 627.283454h374.639647v184.698925h-374.639647z" fill="#45575C" p-id="1607"></path><path d="M246.901286 688.064846a285.285498 276.669463 90 1 0 553.338925 0 285.285498 276.669463 90 1 0-553.338925 0Z" fill="#DEB290" p-id="1608"></path><path d="M303.117533 688.064846a285.285498 248.561339 90 1 0 497.122678 0 285.285498 248.561339 90 1 0-497.122678 0Z" fill="#FFCDA6" p-id="1609"></path><path d="M405.607753 689.90985a168.278837 146.616952 90 1 0 293.233903 0 168.278837 146.616952 90 1 0-293.233903 0Z" fill="#636363" p-id="1610"></path><path d="M503.189991 689.90985a62.63993 54.574238 90 1 0 109.148476 0 62.63993 54.574238 90 1 0-109.148476 0Z" fill="#BFBFBF" p-id="1611"></path><path d="M686.395771 519.294308m-310.195313 0a310.195313 310.195313 0 1 0 620.390626 0 310.195313 310.195313 0 1 0-620.390626 0Z" fill="#51666E" p-id="1612"></path><path d="M536.598555 740.243736L83.516899 465.514009C38.081974 435.885674 19.523665 371.360141 42.268194 322.11341l35.984352-127.503789c22.744529-49.24222 82.867313-73.809198 133.584635-54.605815l537.748863 106.496s152.503824 110.434115 123.579207 289.237146c-28.924617 178.79852-271.409621 247.000529-336.566696 204.506784z" fill="#51666E" p-id="1613"></path><path d="M686.395771 209.103507c-20.195806 0-39.917956 1.993868-59.044652 5.679365 16.135894 35.073128 48.200176 74.79711 100.627172 118.486273 0 0-27.891595-78.162326 59.022097-80.715559 86.90467-2.553233 230.476687 177.923383 163.803912 367.57089-13.370643 38.018819-9.130291 53.983295 4.831295 53.153268a308.67059 308.67059 0 0 0 40.955489-153.983436c0-171.310238-138.885075-310.190802-310.195313-310.190801z" fill="#647E87" p-id="1614"></path><path d="M996.591084 519.294308a309.257022 309.257022 0 0 0-19.573287-108.544c17.268159 178.816564-53.360775 243.504493-132.745586 285.163701-137.026537 71.914573-320.417269 24.616599-268.815788 12.703013 81.500476-18.815436 131.721586-151.209163 131.721586-151.209163-19.000388-43.206485-157.889974 188.447577-317.435489 52.729234 38.844335 126.980511 156.942661 219.338996 296.644229 219.338995 171.31926 0.009022 310.204335-138.867031 310.204335-310.18178z" fill="#45575C" p-id="1615"></path><path d="M544.262767 442.462731a94.221533 94.221533 0 0 1-34.062661-9.468616L176.691877 310.750167c-39.728493-19.771771-54.014872-80.914044-31.924441-114.309074 22.094943-33.395031 72.198767-57.971031 111.92726-38.208282l307.249621 73.50696c39.710449 19.76726 85.88067 118.725357 58.183049 176.579101-12.37822 25.861639-46.937093 36.746714-77.864599 34.143859z" fill="#647E87" opacity=".6" p-id="1616"></path><path d="M621.112388 612.951965c-40.305903 6.31993-75.207612 3.685498-94.528282-7.92585L73.493427 365.022167c-14.453286-8.6837-26.154855-20.646907-34.703224-34.346854-17.065163 47.929515 1.840493 106.89748 44.690608 134.838696l350.753832 203.852687c66.956969-12.071471 129.804405-31.29741 186.877745-56.414731zM867.337022 420.340722a293.635383 293.635383 0 0 0-3.135154-11.051982c-0.35637 2.426925-0.62252 4.826784-1.055577 7.280775a180.386396 180.386396 0 0 1-3.013357 13.898432c2.44948-3.351683 4.85385-6.730432 7.204088-10.127225z" fill="#45575C" p-id="1617"></path><path d="M639.359436 212.653674a307.524793 307.524793 0 0 0-30.611736 6.247753c67.489269 42.980934 112.297163 118.409586 112.297163 204.348899 0 133.751542-108.422203 242.169233-242.169233 242.169233-24.945903 0-49.003137-3.780229-71.648423-10.785832a309.040493 309.040493 0 0 0 15.030696 27.300652 265.134802 265.134802 0 0 0 56.617727 6.125956c146.260581 0 264.81452-118.553938 264.81452-264.81452 0-85.898714-40.928423-162.211524-104.330714-210.592141z" fill="#647E87" p-id="1618"></path><path d="M722.127507 422.749604c0-74.282855-32.05526-140.987207-82.989111-187.315313l-34.716757-10.781322c-3.811806 0.816493-7.61459 1.651031-11.367754 2.620899 64.55711 41.113374 107.416247 113.267031 107.416247 195.475736 0 127.936846-103.717216 231.654062-231.658573 231.654061-23.86326 0-46.873938-3.626855-68.531312-10.316687a292.945198 292.945198 0 0 0 6.910872 13.321022l22.455824 15.553974c12.770678 1.998379 25.834573 3.094555 39.169127 3.094555 139.900053 0 253.311436-113.402361 253.311437-253.306925z" fill="#45575C" p-id="1619"></path><path d="M502.82911 703.515066a285.285498 276.669463 90 1 0 553.338925 0 285.285498 276.669463 90 1 0-553.338925 0Z" fill="#DEB290" p-id="1620"></path><path d="M559.045357 703.515066a285.285498 248.561339 90 1 0 497.122678 0 285.285498 248.561339 90 1 0-497.122678 0Z" fill="#FFCDA6" p-id="1621"></path><path d="M661.531066 705.36007a168.278837 146.616952 90 1 0 293.233903 0 168.278837 146.616952 90 1 0-293.233903 0Z" fill="#636363" p-id="1622"></path><path d="M759.113304 705.36007a62.63993 54.574238 90 1 0 109.148476 0 62.63993 54.574238 90 1 0-109.148476 0Z" fill="#BFBFBF" p-id="1623"></path><path d="M28.026357 263.202251a131.157709 184.360599 20.138 1 0 246.27906 90.310595 131.157709 184.360599 20.138 1 0-246.27906-90.310595Z" fill="#51666E" p-id="1624"></path><path d="M25.134327 260.52065a114.886485 177.445216 20.138 1 0 215.726056 79.106801 114.886485 177.445216 20.138 1 0-215.726056-79.106801Z" fill="#6D8994" p-id="1625"></path><path d="M55.360052 270.862668a80.697515 124.634784 20.132 1 0 151.534144 55.549608 80.697515 124.634784 20.132 1 0-151.534144-55.549608Z" p-id="1626"></path></svg>