<?xml version="1.0" standalone="no"?><!DOCTYPE svg PUBLIC "-//W3C//DTD SVG 1.1//EN" "http://www.w3.org/Graphics/SVG/1.1/DTD/svg11.dtd"><svg t="1723045132323" class="icon" viewBox="0 0 1024 1024" version="1.1" xmlns="http://www.w3.org/2000/svg" p-id="4963" xmlns:xlink="http://www.w3.org/1999/xlink" width="256" height="256"><path d="M707.97331 977.338515v-67.401338l-25.484154-35.73303 25.484154-35.580125 0.004247-549.476571c0-9.760431-5.198767-67.456554-35.163884-121.22387C644.492284 117.099684 598.289514 4.14967 509.167183 4.145422c-85.240245 0-136.27651 113.043457-161.930558 163.786653C317.708986 226.337507 316.171442 289.151698 316.171442 289.151698l0.004248 549.480818 25.484153 35.580126-25.484153 35.728783v67.401338s0 46.636001 196.792879 46.636c196.801374 0 195.004741-46.640248 195.004741-46.640248z" fill="#D5A97C" p-id="4964"></path><path d="M692.644591 999.624407H693.455837v3.601761h-0.811246z" fill="#BD946C" p-id="4965"></path><path d="M333.275557 997.980679h0.662588v10.121457h-0.662588zM333.942392 997.980679h1.095818v10.121457h-1.095818z" fill="#D4A26C" p-id="4966"></path><path d="M461.749668 191.092923s1.537544-76.915422 31.06943-148.43245c4.914194-11.905347 10.771302-26.618198 17.60955-42.609505C510.00816 0.046721 509.596166 0 509.167183 0 423.92269 0 372.890673 113.043457 347.236625 163.786653 317.704739 222.192085 316.167195 285.002028 316.167195 285.002028l0.004247 553.621994 25.484154 35.580125-25.484154 36.901054v62.092139s0.012742 38.137035 145.582473 45.433998l-0.004247-827.538415z" fill="#FFFFFF" opacity=".33" p-id="4967"></path><path d="M519.675148 316.963404C399.857154 316.963404 316.655641 287.435765 315.440897 286.99404l1.452596-3.98827c1.771149 0.645599 179.748228 63.744362 390.506423 4.102948l1.151034 4.08596c-67.898279 19.219299-132.458134 25.768726-188.875802 25.768726z" fill="#5A3D1C" opacity=".41" p-id="4968"></path><path d="M682.489156 874.204147c-196.928795 63.710383-340.833561 0-340.83356 0l-25.484154 36.901054v66.237562s0 46.640248 196.792879 46.640248c196.805621 0 195.008988-46.640248 195.008989-46.640248v-67.401338l-25.484154-35.737278z" fill="#8F0000" opacity=".22" p-id="4969"></path><path d="M672.813673 167.927828C651.347521 129.417025 600.604325 13.808164 520.902635 4.145422c47.893219 19.461398 66.339498 65.4518 81.048102 86.586658C646.768868 155.117794 659.349545 339.410696 659.366535 351.702552l-3.848107 659.049936s52.463377-13.137081 52.463376-33.346015v-67.47779l-25.484153-35.728783 25.484153-35.584373 0.004248-549.476571c-0.008495-9.747689-5.203015-67.443812-35.172379-121.211128z" fill="#570000" opacity=".21" p-id="4970"></path><path d="M316.171442 911.109448s179.569839 95.442401 391.801868-1.168023l-25.484154-35.728783s-171.17281 63.710383-340.83356 0l-25.717758 32.560253" fill="#FFFFFF" opacity=".25" p-id="4971"></path><path d="M332.791358 885.425669s154.612358 73.52603 357.70407 0l-8.006272-11.225769s-169.286983 60.881642-340.83356 0l-8.864238 11.225769z" fill="#540000" opacity=".17" p-id="4972"></path></svg>