<?xml version="1.0" standalone="no"?><!DOCTYPE svg PUBLIC "-//W3C//DTD SVG 1.1//EN" "http://www.w3.org/Graphics/SVG/1.1/DTD/svg11.dtd"><svg t="1723045011575" class="icon" viewBox="0 0 1028 1024" version="1.1" xmlns="http://www.w3.org/2000/svg" p-id="2495" xmlns:xlink="http://www.w3.org/1999/xlink" width="257" height="256"><path d="M186.584663 619.936417c-74.329292 73.189221-193.067256 330.013068-150.543445 371.883627 62.891135 61.917498 274.465819-33.952475 369.990443-129.472939 88.014303-88.010142 121.47996-223.541267 58.61379-271.948509-152.524006-117.456425-278.060787 29.537821-278.060788 29.537821z" fill="#D0000E" opacity=".4" p-id="2496"></path><path d="M367.298378 652.748822c35.254819 33.428209 20.750122 107.89897-32.400481 166.346325-53.150603 58.426551-124.829438 78.71482-160.09674 45.261645-35.254819-33.419888-20.750122-107.890648 32.400481-166.317199 53.154764-58.434873 124.829438-78.689855 160.09674-45.290771z" fill="#D0000E" opacity=".4" p-id="2497"></path><path d="M609.347073 619.262361l8.979098 5.275948s38.51692 135.090076 10.377141 188.993791c-32.433768 62.079771-148.134317 142.721061-198.455547 160.159152-39.873354 13.838962 35.658421-141.410396 0.832169-245.027858l178.267139-109.401033z" fill="#98C2D9" p-id="2498"></path><path d="M635.023632 705.462536s-78.211358 77.341742-195.896629 119.761532c0 0 2.255177-27.11205 1.127589-42.731853-1.127588-15.619803 0-6.96525 0-6.965251l194.76904-70.064428z" fill="#3F3F3F" p-id="2499"></path><path d="M366.923902 389.117836l4.481228-10.576861s-138.214869-19.967883-191.536067 15.544907c-53.33368 35.516952-224.59396 221.053083-86.820141 204.742581 137.786302-16.310503 169.33381-17.820889 169.333811-17.820889l104.541169-191.889738z" fill="#BDE8FF" p-id="2500"></path><path d="M402.56568 790.947047s251.477164-40.934369 455.724604-253.470208c166.163248-172.907974 138.306407-375.957091 122.141533-445.663687 0 0-7.50616-29.271527-41.134089-34.514189C421.676429-23.529565 233.423268 600.571856 233.423268 600.571856s-16.884699 77.258525 41.550174 135.697559c70.455547 70.451386 127.592237 54.677632 127.592238 54.677632z" fill="#98C2D9" p-id="2501"></path><path d="M451.255859 779.538016c-217.091961-25.418587-203.639957-219.226473-203.639957-219.226473h-0.004161c-9.632351 25.168937-14.188473 40.260313-14.188473 40.260313s-16.884699 77.258525 41.550174 135.697559c70.455547 70.451386 127.592237 54.685954 127.592238 54.685953s18.1704-2.966681 48.690179-11.417352z" fill="#3F3F3F" p-id="2502"></path><path d="M939.297728 57.294802C421.676429-23.529565 233.423268 600.571856 233.423268 600.571856s-16.884699 77.258525 41.550174 135.697559a264.650392 264.650392 0 0 0 14.895817 13.78071c41.404544-9.753015 82.900627 19.447778 124.159542 3.819654 315.945259-119.690797 589.499854-485.241621 549.97601-686.018919-6.008257-4.797451-14.0262-8.891721-24.707083-10.556058z" fill="#BDE8FF" p-id="2503"></path><path d="M516.755843 249.259435c-79.775835 78.644085-128.19556 177.464096-105.177778 198.189253 20.042779 23.791698 95.953191-46.181192 174.035562-126.285733 78.361148-80.304262 106.546696-118.571531 85.63014-139.65452-19.797289-21.686311-75.552579-12.216234-154.487924 67.751z" fill="#FFFFFF" p-id="2504"></path><path d="M487.001658 530.7654s-75.594188 154.787504-183.538927 230.115398c0 0-23.5046-14.479732-32.412963-27.898449l215.95189-202.216949z" fill="#3F3F3F" p-id="2505"></path><path d="M483.348438 521.807106c12.224555 12.09973-3.99857 48.328186-77.757826 122.882164-73.763417 74.553977-143.465852 125.18311-155.690407 113.083379-12.228716-12.09973 37.651464-82.338914 111.41072-156.892891 73.763417-74.553977 109.808796-91.164061 122.037513-79.072652z" fill="#BDE8FF" p-id="2506"></path><path d="M483.348438 521.807106c12.224555 12.09973-3.99857 48.328186-77.757826 122.882164-73.763417 74.553977-143.465852 125.18311-155.690407 113.083379-12.228716-12.09973 37.651464-82.338914 111.41072-156.892891 73.763417-74.553977 109.808796-91.164061 122.037513-79.072652z" fill="#BDE8FF" opacity=".23" p-id="2507"></path><path d="M939.31021 57.294802c-110.104216-17.192602-205.295972-2.475701-286.952508 31.326984 43.439196 142.267529 164.349121 250.707408 313.569418 276.175926 41.633391-118.22202 25.418587-225.958717 14.513019-272.988721 0.004161 0-7.501999-29.267367-41.129929-34.514189z" fill="#00C4FF" opacity=".5" p-id="2508"></path></svg>