<?xml version="1.0" standalone="no"?><!DOCTYPE svg PUBLIC "-//W3C//DTD SVG 1.1//EN" "http://www.w3.org/Graphics/SVG/1.1/DTD/svg11.dtd"><svg t="1723045064079" class="icon" viewBox="0 0 1024 1024" version="1.1" xmlns="http://www.w3.org/2000/svg" p-id="3639" xmlns:xlink="http://www.w3.org/1999/xlink" width="256" height="256"><path d="M498.522393 953.624776c0 31.080477-26.28647 56.50886-58.418405 56.508859H314.960249c-64.356529 0-58.422434-25.432411-58.422434-56.508859s26.290498-56.504831 58.422434-56.504831h125.143739c32.131936-0.004029 58.418406 25.424354 58.418405 56.504831zM772.413307 953.624776c0 31.076449 5.930066 56.50886-58.422434 56.508859h-125.135681c-32.131936 0-58.422434-25.428383-58.422435-56.508859 0-31.076449 26.290498-56.504831 58.422435-56.504831h125.135681c32.131936-0.004029 58.422434 25.424354 58.422434 56.504831z" p-id="3640"></path><path d="M498.760079 693.781513h31.66865v179.952538h-31.66865z" fill="#666666" p-id="3641"></path><path d="M256.541844 863.980864v82.4247h242.218235v-72.671513h30.891134v72.671513h242.762094v-82.4247z" fill="#666666" p-id="3642"></path><path d="M497.946307 899.601548s0.741258-16.223082 16.223082-16.223082c15.489881 0 15.489881 16.223082 15.489881 16.223082l19.11963-30.27879H476.312844l21.633463 30.27879zM530.432757 804.2572s1.289145 59.719636 55.691059 59.719636l-59.719636 5.345922 4.028577-65.065558zM498.760079 808.366349s-2.517861 55.610487-56.919774 55.610487l59.723664 2.824033-2.80389-58.43452z" fill="#666666" p-id="3643"></path><path d="M292.770843 899.666006c0 25.811097-20.928461 46.739559-46.739559 46.739558H174.334687c-25.811097 0-46.739559-20.924433-46.739559-46.739558v-128.100715c0-72.703742 67.663991-114.242407 93.475089-114.242407h24.957039c25.811097 0 46.739559 20.924433 46.739559 46.739559v195.603563z" fill="#4A7063" p-id="3644"></path><path d="M292.770843 879.325717v24.235923c0 25.811097-20.928461 46.739559-46.739559 46.739559H174.334687c-25.811097 0-46.739559-20.924433-46.739559-46.739559v-24.235923" fill="#F5C189" p-id="3645"></path><path d="M881.168791 899.666006c0 25.811097-20.924433 46.739559-46.739559 46.739558h-71.692569c-25.811097 0-46.739559-20.924433-46.739559-46.739558v-195.607592c0-25.811097 20.924433-46.739559 46.739559-46.739558s118.428099 28.562616 118.4281 101.266358v141.080792z" fill="#4A7063" p-id="3646"></path><path d="M881.168791 879.325717v24.235923c0 25.811097-20.924433 46.739559-46.739559 46.739559h-71.692569c-25.811097 0-46.739559-20.924433-46.739559-46.739559v-24.235923" fill="#F5C189" p-id="3647"></path><path d="M826.057848 813.112013c0 134.800239-142.377994 158.387562-318.00384 158.387562s-317.999811-23.587323-317.999811-158.387562c0-134.792182 142.373965-244.071381 317.999811-244.071381 175.637932 0 318.00384 109.279199 318.00384 244.071381z" fill="#4A7063" p-id="3648"></path><path d="M260.675164 730.058855a171.093696 171.093696 0 0 0-3.919806 36.096056c0 113.573663 111.950146 133.446637 250.049791 133.446637 138.091587 0 250.045762-19.872974 250.045762-133.446637a171.093696 171.093696 0 0 0-3.919806-36.096056H260.675164z" fill="#588575" p-id="3649"></path><path d="M128.171215 602.119284l-1.136059 66.685047v-0.342429l1.140087-66.685047-0.004028 0.342429" fill="#7F572D" p-id="3650"></path><path d="M128.179272 605.438832l-1.140088 66.685047-0.004028-3.323577 1.136059-66.681018z" fill="#7B542B" p-id="3651"></path><path d="M293.326787 605.805432l-1.140088 66.685047a17.866742 17.866742 0 0 1-1.534888 6.945268l1.136059-66.685047a17.870771 17.870771 0 0 0 1.538917-6.945268" fill="#8E6132" p-id="3652"></path><path d="M291.78787 612.746672l-1.136059 66.685047a18.761086 18.761086 0 0 1-2.932804 4.628836l1.140087-66.685047c1.196488-1.393888 2.187518-2.952947 2.928776-4.628836" fill="#895E30" p-id="3653"></path><path d="M288.859094 617.379536l-1.140087 66.685047c-1.172316 1.369716-2.542033 2.582318-4.068864 3.601549l1.140088-66.685047a20.106631 20.106631 0 0 0 4.068863-3.601549" fill="#845B2E" p-id="3654"></path><path d="M284.790231 620.977056l-1.140088 66.685047a20.767318 20.767318 0 0 1-11.549932 3.468605l1.140087-66.689075a20.702861 20.702861 0 0 0 11.549933-3.464577" fill="#7F572D" p-id="3655"></path><path d="M273.240298 624.445661l-1.136059 66.685047-124.902023-0.020142L148.338275 624.429547z" fill="#7C552B" p-id="3656"></path><path d="M273.159727 583.15274c11.058446 0 20.142889 8.552671 20.159003 18.990715l0.004028 3.31552c0.020143 10.438045-9.028043 18.990715-20.086488 18.986686L148.338275 624.429547c-11.058446 0-20.13886-8.556699-20.159003-18.990715l-0.008057-3.319548c-0.020143-10.434016 9.028043-18.986687 20.086488-18.986687l124.902024 0.020143z" fill="#E09A4F" p-id="3657"></path><path d="M148.338275 624.429547l-1.136059 66.685047c-11.058446 0-20.142889-8.552671-20.159003-18.990715l1.140087-66.685047c0.016114 10.434016 9.096528 18.990715 20.154975 18.990715" fill="#7F572D" p-id="3658"></path><path d="M723.91326 602.119284l-1.136059 66.685047v-0.342429l1.140087-66.685047-0.004028 0.342429" fill="#7F572D" p-id="3659"></path><path d="M723.921317 605.438832l-1.136059 66.685047-0.008057-3.323577 1.136059-66.681018z" fill="#7B542B" p-id="3660"></path><path d="M889.064803 605.805432l-1.136058 66.685047a18.011771 18.011771 0 0 1-1.534889 6.945268l1.136059-66.685047a17.794228 17.794228 0 0 0 1.534888-6.945268" fill="#8E6132" p-id="3661"></path><path d="M887.529915 612.746672l-1.136059 66.685047a18.660372 18.660372 0 0 1-2.936833 4.628836l1.140088-66.685047c1.200516-1.393888 2.191546-2.952947 2.932804-4.628836" fill="#895E30" p-id="3662"></path><path d="M884.601139 617.379536l-1.140087 66.685047c-1.172316 1.369716-2.542033 2.582318-4.064835 3.601549l1.136059-66.685047a19.99786 19.99786 0 0 0 4.068863-3.601549" fill="#845B2E" p-id="3663"></path><path d="M880.532276 620.977056l-1.136059 66.685047a20.779404 20.779404 0 0 1-11.549932 3.468605l1.140087-66.689075a20.706889 20.706889 0 0 0 11.545904-3.464577" fill="#7F572D" p-id="3664"></path><path d="M868.986372 624.445661l-1.140087 66.685047-124.902024-0.020142 1.136059-66.681019z" fill="#7C552B" p-id="3665"></path><path d="M868.901772 583.15274c11.058446 0 20.13886 8.552671 20.163031 18.990715l0.004029 3.31552c0.020143 10.438045-9.024014 18.990715-20.08246 18.986686L744.08032 624.429547c-11.058446 0-20.13886-8.556699-20.159003-18.990715l-0.008057-3.319548c-0.020143-10.434016 9.028043-18.986687 20.086488-18.986687l124.902024 0.020143z" fill="#E09A4F" p-id="3666"></path><path d="M744.08032 624.429547l-1.136059 66.685047c-11.058446 0-20.13886-8.552671-20.159003-18.990715l1.136059-66.685047c0.020143 10.434016 9.100557 18.990715 20.159003 18.990715" fill="#7F572D" p-id="3667"></path><path d="M838.896925 254.859913v361.020992c0 42.843924-35.052655 77.896579-77.896579 77.896579H267.954804c-42.843924 0-77.896579-35.052655-77.896578-77.896579V202.927517" fill="#F5C189" p-id="3668"></path><path d="M838.896925 615.884934V254.859913L190.058226 202.927517v298.010009c16.303654-48.012589 0-186.128348 142.67208-127.927486 164.124256 66.954962 529.995657-19.639316 456.353256 239.950146-7.050011 24.852296-38.207031 67.672049-30.93142 80.817298h2.848204c42.843924 0.004029 77.896579-35.052655 77.896579-77.89255z" fill="#C98A47" opacity=".3" p-id="3669"></path><path d="M761.000346 586.923488H258.721304c-49.785164 2.598433-55.497687-96.967866-68.65905-121.465646v150.423063c0 42.843924 35.052655 77.896579 77.896579 77.896579h493.045542c42.843924 0 77.896579-35.052655 77.896579-77.896579v-187.058949c-0.004029 42.847953-12.843106 158.101533-77.900608 158.101532z" fill="#DEA76B" p-id="3670"></path><path d="M843.203475 344.064709c29.823561 45.8573-184.093916 44.326441-401.407485 11.985019-217.30954-32.341422-292.317628-45.450414-272.617883-147.018916 11.81179-60.867781 13.918736-85.663677 57.028546-125.111509C288.154093 27.253328 387.422277 1.712146 530.493186 23.007207c217.329682 32.337393 259.45652 239.204859 312.710289 321.057502z" fill="#D14949" p-id="3671"></path><path d="M213.254776 139.340446s273.117427 275.321059 610.434268 230.474932c0.004029 0 255.8026-98.228811-610.434268-230.474932z" fill="#B03D3D" p-id="3672"></path><path d="M906.782488 292.027571c-5.724609-59.997608-163.419255-240.626947-395.267932-272.126397-77.106978-10.478331-123.745822-15.276367-206.03355 17.725742-10.160073 3.251062-204.87332 72.727914-10.873131 166.215088 198.455796 95.630378 359.365247 129.877317 359.365247 129.877317 135.384383 38.327888 259.778806 31.378592 252.809366-41.69175z" fill="#ED5353" p-id="3673"></path><path d="M652.05149 730.800113h33.682939v53.322255h-33.682939z" fill="#FFF76D" p-id="3674"></path><path d="M685.734429 730.800113h33.682938v53.322255h-33.682938z" fill="#FFB46D" p-id="3675"></path><path d="M720.537312 730.800113h33.682938v53.322255h-33.682938z" fill="#6DCEFF" p-id="3676"></path><path d="M855.192522 258.018317c-5.027665-52.705882-143.570453-211.395587-347.251314-239.067887C440.192616 9.74513 399.221981 5.531237 326.933182 34.524911c-8.927328 2.856262-179.988796 63.893243-9.551758 146.027885 174.344758 84.01196 315.711579 114.097378 315.711579 114.097379 118.939729 33.674881 228.222957 27.567557 222.099519-36.631858z" fill="#FF5959" p-id="3677"></path><path d="M242.119535 423.637176a45.305385 35.096969 0 1 0 90.610771 0 45.305385 35.096969 0 1 0-90.610771 0Z" fill="#FFFFFF" opacity=".3" p-id="3678"></path><path d="M685.734429 870.47896m-33.682939 0a33.682938 33.682938 0 1 0 67.365877 0 33.682938 33.682938 0 1 0-67.365877 0Z" fill="#588575" p-id="3679"></path><path d="M714.909388 844.003147m-29.170931 0a29.170931 29.170931 0 1 0 58.341863 0 29.170931 29.170931 0 1 0-58.341863 0Z" fill="#588575" p-id="3680"></path><path d="M624.081075 855.089793m-27.970415 0a27.970415 27.970415 0 1 0 55.94083 0 27.970415 27.970415 0 1 0-55.94083 0Z" fill="#4A7063" p-id="3681"></path><path d="M525.352721 847.548296m-10.756303 0a10.756303 10.756303 0 1 0 21.512605 0 10.756303 10.756303 0 1 0-21.512605 0Z" fill="#4A7063" p-id="3682"></path></svg>