<?xml version="1.0" standalone="no"?><!DOCTYPE svg PUBLIC "-//W3C//DTD SVG 1.1//EN" "http://www.w3.org/Graphics/SVG/1.1/DTD/svg11.dtd"><svg t="1723045117917" class="icon" viewBox="0 0 1024 1024" version="1.1" xmlns="http://www.w3.org/2000/svg" p-id="4409" xmlns:xlink="http://www.w3.org/1999/xlink" width="256" height="256"><path d="M502.219325 947.027226c0 32.624724-27.601646 59.324576-61.338864 59.324576H309.483984c-33.733004 0-61.33465-26.691424-61.334651-59.324576s27.601646-59.333004 61.334651-59.333004h131.396477c33.733004 0 61.338864 26.699852 61.338864 59.333004zM789.790551 947.027226c0 32.624724-27.601646 59.324576-61.338864 59.324576h-131.388049c-33.737218 0-61.343078-26.691424-61.343078-59.324576s27.60586-59.333004 61.343078-59.333004h131.388049c33.741432 0 61.338864 26.699852 61.338864 59.333004z" fill="#232B1D" p-id="4410"></path><path d="M502.467951 678.452675h33.256823v188.938535h-33.256823z" fill="#666666" p-id="4411"></path><path d="M248.149333 857.142782v86.542749h254.318618v-76.294321h32.435094v76.294321h254.887506v-86.542749z" fill="#666666" p-id="4412"></path><path d="M501.616724 894.558815s0.779588-17.037169 17.037169-17.037169c16.249152 0 16.249152 17.037169 16.249152 17.037169l20.083885-31.802996H478.899095l22.717629 31.802996zM535.724774 794.442798s1.348477 62.699984 58.473349 62.699984l-62.704197 5.613037 4.230848-68.313021zM502.467951 798.757926s-2.642173 58.384856-59.767046 58.384856l62.708412 2.970864-2.941366-61.35572z" fill="#666666" p-id="4413"></path><path d="M286.184823 894.617811c0 27.104395-21.967539 49.071934-49.071934 49.071934H161.838354C134.738173 943.685531 112.76642 921.722206 112.76642 894.617811v-134.493762c0-76.336461 71.039473-119.951276 98.143868-119.951275h26.202601c27.104395 0 49.071934 21.967539 49.071934 49.071934v205.373103z" fill="#668055" p-id="4414"></path><path d="M286.184823 873.265514v25.439869c0 27.095967-21.967539 49.071934-49.071934 49.071934H161.838354C134.738173 947.777317 112.76642 925.80135 112.76642 898.709597v-25.439869" fill="#F5D996" p-id="4415"></path><path d="M903.977086 894.617811c0 27.104395-21.971753 49.071934-49.076148 49.071934h-75.266107c-27.112823 0-49.076148-21.967539-49.076148-49.071934v-205.373103c0-27.104395 21.963325-49.071934 49.076148-49.071934 27.104395 0 124.342255 29.982551 124.342255 106.319012v148.126025z" fill="#668055" p-id="4416"></path><path d="M903.977086 873.265514v25.439869c0 27.095967-21.971753 49.071934-49.076148 49.071934h-75.266107c-27.112823 0-49.076148-21.975967-49.076148-49.071934v-25.439869" fill="#F5D996" p-id="4417"></path><path d="M846.123193 803.73465c0 141.531128-84.789728 166.305185-333.887209 166.305185-264.082436 0-333.878782-24.774058-333.878782-166.305185 0-141.5227 149.487144-256.261267 333.878782-256.261267 184.395852 0 333.88721 114.738568 333.887209 256.261267z" fill="#668055" p-id="4418"></path><path d="M760.638156 765.168198c0 110.115819-65.970041 129.390617-259.775736 129.390617-205.465811 0-259.767309-19.274798-259.767309-129.390617 0-110.107391 116.306173-199.376593 259.767309-199.376593 143.469564 0 259.775737 89.269202 259.775736 199.376593z" fill="#7A9966" p-id="4419"></path><path d="M180.249284 662.270947a338.425679 96.483556 0 1 0 676.851358 0 338.425679 96.483556 0 1 0-676.851358 0Z" fill="#668055" p-id="4420"></path><path d="M878.288593 217.606321c38.187193 126.348115 40.7493 252.700444 7.686321 379.052774-12.37228 44.343835-64.056889 89.581037-108.164741 97.579193-172.558749 28.764708-345.117498 28.764708-517.676247 0-44.107852-7.998156-95.792461-53.235358-108.164741-97.579193-37.816362-144.527276-29.025975-289.054551 26.379589-433.581828" fill="#DBBE74" p-id="4421"></path><path d="M169.971358 424.665021s78.220115 55.649975 239.354733 12.641975c148.728626-39.691588 331.358815 2.553679 404.012246 1.576033 72.657646-0.977646 72.944198 197.138963-140.629333 207.68237-213.573531 10.543407-555.248198 90.314272-502.737646-221.900378z" fill="#F5D996" p-id="4422"></path><path d="M651.175506 237.947259c93.799243 0.012642 169.946074 57.874963 170.085136 129.226272 0.139062 71.351309-75.780214 129.154634-169.587885 129.141992-60.496066-0.008428-113.60079-24.061893-143.764543-60.276939-30.016263 36.206617-83.032494 60.24744-143.52856 60.234799-93.807671-0.012642-169.988214-57.841251-170.127275-129.19256-0.139062-71.342881 75.81814-129.188346 169.62581-129.175704 60.491852 0.008428 113.60079 24.066107 143.76033 60.281153 30.020477-36.206617 83.032494-60.251654 143.536987-60.239013z" fill="#313131" p-id="4423"></path><path d="M814.379193 461.937778c0.198058-0.560461 0.412971-1.116708 0.598387-1.677169 0.623671-1.87944 1.200988-3.771523 1.715095-5.684675 0.109564-0.417185 0.198058-0.838584 0.303407-1.255769 0.391901-1.521251 0.754305-3.05093 1.070354-4.593251 0.143276-0.686881 0.261267-1.377975 0.391901-2.06907 0.240198-1.306337 0.459325-2.621103 0.644741-3.944297 0.109564-0.724807 0.206486-1.453827 0.29498-2.187061 0.164346-1.373761 0.294979-2.751737 0.404543-4.13814 0.050568-0.648955 0.113778-1.293695 0.155918-1.942651 0.117992-2.022716 0.193844-4.05386 0.189629-6.10186l1.112494-65.106172c0.004214 2.052214-0.071638 4.096-0.193844 6.127144-0.033712 0.615243-0.092708 1.226272-0.143275 1.841514a95.438486 95.438486 0 0 1-1.369548 10.42963c-0.117992 0.648955-0.23177 1.297909-0.366617 1.94265-0.328691 1.618173-0.712165 3.21949-1.125136 4.816592-0.088494 0.345547-0.160132 0.695309-0.252839 1.040856-0.518321 1.934222-1.104066 3.855802-1.736165 5.756313-0.164346 0.497251-0.353975 0.990288-0.526749 1.487539a96.753251 96.753251 0 0 1-3.704099 9.161218 109.816626 109.816626 0 0 1-2.503111 5.103144c-0.328691 0.627885-0.636313 1.268412-0.973432 1.892083a113.322667 113.322667 0 0 1-3.94851 6.700247c-0.257053 0.408757-0.543605 0.804872-0.809087 1.209415a114.393021 114.393021 0 0 1-5.229563 7.3787c-1.15042 1.512823-2.347193 3.000362-3.581893 4.475259-0.522535 0.619457-1.032428 1.247342-1.563391 1.85837-1.883654 2.170206-3.838947 4.298272-5.886947 6.371556-0.337119 0.345547-0.695309 0.670025-1.036642 1.007144-1.782519 1.765663-3.624033 3.493399-5.524543 5.18321a146.895539 146.895539 0 0 1-8.352132 6.953086c-0.202272 0.155918-0.383473 0.316049-0.585745 0.467753a160.78907 160.78907 0 0 1-10.513909 7.349202c-0.847012 0.547819-1.694025 1.095638-2.553679 1.635029-1.19256 0.737449-2.414617 1.458041-3.636675 2.17442-0.842798 0.497251-1.681383 0.998716-2.545251 1.487539-1.318979 0.745877-2.675885 1.462255-4.028576 2.182847-0.79223 0.421399-1.571819 0.851226-2.368263 1.259984-1.694025 0.868082-3.430189 1.702453-5.178996 2.528395-0.476181 0.223342-0.943934 0.463539-1.42433 0.691095-2.23763 1.032428-4.504757 2.022716-6.80981 2.979292-0.640527 0.265481-1.302123 0.509893-1.946864 0.766946-1.677169 0.674239-3.362765 1.344263-5.069433 1.976363-0.893366 0.328691-1.803588 0.632099-2.709596 0.952362-1.491753 0.526749-2.979292 1.053498-4.492115 1.546535-0.998716 0.328691-2.018502 0.632099-3.025647 0.943934-1.449613 0.446683-2.899226 0.889152-4.361481 1.306337-1.061926 0.303407-2.13228 0.585745-3.202634 0.872297-1.445399 0.387687-2.895012 0.762733-4.348839 1.120921a208.086914 208.086914 0 0 1-15.638124 3.194206c-1.141992 0.185416-2.27977 0.375045-3.425975 0.547819-1.542321 0.23177-3.101498 0.438255-4.660675 0.632099-1.12935 0.143276-2.254486 0.294979-3.392263 0.421399-1.635029 0.181202-3.278486 0.328691-4.926157 0.476181-1.082996 0.092708-2.161778 0.206486-3.248987 0.286552-1.824658 0.134848-3.670387 0.227556-5.516116 0.320263-0.922864 0.04214-1.841514 0.109564-2.764378 0.14749-2.777021 0.101136-5.570897 0.160132-8.38163 0.160131-60.496066-0.008428-113.60079-24.061893-143.764543-60.276938-1.049284 1.264198-2.19549 2.482041-3.295342 3.716741-1.247342 1.390617-2.503111 2.777021-3.813662 4.129712-0.927078 0.952362-1.883654 1.883654-2.844445 2.814946a139.887671 139.887671 0 0 1-11.521053 10.09251c-1.099852 0.868082-2.203918 1.727737-3.333268 2.570535-1.529679 1.141992-3.097284 2.250272-4.681744 3.34591-1.314765 0.910222-2.612675 1.824658-3.961153 2.701169a174.514041 174.514041 0 0 1-8.288921 5.05679c-0.396115 0.227556-0.783802 0.463539-1.184132 0.691094-2.494683 1.403259-5.05679 2.743309-7.652609 4.041219-0.682667 0.341333-1.373761 0.665811-2.060642 0.998716-2.081712 1.007144-4.192922 1.980576-6.33363 2.920296-0.703737 0.307621-1.403259 0.619457-2.106996 0.922864-2.722239 1.15042-5.478189 2.2587-8.284708 3.295342-0.501465 0.185416-1.015572 0.353975-1.517037 0.535177a205.80293 205.80293 0 0 1-17.812543 5.520329l-0.952362 0.261267a216.514897 216.514897 0 0 1-9.13172 2.085926c-0.847012 0.176988-1.706667 0.341333-2.562107 0.505679-2.465185 0.476181-4.947226 0.914436-7.454552 1.310552-0.77116 0.122206-1.533893 0.257053-2.305053 0.370831-3.152066 0.463539-6.33363 0.863868-9.544691 1.19256-0.695309 0.071638-1.399045 0.122206-2.094354 0.185415-2.633745 0.244412-5.28856 0.438255-7.964445 0.594173-0.927078 0.050568-1.849942 0.10535-2.781234 0.14749-3.32484 0.14749-6.666535 0.248626-10.037729 0.248625-93.807671-0.012642-169.988214-57.845465-170.127275-129.192559l-1.112494 65.106172c0.139062 71.347095 76.319605 129.179918 170.127275 129.19256 3.379621 0 6.729745-0.096922 10.063013-0.252839 0.906008-0.037926 1.812016-0.088494 2.718025-0.139062a221.044938 221.044938 0 0 0 8.099292-0.606815c0.653169-0.06321 1.310551-0.10535 1.959506-0.172774a216.23256 216.23256 0 0 0 9.633185-1.200987c0.716379-0.10535 1.420115-0.23177 2.13228-0.341334a223.35842 223.35842 0 0 0 7.661037-1.348477c0.804872-0.155918 1.613959-0.307621 2.418831-0.471967a207.117695 207.117695 0 0 0 9.228642-2.11121l0.716379-0.198057a191.049745 191.049745 0 0 0 8.309992-2.347194l2.149135-0.661597-0.113777 0.278124s0.261267-0.181202 0.703736-0.467753c2.393547-0.766947 4.761811-1.571819 7.100576-2.414618 0.438255-0.155918 0.893366-0.307621 1.331622-0.467753 2.84023-1.053498 5.625679-2.165992 8.373201-3.333267 0.670025-0.278123 1.318979-0.581531 1.980576-0.868082a185.942387 185.942387 0 0 0 6.489548-2.987721c0.653169-0.316049 1.310551-0.619457 1.951078-0.948148a185.908675 185.908675 0 0 0 7.720033-4.07493c0.362403-0.206486 0.712165-0.421399 1.070354-0.623671 0.889152-0.505679 1.769877-1.024 2.642173-1.546535 20.387292-11.554765 40.142486-19.826831 74.43595-2.473613 29.447374 18.608988 67.251095 29.813992 108.514502 29.82242 2.806519 0 5.600395-0.058996 8.373202-0.160132 0.96079-0.037926 1.904724-0.101136 2.8613-0.151703 1.812016-0.088494 3.619819-0.176988 5.406552-0.307622 1.125136-0.088494 2.233416-0.198058 3.345909-0.294979 1.613959-0.143276 3.227918-0.286551 4.829235-0.463539 1.163062-0.130634 2.326123-0.282337 3.489185-0.434041a193.957399 193.957399 0 0 0 8.090864-1.184132 209.646091 209.646091 0 0 0 15.629696-3.194206c1.394831-0.341333 2.785449-0.703737 4.167638-1.074568 1.133564-0.299193 2.262914-0.598387 3.383835-0.91865 1.390617-0.400329 2.764379-0.817514 4.13814-1.238914 1.082996-0.337119 2.170206-0.661597 3.24056-1.011358 1.420115-0.463539 2.823374-0.96079 4.222419-1.453827 0.986074-0.349761 1.989004-0.682667 2.966651-1.04507a203.957202 203.957202 0 0 0 4.643818-1.807802c0.79223-0.316049 1.588675-0.615243 2.368264-0.935506a207.218831 207.218831 0 0 0 6.742387-2.945581c0.632099-0.294979 1.251556-0.615243 1.883654-0.914436 1.584461-0.754305 3.168922-1.508609 4.719671-2.305053 0.859654-0.438255 1.694025-0.901794 2.549465-1.356906 1.293695-0.686881 2.587391-1.369547 3.851588-2.081712 0.889152-0.505679 1.757235-1.024 2.633745-1.538107 1.19256-0.703737 2.385119-1.399045 3.556609-2.128065 0.87651-0.539391 1.731951-1.104066 2.595819-1.660313 0.720593-0.459325 1.458041-0.910222 2.170206-1.382189 0.282337-0.18963 0.543605-0.400329 0.821728-0.594173a157.847704 157.847704 0 0 0 7.496692-5.355984c0.198058-0.143276 0.383473-0.307621 0.573103-0.455111a152.424296 152.424296 0 0 0 6.506403-5.318058c0.615243-0.535177 1.226272-1.078782 1.8373-1.622386a139.440988 139.440988 0 0 0 5.621465-5.280132c0.311835-0.307621 0.632099-0.602601 0.943934-0.914436 2.056428-2.081712 4.020148-4.22242 5.912231-6.401054 0.176988-0.206486 0.387687-0.400329 0.564675-0.611029 0.345547-0.404543 0.644741-0.830156 0.986074-1.238913 1.238914-1.479111 2.439901-2.979292 3.598749-4.496329 0.514107-0.674239 1.028214-1.344263 1.525465-2.02693 1.297909-1.769877 2.536823-3.569251 3.725169-5.389696 0.25284-0.383473 0.526749-0.762733 0.775374-1.15042 1.403259-2.208132 2.722239-4.458403 3.961152-6.733958 0.320263-0.594173 0.615243-1.196774 0.927078-1.790947 0.901794-1.736165 1.765663-3.484971 2.570535-5.259062 0.172774-0.375045 0.379259-0.733235 0.547819-1.10828 0.261267-0.589959 0.484609-1.188346 0.737449-1.778304 0.286551-0.691095 0.581531-1.377975 0.85544-2.073284 0.514107-1.348477 0.994502-2.671671 1.462255-4.003292z" fill="#1C1C1C" p-id="4424"></path><path d="M897.445399 272.23651c16.089021 228.09916-181.424988 112.972905-384.252839 112.736922C310.385778 384.737449 107.64642 510.398683 120.840428 271.38107 125.045992 195.293235 239.274667 9.308708 498.422519 9.612115c296.513317 0.341333 393.666897 186.637695 399.02288 262.624395z" fill="#668055" p-id="4425"></path><path d="M824.796181 211.19684c13.429992 166.187193-151.408724 82.307687-320.676346 82.134913-169.254979-0.172774-338.450963 91.380412-327.439802-82.75437C180.190288 155.142321 275.51921 19.641416 491.789695 19.864757c247.454025 0.244412 328.531226 135.972872 333.006486 191.332083z" fill="#718C5E" p-id="4426"></path><path d="M619.587424 146.204444v21.874832c0 0.438255-0.037926 0.884938-0.117992 1.340049v-21.874831c0.080066-0.450897 0.117992-0.901794 0.117992-1.34005" fill="#94721B" p-id="4427"></path><path d="M619.465218 147.548708v21.874831a9.515193 9.515193 0 0 1-0.484609 1.744593v-21.874832c0.227556-0.594173 0.387687-1.175704 0.484609-1.744592" fill="#8F6E1A" p-id="4428"></path><path d="M618.980609 149.2933v21.874832a12.987523 12.987523 0 0 1-1.255769 2.448329v-21.874831c0.535177-0.830156 0.956576-1.651885 1.255769-2.44833" fill="#8A6A19" p-id="4429"></path><path d="M617.72484 151.737416v21.874831a20.774979 20.774979 0 0 1-3.008791 3.586107v-21.874831c1.243128-1.205202 2.250272-2.406189 3.008791-3.586107" fill="#856618" p-id="4430"></path><path d="M406.544856 155.323523v21.874831c-3.270058-3.17735-4.841877-6.342058-4.841877-9.11065v-21.874832c0 2.768593 1.571819 5.9333 4.841877 9.110651" fill="#856618" p-id="4431"></path><path d="M614.716049 155.323523v21.874831l-29.388378 28.520296v-21.879045z" fill="#826417" p-id="4432"></path><path d="M435.97116 183.839605v21.879045l-29.426304-28.520296v-21.874831z" fill="#806317" p-id="4433"></path><path d="M585.327671 183.839605v21.874831a31.857778 31.857778 0 0 0-4.580609 5.663605V189.50321a32.161185 32.161185 0 0 1 4.580609-5.663605" fill="#856618" p-id="4434"></path><path d="M580.747062 189.507424v21.874831a45.91144 45.91144 0 0 0-4.281416 8.562831v-21.874831c1.158848-3.05093 2.604247-5.967012 4.281416-8.562831" fill="#8A6A19" p-id="4435"></path><path d="M576.465646 198.070255v21.874831c-1.104066 2.916082-1.938436 5.958584-2.465185 8.971589v-21.874831c0.526749-3.013004 1.365333-6.055506 2.465185-8.971589" fill="#8F6E1A" p-id="4436"></path><path d="M574.000461 207.041844v21.874831a40.804082 40.804082 0 0 0-0.623671 6.940444v-21.874831c0-2.246058 0.219128-4.584823 0.623671-6.940444" fill="#94721B" p-id="4437"></path><path d="M447.909399 214.03707v21.874831c0-10.631901-4.808165-23.29916-11.934025-30.193251v-21.874831c7.12586 6.894091 11.934025 19.56135 11.934025 30.193251" fill="#856618" p-id="4438"></path><path d="M529.311078 251.284543v21.874831c-5.14107-2.675885-11.900313-4.015934-18.659555-4.015934s-13.518486 1.340049-18.659556 4.015934v-21.874831c5.14107-2.680099 11.900313-4.015934 18.659556-4.015934s13.518486 1.340049 18.659555 4.015934" fill="#856618" p-id="4439"></path><path d="M491.987753 251.284543v21.874831l-36.333037 19.013531v-21.874831z" fill="#806317" p-id="4440"></path><path d="M565.639901 270.298074v21.874831l-36.328823-19.013531v-21.874831z" fill="#806317" p-id="4441"></path><path d="M455.654716 270.298074v21.874831c-2.827588 1.474897-5.389695 2.170206-7.580971 2.170206-4.841877 0-7.854881-3.409119-7.854881-9.367704v-21.874831c0 5.958584 3.013004 9.367704 7.854881 9.367704 2.191276 0 4.753383-0.695309 7.580971-2.170206" fill="#856618" p-id="4442"></path><path d="M581.075753 263.10479v21.874831c0 0.910222-0.071638 1.757235-0.206486 2.545251V265.650041c0.134848-0.788016 0.206486-1.639243 0.206486-2.545251" fill="#94721B" p-id="4443"></path><path d="M580.869267 265.645827v21.874831a10.543407 10.543407 0 0 1-0.53939 2.010075v-21.874832c0.235984-0.615243 0.417185-1.289481 0.53939-2.010074" fill="#8F6E1A" p-id="4444"></path><path d="M580.329877 267.655901v21.874832a8.520691 8.520691 0 0 1-0.800659 1.60553v-21.874831c0.311835-0.484609 0.581531-1.024 0.800659-1.605531" fill="#8A6A19" p-id="4445"></path><path d="M579.529218 269.261432v21.874831c-1.352691 2.085926-3.531325 3.206848-6.308346 3.206848-2.191276 0-4.749169-0.699523-7.580971-2.170206v-21.874831c2.831802 1.474897 5.389695 2.170206 7.580971 2.170206 2.777021 0 4.955654-1.120922 6.308346-3.206848" fill="#856618" p-id="4446"></path><path d="M510.651523 65.64135c3.383835 0 6.767671 2.583177 9.325563 7.753745l18.170733 36.623802c5.12 10.336922 18.697481 20.142881 30.189037 21.803194l40.618667 5.844806c11.49577 1.660313 14.070519 9.620543 5.76474 17.652412l-29.392592 28.516082c-8.309992 8.036082-13.50163 23.914403-11.529482 35.271111l6.936231 40.285761c1.432757 8.229926-1.744593 13.071802-7.513548 13.071803-2.191276 0-4.749169-0.695309-7.580971-2.170206l-36.328823-19.013531c-5.14107-2.680099-11.900313-4.015934-18.659555-4.015934s-13.518486 1.335835-18.659556 4.015934l-36.333037 19.013531c-2.827588 1.474897-5.389695 2.170206-7.580971 2.170206-5.768955 0-8.946305-4.837663-7.513547-13.071803l6.940444-40.285761c1.934222-11.356708-3.223704-27.235029-11.529482-35.271111l-29.430518-28.516082c-8.267852-8.036082-5.688889-15.992099 5.764741-17.652412l40.656592-5.844806c11.45363-1.660313 25.031111-11.466272 30.189037-21.803194l18.166519-36.623802c2.557893-5.170568 5.941728-7.753745 9.329778-7.753745z" fill="#E2AF29" p-id="4447"></path></svg>