<?xml version="1.0" standalone="no"?><!DOCTYPE svg PUBLIC "-//W3C//DTD SVG 1.1//EN" "http://www.w3.org/Graphics/SVG/1.1/DTD/svg11.dtd"><svg t="1723045056463" class="icon" viewBox="0 0 1305 1024" version="1.1" xmlns="http://www.w3.org/2000/svg" p-id="3448" xmlns:xlink="http://www.w3.org/1999/xlink" width="326.25" height="256"><path d="M1305.138328 734.948041l-191.277991 31.230116-121.85128-267.873034 313.129271 130.541264" fill="#C4C4C4" p-id="3449"></path><path d="M1250.793579 744.114189s-146.233957 40.960414-235.395576 154.033723l27.607132-182.87267 207.788444 28.838947zM56.166593 744.114189s146.228782 40.960414 235.395576 154.033723L263.960212 715.275242l-207.793619 28.838947z" fill="#8C8C8C" p-id="3450"></path><path d="M441.460515 561.686628L209.832841 111.277344 67.283976 106.101654l158.935101 499.78537z" fill="#C4C4C4" p-id="3451"></path><path d="M67.283976 106.101654l245.845295 481.510007-86.910194 18.275363z" fill="#ADADAD" p-id="3452"></path><path d="M875.550847 566.862319L1138.274069 111.277344h120.065667l-169.291659 499.785371z" fill="#C4C4C4" p-id="3453"></path><path d="M1258.339736 111.277344l-252.345963 495.913954 83.054304 3.871417z" fill="#ADADAD" p-id="3454"></path><path d="M0 734.948041l191.277991 31.230116L313.129271 523.4331 0 628.846387" fill="#C4C4C4" p-id="3455"></path><path d="M195.744612 660.940843c-24.320569 9.212729-79.959241-1.257693-66.155675 16.758886l217.523917 298.011079c13.808742 18.006227 47.259229 32.751769 74.338442 32.751769h461.992479c27.079212 0 61.533784-14.264203 76.548461-31.680401l216.033319-287.892604c15.014678-17.42655 4.357931-12.452711-20.480207-20.8011l-476.147992-147.802192c-24.838138-8.338037-65.058429-7.634143-89.378998 1.594113L195.744612 660.940843z" fill="#8C8C8C" p-id="3456"></path><path d="M1083.240953 669.537665c11.99725 0 16.458696 8.218996 9.89592 18.270187l-159.494077 244.406454c-6.5576 10.051191-21.530872 16.251668-33.269338 13.793215l-117.643443-3.032955c-11.738466-2.463629-3.478064-31.690752 3.172698-41.674659l142.455704-213.611095c6.655938-9.983907 21.919049-18.151146 33.921475-18.151147h120.961061zM366.335369 679.889046c11.99725 0 27.265537 8.167239 33.921475 18.151146l142.455703 213.611096c6.655938 9.983907 14.91634 39.211031 3.172698 41.674659l-117.643443 3.032955c-11.743642 2.458453-26.716914-3.742024-33.274514-13.793215l-159.488901-244.406454c-6.5576-10.051191-2.10133-18.270187 9.895921-18.270187H366.335369z" fill="#C4C4C4" opacity=".4" p-id="3457"></path><path d="M985.534269 644.808216c-12.561401 0-28.745785 8.405321-35.965873 18.673891l-153.03999 217.658486c-7.225264 10.26857-21.018479 44.272856-8.700336 46.720957l131.105414-1.040313c12.307792 2.453277 28.212689-4.005984 35.334439-14.357366l171.211839-248.84202c7.126926-10.351381 2.670656-18.813635-9.890744-18.813635h-130.054749z" fill="#262626" p-id="3458"></path><path d="M431.455906 651.288181l191.842141 315.696413c-13.637944-21.080587 48.009704 32.772472 74.70074-7.007885l191.210707-303.450729" fill="#666666" p-id="3459"></path><path d="M346.600461 660.940843c11.99725 0 27.265537 8.167239 33.921475 18.151147l142.455703 213.611095c6.655938 9.983907 14.91634 39.211031 3.172699 41.67466l-117.643444 3.032954c-11.743642 2.458453-26.716914-3.742024-33.274514-13.793215l-159.4889-244.406453c-6.5576-10.051191-2.10133-18.270187 9.89592-18.270188h120.961061z" fill="#262626" p-id="3460"></path><path d="M551.267963 720.782176l72.030084 263.810117 15.190651 17.136711c13.803566 10.470422 35.613926 15.138895 59.510089-25.045166l68.469209-278.358983-215.200033 22.457321z" fill="#8C8C8C" p-id="3461"></path><path d="M878.764951 667.788282c0 53.268206-167.531923 171.310178-216.840726 171.310177-50.535441 0-214.082083-115.36614-214.082084-171.310177 0-81.646517 66.673244-417.947354 215.463993-417.947354 150.767862 0 215.458817 336.300837 215.458817 417.947354z" fill="#666666" p-id="3462"></path><path d="M98.338118 672.141038l280.403381-1.195585 51.875945-11.288181 458.597226-3.131292 53.625328 25.878452 266.548057 0.098338s87.168978-26.789374-48.309894-105.666896C1058.677126 517.201569 857.435931 432.340949 657.312684 432.340949c-293.18216 0-512.491691 163.57252-536.548299 177.376086 0 0.005176-82.811047 41.721241-22.426267 62.424003z" fill="#C4C4C4" p-id="3463"></path><path d="M892.226922 645.067001c0 50.426752-179.46189 152.361975-232.279811 152.361975-54.137722 0-229.329667-99.409486-229.329667-152.361975 0-77.288585 71.424528-395.634952 230.804739-395.634952 161.512596-0.005176 230.804739 318.346367 230.804739 395.634952z" fill="#ADADAD" p-id="3464"></path><path d="M840.185354 467.333792c0 111.199709-161.460839 314.568113-180.238243 314.568112 0 0-178.607901-203.368404-178.607901-314.568112 0-111.204885 102.835793-72.609761 178.607901-72.609761 75.766932-0.005176 180.238244-38.600299 180.238243 72.609761z" fill="#C4C4C4" p-id="3465"></path><path d="M751.28252 481.11148c35.38102-11.515911 64.76859-29.620476 84.311997-51.808662-21.577453-95.584651-94.580567-179.875945-173.856617-179.875945-78.592859 0-155.048158 81.646517-173.587481 181.009422 19.538231 21.675792 48.511746 39.35595 83.282034 50.670009 27.042982 8.803849 57.589907-17.291982 89.937973-17.291982 32.342889-0.005176 62.884639 26.095831 89.912094 17.297158z" fill="#00B3BD" p-id="3466"></path><path d="M664.051433 345.922446m-31.064494 0a31.064494 31.064494 0 1 0 62.128988 0 31.064494 31.064494 0 1 0-62.128988 0Z" fill="#FFFFFF" opacity=".2" p-id="3467"></path><path d="M670.935102 249.840928c0.056933 0.041406 171.719057 124.36149 7.142452 216.048846 26.157939 5.972747 50.871861 22.483199 73.215317 15.21653 35.38102-11.515911 64.758239-29.620476 84.306822-51.808661-20.744167-91.873681-89.006348-173.271764-164.664591-179.456715z" fill="#5A3D1C" opacity=".2" p-id="3468"></path><path d="M617.201084 410.898063m-12.902997 0a12.902996 12.902996 0 1 0 25.805993 0 12.902996 12.902996 0 1 0-25.805993 0Z" fill="#FFFFFF" opacity=".6" p-id="3469"></path><path d="M420.1729 698.324855H176.796409l-49.376086-26.515062h296.577413zM1147.435041 706.911326h-243.371315v-26.515062h278.8662z" fill="#8C8C8C" p-id="3470"></path></svg>