<?xml version="1.0" standalone="no"?><!DOCTYPE svg PUBLIC "-//W3C//DTD SVG 1.1//EN" "http://www.w3.org/Graphics/SVG/1.1/DTD/svg11.dtd"><svg t="1723045156900" class="icon" viewBox="0 0 1298 1024" version="1.1" xmlns="http://www.w3.org/2000/svg" p-id="5559" xmlns:xlink="http://www.w3.org/1999/xlink" width="324.5" height="256"><path d="M802.515752 405.525231c0 28.924045-24.483724 52.586826-54.414586 52.586826H362.536727c-29.925699 0-54.414586-23.662781-54.414586-52.586826 0-28.918882 24.483724-52.586826 54.414586-52.586826h385.564439c29.925699 0.005163 54.414586 23.667944 54.414586 52.586826z" fill="#A1A1B0" p-id="5560"></path><path d="M798.271631 388.652011H86.080271c-28.913719 0-52.581663-23.662781-52.581663-52.581663V164.792707c0-28.918882 23.662781-52.581663 52.581663-52.581663h956.341898c28.918882 0 56.340446 23.352991 60.961478 51.905289l32.006454 182.677907" fill="#B1B1C2" p-id="5561"></path><path d="M1135.390101 346.79424s-55.349119 49.679965-17.260457 158.503973l-80.576338-147.485781" fill="#B1B1C2" p-id="5562"></path><path d="M33.508935 294.904441h213.847928L307.208261 385.595418H86.080271c-29.011819-1.006817-52.571336-0.81578-52.571336-90.690977z" fill="#A1A1B0" p-id="5563"></path><path d="M1242.133355 831.496592l-179.228914-471.474326c-10.088823-26.863943-41.806139-48.755758-70.497842-48.662821l-231.567908 0.70219c-28.686539 0.087774-43.855915 22.108668-33.694808 48.941632l213.187044 557.508128c3.454157 13.904401 5.18898 37.582671-10.496713 64.663467l7.300714 15.479166 68.272518-23.812513a54.213223 54.213223 0 0 0 10.966561-2.767456l39.085152-14.684038 0.056794-0.020653 156.154734-58.674196c26.84329-10.109475 40.55149-40.350127 30.462668-67.19858z" fill="#B1B1C2" p-id="5564"></path><path d="M916.508088 502.525594l96.78351 223.100319-37.897624 16.439514-96.788674-223.100319z" opacity=".15" p-id="5565"></path><path d="M124.927917 80.875802h125.149934V152.468234H124.927917z" fill="#B1B1C2" p-id="5566"></path><path d="M921.289178 844.724618L725.770481 333.437134c-2.690008 7.806704-2.437013 17.18301 1.373402 27.240854l195.952402 512.423379c1.270138-11.462224-0.036142-21.220604-1.807107-28.376749zM1242.133355 831.171312l-16.904199-44.470332c-3.562583 16.88871-15.350087 31.717317-32.600218 38.207414l-156.154734 58.674196-0.056794 0.020653-39.085152 14.684039a54.213223 54.213223 0 0 1-10.966561 2.767456l-46.385866 16.181356 0.356259 0.944859c3.454157 13.904401 5.18898 37.587834-10.496713 64.66863l7.300714 15.479165 68.272518-23.812512a54.213223 54.213223 0 0 0 10.966561-2.767456l39.085152-14.684039 0.056795-0.025816 156.154733-58.669033c26.838127-10.104312 40.546327-40.339801 30.457505-67.19858z" fill="#A1A1B0" p-id="5567"></path></svg>