<?xml version="1.0" standalone="no"?><!DOCTYPE svg PUBLIC "-//W3C//DTD SVG 1.1//EN" "http://www.w3.org/Graphics/SVG/1.1/DTD/svg11.dtd"><svg t="1723045125067" class="icon" viewBox="0 0 1024 1024" version="1.1" xmlns="http://www.w3.org/2000/svg" p-id="4616" xmlns:xlink="http://www.w3.org/1999/xlink" width="256" height="256"><path d="M457.804 258.744c193.28 0 349.968 165.936 349.968 370.628S717.624 1000 457.804 1000c-251.624 0-349.968-165.936-349.968-370.628s156.684-370.628 349.968-370.628z" fill="#466353" p-id="4617"></path><path d="M371.352 22.008h172.908v174.788H371.352z" fill="#333333" p-id="4618"></path><path d="M658.976 323.888H256.632l23.124-193.676h349.744z" fill="#333333" p-id="4619"></path><path d="M375.66 130.212l-4.308 193.676h-114.72l23.124-193.676z" fill="#525252" p-id="4620"></path><path d="M544.256 130.212l5.316 193.676h109.404l-29.476-193.676z" p-id="4621"></path><path d="M140.444 592.6a269.54 254.516 90 1 0 509.032 0 269.54 254.516 90 1 0-509.032 0Z" fill="#537563" p-id="4622"></path><path d="M277.104 152.46h267.152v-22.248H279.756z" p-id="4623"></path><path d="M429.284 346.5c-38.384 58.864-43.712 122.716-43.992 126.076-73.792 6.552-140.384 30.712-143.896 31.988 20.532-66.344 67.484-117.52 69.952-120.216 45.272-22.104 114.304-37.064 117.936-37.848z" fill="#537563" p-id="4624"></path><path d="M429.284 346.5l23.56 44.656a247.68 247.68 0 0 0-6.476 10.488l-23.556-44.652a251.864 251.864 0 0 1 6.472-10.492" fill="#3D5749" p-id="4625"></path><path d="M422.812 356.988l23.556 44.652c-18.372 31.48-27.88 63.272-32.712 85.544l-23.564-44.652c4.84-22.276 14.344-54.068 32.72-85.544" fill="#3F594B" p-id="4626"></path><path d="M390.096 442.532l23.56 44.652c-3.728 17.16-4.684 28.66-4.8 30.044l-23.56-44.656c0.116-1.376 1.076-12.888 4.8-30.04" fill="#3D5749" p-id="4627"></path><path d="M385.292 472.572l23.56 44.656a491.96 491.96 0 0 0-27.06 3.176l-23.556-44.656c8.84-1.276 17.896-2.364 27.056-3.176" fill="#2B3D33" p-id="4628"></path><path d="M358.24 475.752l23.556 44.66c-24.036 3.472-46.464 8.388-65.112 13.188l-23.564-44.66c18.656-4.796 41.08-9.708 65.12-13.188" fill="#2D3F35" p-id="4629"></path><path d="M293.12 488.936l23.564 44.66c-23.516 6.036-41.036 11.872-48.248 14.388l-23.556-44.656c7.204-2.512 24.728-8.352 48.24-14.392" fill="#2E4237" p-id="4630"></path><path d="M244.876 503.324l23.556 44.66a154.72 154.72 0 0 0-3.468 1.232L241.4 504.56c0.396-0.148 1.576-0.572 3.476-1.236" fill="#304439" p-id="4631"></path><path d="M630.464 371.368l24.904 47.208c0.596 1.124 1.996 3.848 3.86 7.992l-24.912-47.208a149.788 149.788 0 0 0-3.852-7.992" fill="#354B3F" p-id="4632"></path><path d="M634.316 379.356l24.912 47.208a239.28 239.28 0 0 1 8.924 23.224l-24.912-47.208a240.104 240.104 0 0 0-8.924-23.224" fill="#374D41" p-id="4633"></path><path d="M643.244 402.576l24.904 47.208a275.664 275.664 0 0 1 7.78 28.908l-24.916-47.212a278.284 278.284 0 0 0-7.768-28.904" fill="#385043" p-id="4634"></path><path d="M651.02 431.484l24.908 47.212a280.428 280.428 0 0 1 4.912 32.032l-24.912-47.212a281.768 281.768 0 0 0-4.908-32.032" fill="#3A5245" p-id="4635"></path><path d="M655.924 463.52l24.912 47.212a277.32 277.32 0 0 1 1.24 25.496l-24.912-47.208a280.124 280.124 0 0 0-1.24-25.5" fill="#3C5447" p-id="4636"></path><path d="M501.296 353.368c4.356 0.104 87.084 2.096 128.904 17.508 1.336 2.5 26.804 49.94 26.964 118.14-4.184-1.248-83.624-25.076-161.644-18.152 1.396-3.036 27.84-60.82 5.776-117.496z" fill="#4F705E" p-id="4637"></path><path d="M657.164 489.016l24.908 47.212c-4.18-1.252-83.624-25.076-161.64-18.156l-24.912-47.204c78.02-6.924 157.46 16.896 161.644 18.148" fill="#2B3D33" p-id="4638"></path><path d="M116.656 689.508l20.556 38.964c0.3 1.372 0.66 2.684 1.072 3.94l-20.56-38.968c-0.408-1.252-0.768-2.56-1.068-3.936" fill="#385043" p-id="4639"></path><path d="M117.728 693.444l20.56 38.968c0.412 1.248 0.872 2.444 1.388 3.588l-20.56-38.964a34.9 34.9 0 0 1-1.388-3.592" fill="#374D41" p-id="4640"></path><path d="M119.116 697.044l20.56 38.964c0.304 0.68 0.628 1.34 0.964 1.984l-20.556-38.964a32.564 32.564 0 0 1-0.968-1.984" fill="#354B3F" p-id="4641"></path><path d="M209.476 714.808l20.56 38.964c-0.44 21.452 0.412 41.084 2.088 58.844l-20.56-38.96a514.04 514.04 0 0 1-2.088-58.848" fill="#3C5447" p-id="4642"></path><path d="M211.568 773.656l20.56 38.96a439.116 439.116 0 0 0 7.532 49.82l-20.556-38.964a437.32 437.32 0 0 1-7.536-49.816" fill="#3A5245" p-id="4643"></path><path d="M219.1 823.472l20.556 38.964a359.976 359.976 0 0 0 9.988 37.388l-20.56-38.964a361.076 361.076 0 0 1-9.984-37.388" fill="#385043" p-id="4644"></path><path d="M229.088 860.86l20.56 38.964c3.612 11 7.036 19.372 9.576 25.024l-20.556-38.968c-2.54-5.652-5.968-14.02-9.58-25.02" fill="#374D41" p-id="4645"></path><path d="M238.668 885.884l20.556 38.964c1.76 3.916 3.096 6.536 3.772 7.816l-20.56-38.964a140.172 140.172 0 0 1-3.768-7.816" fill="#354B3F" p-id="4646"></path><path d="M242.856 894.48l20.556 38.964c-56.204-12.572-88.168-43.336-106.104-77.336l-20.56-38.96c17.936 34 49.904 64.768 106.108 77.332" fill="#2B3D33" p-id="4647"></path><path d="M116.656 689.508c6.492 29.504 39.516 32.452 64.34 30.248 15.924-1.416 27.852-4.772 28.48-4.948-2.328 113.824 31.592 176.38 33.38 179.672-149.86-33.504-127.384-196.396-126.2-204.972zM180.736 404.152c-0.712 2.46-14.28 49.2-46.688 170.088l-47.68 22.836c-7.112-33.28 35.7-128.748 60.012-160.692 13.256-17.42 33.296-31.492 34.356-32.232z" fill="#537563" p-id="4648"></path><path d="M134.048 574.24l25.444 48.228-47.684 22.836-25.444-48.228z" fill="#374D41" p-id="4649"></path><path d="M252.524 730.276l23.88 45.264a43.172 43.172 0 0 1-6.292-9.076l-23.88-45.264c1.78 3.38 3.868 6.428 6.292 9.076" fill="#2B3D33" p-id="4650"></path><path d="M253.948 568.024c13.556 21.456 124.776 11.904 131 11.352-8.036 61.748 2.096 160.812 2.632 166.032-57.8 1.836-131.204-14.284-135.064-15.132-34.512-37.704-0.364-156.024 1.432-162.252z" fill="#537563" p-id="4651"></path><path d="M384.948 579.376l23.876 45.264c-1.408 10.828-2.256 22.804-2.7 35.224l-23.884-45.268c0.448-12.416 1.3-24.396 2.708-35.22" fill="#3D5749" p-id="4652"></path><path d="M382.248 614.592l23.884 45.268c-1.784 50.168 3.116 107.532 4.804 125.404l-23.884-45.256c-1.692-17.88-6.588-75.24-4.804-125.416" fill="#3C5447" p-id="4653"></path><path d="M387.052 740.008l23.884 45.26c0.28 2.928 0.472 4.796 0.528 5.404l-23.876-45.264c-0.068-0.604-0.26-2.48-0.536-5.4" fill="#3A5245" p-id="4654"></path><path d="M387.588 745.408l23.876 45.264c-57.8 1.836-131.196-14.28-135.06-15.128l-23.876-45.264c3.856 0.84 77.256 16.964 135.06 15.128" fill="#2B3D33" p-id="4655"></path><path d="M395.144 881.156l20.556 38.96c1.268 12.084 2.9 22.312 4.736 30.968l-20.56-38.96c-1.832-8.66-3.464-18.888-4.732-30.968" fill="#3A5245" p-id="4656"></path><path d="M399.876 912.124l20.56 38.96a173.512 173.512 0 0 0 4.808 18.196l-20.56-38.964a174.948 174.948 0 0 1-4.808-18.192" fill="#385043" p-id="4657"></path><path d="M404.684 930.316l20.56 38.964a108.216 108.216 0 0 0 4.072 10.64l-20.556-38.964a107.768 107.768 0 0 1-4.076-10.64" fill="#374D41" p-id="4658"></path><path d="M408.756 940.956l20.56 38.964c0.728 1.62 1.452 3.104 2.168 4.46l-20.56-38.96c-0.716-1.348-1.44-2.836-2.168-4.464" fill="#354B3F" p-id="4659"></path><path d="M301 866.164c29.524 11.28 90.916 14.804 94.144 14.992 7.32 69.664 26.688 77.796 27.708 78.228-89.096-4.632-120.216-88.792-121.852-93.22z" fill="#435F50" p-id="4660"></path><path d="M422.852 959.384l20.556 38.96c-66.948-3.48-101.164-51.864-114.732-77.58l-20.556-38.964c13.568 25.716 47.784 74.1 114.732 77.584" fill="#2B3D33" p-id="4661"></path><path d="M722.244 713.748c24.412-4.996 58.048-17.856 70.396-50.964-0.512 8.712-10.18 174.252-166.856 253.94 2.444-4.008 48.784-80.156 68.932-199.8 0.596 0.004 11.868 0.032 27.528-3.176z" fill="#435F50" p-id="4662"></path><path d="M792.636 662.78l24.832 36.392c-0.056 0.904-0.2 3.496-0.604 7.508l-24.84-36.384c0.404-4.016 0.56-6.608 0.612-7.516" fill="#3D5749" p-id="4663"></path><path d="M792.024 670.292l24.84 36.388c-1.604 15.876-7.168 53.968-26.244 97.464l-24.832-36.396c19.076-43.484 24.636-81.576 26.236-97.456" fill="#3F594B" p-id="4664"></path><path d="M765.788 767.752l24.832 36.396a319.292 319.292 0 0 1-21.088 40.156l-24.832-36.392a319.86 319.86 0 0 0 21.088-40.16" fill="#3D5749" p-id="4665"></path><path d="M744.7 807.912l24.832 36.392a301.504 301.504 0 0 1-15.904 23.18l-24.84-36.388a304.424 304.424 0 0 0 15.912-23.184" fill="#3C5447" p-id="4666"></path><path d="M728.78 831.088l24.844 36.392a300.084 300.084 0 0 1-14.208 17.352l-24.84-36.384a287.672 287.672 0 0 0 14.204-17.36" fill="#3A5245" p-id="4667"></path><path d="M714.584 848.448l24.832 36.388a295.112 295.112 0 0 1-13.776 14.548l-24.84-36.392a289.788 289.788 0 0 0 13.784-14.544" fill="#385043" p-id="4668"></path><path d="M700.8 862.992l24.84 36.392a290.952 290.952 0 0 1-13.86 12.792l-24.836-36.388a290.9 290.9 0 0 0 13.856-12.796" fill="#374D41" p-id="4669"></path><path d="M686.944 875.788l24.832 36.388a290.44 290.44 0 0 1-14.312 11.62l-24.832-36.392a289.092 289.092 0 0 0 14.312-11.616" fill="#354B3F" p-id="4670"></path><path d="M672.632 887.412l24.832 36.392a299.216 299.216 0 0 1-15.608 11.1l-24.836-36.392a296.292 296.292 0 0 0 15.612-11.1" fill="#33493D" p-id="4671"></path><path d="M657.02 898.512l24.836 36.392a302.824 302.824 0 0 1-17.544 10.82l-24.836-36.384a302.372 302.372 0 0 0 17.544-10.828" fill="#32463B" p-id="4672"></path><path d="M639.476 909.34l24.836 36.388a325.016 325.016 0 0 1-13.692 7.392l-24.84-36.392a313.52 313.52 0 0 0 13.696-7.388" fill="#304439" p-id="4673"></path><path d="M768.116 464.524c0.692 0.46 13.752 9.236 20.312 21.768 12.048 23 23.24 96.064 8.836 124.74l-33.772-12.036c3.928-95.692 4.592-132.536 4.624-134.472z" fill="#435F50" p-id="4674"></path><path d="M788.428 486.292l20.564 38.964c0.46 0.896 0.928 1.86 1.4 2.9l-20.56-38.964a43.84 43.84 0 0 0-1.404-2.9" fill="#354B3F" p-id="4675"></path><path d="M789.832 489.192l20.56 38.964c1.136 2.556 2.26 5.532 3.344 8.852l-20.556-38.964a93.392 93.392 0 0 0-3.348-8.852" fill="#374D41" p-id="4676"></path><path d="M793.18 498.044l20.556 38.964c1.82 5.564 3.532 12.072 5.04 19.156l-20.556-38.964c-1.508-7.084-3.22-13.6-5.04-19.156" fill="#385043" p-id="4677"></path><path d="M798.22 517.2l20.556 38.964a278.88 278.88 0 0 1 4.728 31.1l-20.564-38.964a281.732 281.732 0 0 0-4.72-31.1" fill="#3A5245" p-id="4678"></path><path d="M802.936 548.3l20.56 38.964c0.924 9.828 1.328 19.724 1 28.944l-20.56-38.96c0.328-9.224-0.064-19.12-1-28.948" fill="#3C5447" p-id="4679"></path><path d="M803.936 577.248l20.56 38.96c-0.268 7.636-1.044 14.816-2.416 21.112l-20.564-38.964c1.384-6.284 2.152-13.464 2.42-21.108" fill="#3D5749" p-id="4680"></path><path d="M801.516 598.364l20.564 38.964c-1.052 4.796-2.448 9.08-4.248 12.668l-20.564-38.964c1.804-3.596 3.2-7.872 4.248-12.668" fill="#3F594B" p-id="4681"></path><path d="M797.264 611.032l20.56 38.964-33.776-12.036-20.556-38.964z" fill="#2A3B32" p-id="4682"></path><path d="M649.82 530.672c1.096 6.632 22.048 132.576-27.436 179.536-5.492 1.732-109.968 34.632-171.396 43.484 1.432-5.616 28.672-112.372 40.12-177.104 6.832-0.984 136.496-19.56 158.712-45.916z" fill="#4F705E" p-id="4683"></path><path d="M649.82 530.672l24.924 47.26c0.288 1.748 1.968 11.82 3.36 26.56l-24.924-47.256c-1.396-14.74-3.072-24.808-3.36-26.564" fill="#3A5245" p-id="4684"></path><path d="M653.18 557.236l24.936 47.256c1.352 14.36 2.456 33.148 1.752 52.992l-24.936-47.256c0.7-19.844-0.388-38.636-1.752-52.992" fill="#3C5447" p-id="4685"></path><path d="M654.928 610.228l24.936 47.256c-0.524 14.856-2.072 30.316-5.256 44.936l-24.936-47.248c3.192-14.628 4.74-30.084 5.256-44.944" fill="#3D5749" p-id="4686"></path><path d="M649.672 655.172l24.936 47.248c-2.984 13.652-7.404 26.584-13.796 37.636l-24.928-47.26c6.388-11.048 10.812-23.98 13.788-37.624" fill="#3F594B" p-id="4687"></path><path d="M635.884 692.796l24.928 47.26a83.708 83.708 0 0 1-6.772 10.02l-24.924-47.256a84.04 84.04 0 0 0 6.768-10.024" fill="#3D5749" p-id="4688"></path><path d="M629.12 702.828l24.928 47.252c-1.28 1.616-2.616 3.164-4.016 4.656l-24.928-47.252c1.392-1.488 2.732-3.044 4.016-4.656" fill="#3C5447" p-id="4689"></path><path d="M625.104 707.484l24.928 47.252c-0.884 0.932-1.784 1.844-2.716 2.728l-24.936-47.256c0.932-0.876 1.844-1.792 2.724-2.724" fill="#3A5245" p-id="4690"></path><path d="M622.384 710.208l24.936 47.256c-3.52 1.104-47.564 14.976-94.916 27.144l-24.94-47.26c47.36-12.164 91.396-26.032 94.92-27.14" fill="#2E4237" p-id="4691"></path><path d="M527.464 737.348l24.94 47.26c-26.584 6.82-54.2 13.112-76.288 16.316l-24.928-47.26c22.088-3.2 49.704-9.488 76.276-16.316" fill="#2D3F35" p-id="4692"></path><path d="M451.188 753.664l24.928 47.26-0.196 0.028-24.932-47.26 0.2-0.028" fill="#2B3D33" p-id="4693"></path><path d="M626.312 846.056c-3.084 4.844-61.624 96.952-154.68 117.752 1.18-0.62 23.636-12.464 53.168-85.404 3.38-0.772 67.628-15.448 101.512-32.348z" fill="#435F50" p-id="4694"></path><path d="M626.312 846.056l20.56 38.964c-0.884 1.388-6.316 9.94-15.816 21.924l-20.56-38.96c9.496-11.988 14.932-20.548 15.816-21.928" fill="#3D5749" p-id="4695"></path><path d="M610.496 867.984l20.56 38.96a342.376 342.376 0 0 1-20.616 23.696l-20.556-38.968a343.348 343.348 0 0 0 20.612-23.688" fill="#3C5447" p-id="4696"></path><path d="M589.884 891.672l20.556 38.968a322.452 322.452 0 0 1-17.424 16.936l-20.56-38.968a327.024 327.024 0 0 0 17.428-16.936" fill="#3A5245" p-id="4697"></path><path d="M572.444 908.608l20.564 38.968a296.62 296.62 0 0 1-15.312 12.876l-20.56-38.964a288.992 288.992 0 0 0 15.308-12.88" fill="#385043" p-id="4698"></path><path d="M557.136 921.488l20.56 38.964a264.096 264.096 0 0 1-13.82 10.132l-20.556-38.96c4.788-3.28 9.4-6.68 13.816-10.136" fill="#374D41" p-id="4699"></path><path d="M543.32 931.624l20.556 38.96a242.528 242.528 0 0 1-12.952 8.296l-20.56-38.968a249.368 249.368 0 0 0 12.956-8.288" fill="#354B3F" p-id="4700"></path><path d="M530.364 939.916l20.56 38.968a229.824 229.824 0 0 1-12.608 6.984l-20.564-38.96a226.24 226.24 0 0 0 12.612-6.992" fill="#33493D" p-id="4701"></path><path d="M517.752 946.908l20.564 38.964a211.92 211.92 0 0 1-12.688 5.984l-20.556-38.964a214.052 214.052 0 0 0 12.68-5.984" fill="#32463B" p-id="4702"></path><path d="M505.068 952.892l20.556 38.964a197.752 197.752 0 0 1-13.324 5.184l-20.556-38.968a201.6 201.6 0 0 0 13.324-5.18" fill="#304439" p-id="4703"></path><path d="M491.744 958.072l20.556 38.968a180.184 180.184 0 0 1-14.872 4.476l-20.556-38.96c5.064-1.3 10.024-2.8 14.872-4.484" fill="#2E4237" p-id="4704"></path><path d="M476.872 962.556l20.556 38.96c-1.736 0.444-3.48 0.868-5.24 1.256l-20.56-38.968c1.76-0.388 3.508-0.808 5.244-1.248" fill="#2D3F35" p-id="4705"></path><path d="M234.296 344.18h448.284l-23.604-20.292H256.632z" fill="#537563" p-id="4706"></path><path d="M871.188 301.116l-20.04 21.304c11.616-12.356 19.684-28.388 22.804-47.456 10.344-63.084-37.112-135.888-105.736-162.296-47.868-18.424-93.616-9.496-120.42 19.004l20.04-21.304c26.808-28.5 72.564-37.428 120.42-19.004 68.624 26.412 116.08 99.212 105.74 162.3-3.124 19.064-11.184 35.096-22.808 47.452" fill="#6A6A6A" p-id="4707"></path><path d="M753.208 328.372l-2.44-8.24c17.748 6.832 35.2 9.9 51.5 9.604l8.372 9.344c-18.188 0.328-37.64-3.096-57.432-10.708" fill="#9F9F9F" p-id="4708"></path><path d="M810.632 339.084l-8.368-9.344c19.36-0.348 37.092-5.436 51.788-14.6l14.296 7.676c-16.364 10.212-36.128 15.88-57.716 16.268" fill="#A3A3A3" p-id="4709"></path><path d="M868.356 322.816l-14.3-7.676a85.06 85.06 0 0 0 25.6-24.616l17.236 4.852a94.888 94.888 0 0 1-28.536 27.44" fill="#A7A7A7" p-id="4710"></path><path d="M896.892 295.376l-17.236-4.852a89.064 89.064 0 0 0 11.928-25.956l18.596 1.868c-3 10.704-7.512 20.388-13.288 28.94" fill="#ABABAB" p-id="4711"></path><path d="M910.188 266.432l-18.6-1.868c0.992-3.516 1.796-7.152 2.416-10.908a106.92 106.92 0 0 0 1.204-10.728l19.024-0.624a114.444 114.444 0 0 1-4.044 24.128" fill="#AFAFAF" p-id="4712"></path><path d="M914.22 242.308l-19.02 0.624a115.56 115.56 0 0 0-0.128-15.828l19-2.448a128.16 128.16 0 0 1 0.148 17.652" fill="#B4B4B4" p-id="4713"></path><path d="M914.072 224.656l-19 2.448a124.888 124.888 0 0 0-1.56-12.272l18.824-3.856c0.808 4.556 1.392 9.124 1.736 13.68" fill="#B8B8B8" p-id="4714"></path><path d="M912.336 210.976l-18.824 3.856a135.084 135.084 0 0 0-2.12-9.832l18.584-4.984c0.924 3.644 1.716 7.3 2.36 10.96" fill="#BCBCBC" p-id="4715"></path><path d="M909.968 200.02l-18.584 4.984a143.264 143.264 0 0 0-2.396-8.296l18.308-5.936c0.992 3.068 1.884 6.152 2.672 9.248" fill="#C0C0C0" p-id="4716"></path><path d="M907.3 190.772l-18.308 5.936a147.824 147.824 0 0 0-2.58-7.332l18.016-6.776c1.032 2.712 1.988 5.436 2.872 8.172" fill="#C4C4C4" p-id="4717"></path><path d="M904.428 182.6l-18.016 6.776a146.32 146.32 0 0 0-2.752-6.72l17.7-7.548c1.084 2.484 2.112 4.98 3.068 7.492" fill="#C8C8C8" p-id="4718"></path><path d="M901.368 175.108l-17.7 7.548a145.4 145.4 0 0 0-2.912-6.276l17.372-8.264c1.128 2.316 2.216 4.648 3.24 6.992" fill="#CCCCCC" p-id="4719"></path><path d="M898.128 168.116l-17.372 8.264a147.6 147.6 0 0 0-2.96-5.756l17.028-8.924c1.148 2.12 2.256 4.26 3.304 6.416" fill="#D2D2D2" p-id="4720"></path><path d="M894.824 161.696l-17.028 8.924a161.4 161.4 0 0 0-3.196-5.644l16.664-9.572c1.236 2.084 2.42 4.18 3.56 6.292" fill="#D5D5D5" p-id="4721"></path><path d="M891.264 155.408l-16.664 9.572a155.176 155.176 0 0 0-3.412-5.516l16.272-10.2c1.312 2.028 2.588 4.076 3.804 6.144" fill="#D7D7D7" p-id="4722"></path><path d="M887.468 149.26l-16.272 10.2a178.632 178.632 0 0 0-3.724-5.54l15.844-10.836c1.436 2.04 2.812 4.096 4.152 6.176" fill="#D8D8D8" p-id="4723"></path><path d="M883.316 143.084l-15.844 10.836c-1.32-1.88-2.68-3.744-4.084-5.58l15.384-11.476c1.56 2.052 3.076 4.128 4.544 6.22" fill="#DADADA" p-id="4724"></path><path d="M878.772 136.868l-15.384 11.476a184.44 184.44 0 0 0-4.584-5.768l14.856-12.136c1.756 2.112 3.456 4.256 5.112 6.428" fill="#DBDBDB" p-id="4725"></path><path d="M873.66 130.44l-14.856 12.136c-1.86-2.24-3.776-4.44-5.752-6.596l14.188-12.892a202.392 202.392 0 0 1 6.42 7.352" fill="#DCDCDC" p-id="4726"></path><path d="M867.248 123.084l-14.196 12.892a181.08 181.08 0 0 0-8.272-8.456l13.248-13.856a208.82 208.82 0 0 1 9.22 9.42" fill="#DDDDDD" p-id="4727"></path><path d="M858.024 113.664l-13.248 13.856a176.56 176.56 0 0 0-25.336-20.14l10.336-16.168a197.208 197.208 0 0 1 28.248 22.452" fill="#DEDEDE" p-id="4728"></path><path d="M829.772 91.212l-10.336 16.168a170.376 170.376 0 0 0-10.156-6.148l9.172-16.872a191.636 191.636 0 0 1 11.32 6.852" fill="#DDDDDD" p-id="4729"></path><path d="M818.452 84.36l-9.172 16.872a166.652 166.652 0 0 0-7.68-4.032l8.288-17.336c2.9 1.424 5.756 2.924 8.564 4.496" fill="#DCDCDC" p-id="4730"></path><path d="M809.892 79.864l-8.28 17.336a162.52 162.52 0 0 0-6.984-3.236l7.476-17.712c2.624 1.148 5.22 2.348 7.788 3.612" fill="#DBDBDB" p-id="4731"></path><path d="M802.1 76.252l-7.484 17.712a154.716 154.716 0 0 0-6.648-2.716l6.716-18.028 0.324 0.124c2.392 0.92 4.748 1.892 7.092 2.908" fill="#DADADA" p-id="4732"></path><path d="M794.684 73.224l-6.716 18.028a148 148 0 0 0-6.4-2.292l5.976-18.288c2.372 0.788 4.756 1.64 7.14 2.552" fill="#D8D8D8" p-id="4733"></path><path d="M787.548 70.668l-5.976 18.288c-2.164-0.72-4.32-1.388-6.468-1.996l5.236-18.52c2.396 0.684 4.792 1.424 7.208 2.228" fill="#D7D7D7" p-id="4734"></path><path d="M780.332 68.44l-5.232 18.52a146.48 146.48 0 0 0-6.556-1.7l4.48-18.712c2.428 0.568 4.868 1.2 7.308 1.892" fill="#D5D5D5" p-id="4735"></path><path d="M773.032 66.548l-4.476 18.712a137.816 137.816 0 0 0-7.132-1.476l3.656-18.884c2.64 0.476 5.288 1.024 7.952 1.648" fill="#D2D2D2" p-id="4736"></path><path d="M765.08 64.904l-3.656 18.884a132.124 132.124 0 0 0-7.612-1.144l2.776-19.016c2.812 0.34 5.648 0.764 8.492 1.276" fill="#CCCCCC" p-id="4737"></path><path d="M756.584 63.628l-2.78 19.016a128.376 128.376 0 0 0-8.44-0.736l1.812-19.1c3.104 0.164 6.244 0.44 9.408 0.82" fill="#C8C8C8" p-id="4738"></path><path d="M747.176 62.808l-1.812 19.1a119.4 119.4 0 0 0-9.992-0.12l0.668-19.116a131.4 131.4 0 0 1 11.136 0.136" fill="#C4C4C4" p-id="4739"></path><path d="M736.04 62.668l-0.668 19.116a112.548 112.548 0 0 0-12.372 1.044l-0.752-19a126.28 126.28 0 0 1 13.792-1.16" fill="#C0C0C0" p-id="4740"></path><path d="M722.248 63.832l0.752 19c-5.676 0.8-11.168 2.028-16.428 3.672l-2.632-18.58a114.376 114.376 0 0 1 18.308-4.092" fill="#BCBCBC" p-id="4741"></path><path d="M703.928 67.92l2.64 18.58a93.196 93.196 0 0 0-22.084 10.148l-5.16-17.416a103.684 103.684 0 0 1 24.604-11.312" fill="#B8B8B8" p-id="4742"></path><path d="M679.328 79.232l5.16 17.416a85.2 85.2 0 0 0-22.184 20.232l-7.704-15.096a94.896 94.896 0 0 1 24.728-22.552" fill="#B4B4B4" p-id="4743"></path><path d="M654.6 101.78l7.704 15.096c-6.16 8.044-10.988 17.348-14.196 27.772l-9.336-11.904c3.584-11.624 8.972-21.992 15.828-30.964" fill="#AFAFAF" p-id="4744"></path><path d="M638.772 132.748l9.336 11.904a98.952 98.952 0 0 0-3.084 13.188 109.996 109.996 0 0 0-1.36 21.176l-9.844-7.944a122.74 122.74 0 0 1 1.516-23.616c0.84-5.104 1.992-10.008 3.436-14.708" fill="#ABABAB" p-id="4745"></path><path d="M633.824 171.072l9.844 7.944c0.416 13.752 3.284 27.664 8.24 41.192l-8.908-3.216c-5.512-15.08-8.704-30.588-9.176-45.92" fill="#A7A7A7" p-id="4746"></path><path d="M643 216.996l8.908 3.216c7.164 19.584 18.696 38.364 33.516 54.696l-5.068 3.048c-16.524-18.204-29.376-39.136-37.356-60.96" fill="#A3A3A3" p-id="4747"></path><path d="M680.356 277.952l5.068-3.048c17.696 19.496 40.084 35.504 65.344 45.228l2.44 8.24c-28.168-10.848-53.128-28.692-72.852-50.42" fill="#9F9F9F" p-id="4748"></path><path d="M799.092 48.388c91.476 35.192 154.74 132.292 140.94 216.336-13.752 84.028-99.448 123.828-190.916 88.608-91.44-35.176-154.728-132.32-140.94-216.332 13.76-84.056 99.484-123.82 190.916-88.612z m-45.884 279.984c76.544 29.44 148.128-3.784 159.676-74.104 11.516-70.364-41.348-151.452-117.876-180.92-76.532-29.44-148.116 3.752-159.668 74.104-11.512 70.332 41.34 151.452 117.868 180.92" fill="#CCCCCC" p-id="4749"></path><path d="M799.092 48.388l-2.44-8.24c36.584 14.08 69 37.252 94.612 65.476l-5.068 3.048c-23.58-25.992-53.432-47.332-87.104-60.284" fill="#9F9F9F" p-id="4750"></path><path d="M886.204 108.672l5.072-3.048c21.46 23.644 38.148 50.828 48.508 79.172l-8.9-3.216c-9.548-26.1-24.92-51.136-44.68-72.908" fill="#A3A3A3" p-id="4751"></path><path d="M930.884 181.584l8.9 3.216c7.164 19.588 11.304 39.732 11.916 59.64l-9.844-7.944c-0.564-18.332-4.38-36.876-10.972-54.912" fill="#A7A7A7" p-id="4752"></path><path d="M941.856 236.492l9.844 7.944a159.096 159.096 0 0 1-1.972 30.668 144.52 144.52 0 0 1-4.46 19.104l-9.328-11.904a132.5 132.5 0 0 0 4.1-17.584c1.524-9.284 2.104-18.724 1.816-28.228" fill="#ABABAB" p-id="4753"></path><path d="M935.928 282.308l9.336 11.904c-4.648 15.084-11.636 28.544-20.56 40.188l-7.7-15.096c8.224-10.72 14.652-23.112 18.924-36.996" fill="#AFAFAF" p-id="4754"></path><path d="M917.012 319.304l7.7 15.096a123.288 123.288 0 0 1-32.116 29.292l-5.156-17.416a113.78 113.78 0 0 0 29.572-26.972" fill="#B4B4B4" p-id="4755"></path><path d="M887.428 346.276l5.164 17.416a134.592 134.592 0 0 1-31.956 14.688l-2.632-18.58a123.944 123.944 0 0 0 29.424-13.524" fill="#B8B8B8" p-id="4756"></path><path d="M858.004 359.804l2.632 18.58a149.52 149.52 0 0 1-23.828 5.324l-0.752-19a138.264 138.264 0 0 0 21.948-4.904" fill="#BCBCBC" p-id="4757"></path><path d="M836.064 364.708l0.752 19a162.628 162.628 0 0 1-17.86 1.504l0.664-19.116a152.3 152.3 0 0 0 16.444-1.388" fill="#C0C0C0" p-id="4758"></path><path d="M819.616 366.092l-0.664 19.116a175.104 175.104 0 0 1-14.464-0.176l1.812-19.1c4.496 0.24 8.944 0.292 13.316 0.16" fill="#C4C4C4" p-id="4759"></path><path d="M806.3 365.932l-1.812 19.1a184.312 184.312 0 0 1-12.224-1.064l2.78-19.016c3.788 0.46 7.54 0.784 11.256 0.98" fill="#C8C8C8" p-id="4760"></path><path d="M795.048 364.952l-2.78 19.016a193.256 193.256 0 0 1-11.024-1.656l3.656-18.884c3.4 0.616 6.788 1.12 10.148 1.524" fill="#CCCCCC" p-id="4761"></path><path d="M784.9 363.428l-3.656 18.884a205.176 205.176 0 0 1-10.328-2.136l4.476-18.716c3.188 0.748 6.352 1.404 9.508 1.968" fill="#D2D2D2" p-id="4762"></path><path d="M775.392 361.464l-4.476 18.712a212.344 212.344 0 0 1-9.484-2.46l5.236-18.516a189.24 189.24 0 0 0 8.724 2.264" fill="#D5D5D5" p-id="4763"></path><path d="M766.66 359.2l-5.232 18.516a218.016 218.016 0 0 1-9.368-2.892l5.972-18.288c2.888 0.964 5.764 1.852 8.628 2.664" fill="#D7D7D7" p-id="4764"></path><path d="M758.04 356.54l-5.976 18.288a226.232 226.232 0 0 1-9.268-3.32l6.716-18.024c2.844 1.088 5.688 2.108 8.528 3.056" fill="#D8D8D8" p-id="4765"></path><path d="M749.504 353.48l-6.716 18.024-0.416-0.16a232 232 0 0 1-9.408-3.86l7.496-17.704a214.628 214.628 0 0 0 9.044 3.7" fill="#DADADA" p-id="4766"></path><path d="M740.46 349.78l-7.496 17.704a236.184 236.184 0 0 1-10.152-4.716l8.296-17.332c3.084 1.524 6.2 2.972 9.352 4.344" fill="#DBDBDB" p-id="4767"></path><path d="M731.108 345.44l-8.296 17.332a245.904 245.904 0 0 1-10.908-5.732l9.172-16.872c3.3 1.84 6.652 3.6 10.032 5.272" fill="#DCDCDC" p-id="4768"></path><path d="M721.084 340.168l-9.172 16.872a247.264 247.264 0 0 1-14.72-8.912l10.34-16.164a227.528 227.528 0 0 0 13.552 8.204" fill="#DDDDDD" p-id="4769"></path><path d="M707.536 331.964l-10.34 16.164a254.74 254.74 0 0 1-36.616-29.12l13.244-13.86a234.72 234.72 0 0 0 33.712 26.816" fill="#DEDEDE" p-id="4770"></path><path d="M673.816 305.148l-13.248 13.86a262.16 262.16 0 0 1-11.992-12.248l14.196-12.892a240.6 240.6 0 0 0 11.044 11.28" fill="#DDDDDD" p-id="4771"></path><path d="M662.772 293.868l-14.196 12.892a256.9 256.9 0 0 1-8.328-9.556l14.852-12.136c2.484 2.988 5.04 5.924 7.672 8.8" fill="#DCDCDC" p-id="4772"></path><path d="M655.1 285.068l-14.852 12.136a253.052 253.052 0 0 1-6.64-8.352l15.38-11.476c1.98 2.6 4.02 5.164 6.112 7.692" fill="#DBDBDB" p-id="4773"></path><path d="M648.988 277.376l-15.38 11.476c-2.032-2.66-4-5.356-5.912-8.08l15.848-10.836c1.764 2.508 3.572 4.988 5.444 7.44" fill="#DADADA" p-id="4774"></path><path d="M643.556 269.932l-15.852 10.836a257.708 257.708 0 0 1-5.396-8.02l16.268-10.204a227.24 227.24 0 0 0 4.98 7.388" fill="#D8D8D8" p-id="4775"></path><path d="M638.584 262.548l-16.272 10.204a234.504 234.504 0 0 1-4.928-7.988l16.664-9.572c1.452 2.472 2.968 4.924 4.536 7.356" fill="#D7D7D7" p-id="4776"></path><path d="M634.04 255.192l-16.664 9.572a253.92 253.92 0 0 1-4.624-8.168l17.032-8.924c1.36 2.524 2.788 5.032 4.256 7.52" fill="#D5D5D5" p-id="4777"></path><path d="M629.78 247.668l-17.032 8.924c-1.492-2.76-2.92-5.54-4.288-8.34l17.368-8.264c1.256 2.576 2.58 5.136 3.952 7.68" fill="#D2D2D2" p-id="4778"></path><path d="M625.828 239.988l-17.368 8.264a221.212 221.212 0 0 1-4.212-9.084l17.704-7.544c1.228 2.8 2.516 5.592 3.876 8.364" fill="#CCCCCC" p-id="4779"></path><path d="M621.952 231.62l-17.704 7.544a211.328 211.328 0 0 1-3.976-9.732l18.016-6.776c1.14 3.008 2.368 5.996 3.664 8.964" fill="#C8C8C8" p-id="4780"></path><path d="M618.288 222.66l-18.016 6.776a211.628 211.628 0 0 1-3.728-10.612l18.304-5.936c1.06 3.272 2.208 6.532 3.44 9.772" fill="#C4C4C4" p-id="4781"></path><path d="M614.856 212.888l-18.308 5.936a211.696 211.696 0 0 1-3.468-12.008l18.584-4.984c0.936 3.696 2.008 7.384 3.192 11.056" fill="#C0C0C0" p-id="4782"></path><path d="M611.66 201.832l-18.584 4.984a190.136 190.136 0 0 1-3.084-14.228l18.824-3.856c0.776 4.372 1.732 8.744 2.844 13.1" fill="#BCBCBC" p-id="4783"></path><path d="M608.824 188.732l-18.824 3.856a178.452 178.452 0 0 1-2.248-17.756l19-2.448c0.412 5.444 1.108 10.9 2.072 16.348" fill="#B8B8B8" p-id="4784"></path><path d="M606.752 172.384l-19 2.448a166.492 166.492 0 0 1-0.196-22.9l19.024-0.628a151.44 151.44 0 0 0 0.172 21.08" fill="#B4B4B4" p-id="4785"></path><path d="M606.58 151.304l-19.024 0.628c0.32-5.216 0.9-10.404 1.748-15.544 0.892-5.444 2.064-10.72 3.492-15.816l18.596 1.868a135.652 135.652 0 0 0-3.216 14.556 142.796 142.796 0 0 0-1.596 14.308" fill="#AFAFAF" p-id="4786"></path><path d="M611.392 122.444l-18.596-1.868c3.908-13.896 9.76-26.464 17.26-37.564l17.236 4.852c-6.908 10.22-12.308 21.788-15.9 34.58" fill="#ABABAB" p-id="4787"></path><path d="M627.28 87.86l-17.236-4.852a123.136 123.136 0 0 1 37.056-35.632l14.304 7.676a113.6 113.6 0 0 0-34.124 32.808" fill="#A7A7A7" p-id="4788"></path><path d="M661.408 55.056l-14.296-7.676c21.256-13.268 46.944-20.636 74.976-21.14l8.372 9.344c-25.816 0.464-49.472 7.252-69.052 19.472" fill="#A3A3A3" p-id="4789"></path><path d="M730.452 35.584L722.08 26.24c23.608-0.424 48.884 4.02 74.576 13.912l2.44 8.24c-23.644-9.108-46.908-13.2-68.644-12.808" fill="#9F9F9F" p-id="4790"></path><path d="M916.704 343.832l-20.04 21.304c-38.8 41.248-105.02 54.192-174.336 27.512-99.348-38.236-168.036-143.668-153.072-234.956 4.524-27.624 16.196-50.836 33.024-68.728l20.04-21.304c-16.828 17.888-28.496 41.104-33.024 68.728-14.964 91.288 53.724 196.72 153.076 234.956 69.316 26.68 135.536 13.736 174.332-27.512" fill="#6A6A6A" p-id="4791"></path><path d="M682.58 80.272c0 27.58-22.24 49.94-49.656 49.94h-370.32c-27.42 0-49.648-22.36-49.648-49.94v-8.324c0-27.584 22.228-49.94 49.648-49.94h370.32c27.416 0 49.656 22.356 49.656 49.94v8.324z" fill="#333333" p-id="4792"></path><path d="M371.352 323.888l23.608-171.428h-19.3z" p-id="4793"></path><path d="M628.828 60.94c0 12.972-18.972 23.492-42.368 23.492H270.504c-23.4 0-42.364-10.52-42.364-23.492v-3.916c0-12.976 18.964-23.496 42.364-23.496h315.956c23.396 0 42.368 10.52 42.368 23.496v3.916z" fill="#525252" p-id="4794"></path></svg>