<?xml version="1.0" standalone="no"?><!DOCTYPE svg PUBLIC "-//W3C//DTD SVG 1.1//EN" "http://www.w3.org/Graphics/SVG/1.1/DTD/svg11.dtd"><svg t="1723045172039" class="icon" viewBox="0 0 1024 1024" version="1.1" xmlns="http://www.w3.org/2000/svg" p-id="5908" xmlns:xlink="http://www.w3.org/1999/xlink" width="256" height="256"><path d="M452 490h144v140h-144z" fill="#C9C9C9" p-id="5909"></path><path d="M988 779a18.008 18.008 0 0 1-18-18c0-249.236-202.764-452-452-452s-452 202.764-452 452a18.004 18.004 0 0 1-36 0c0-269.084 218.916-488 488-488s488 218.916 488 488c0 9.936-8.064 18-18 18z" fill="#969696" p-id="5910"></path><path d="M996 108h-236a18.004 18.004 0 0 0 0 36h98v78a18.004 18.004 0 0 0 36 0V144H996a18.004 18.004 0 0 0 0-36zM280 108H44a18 18 0 0 0 0 36h98v58a18 18 0 0 0 36 0V144H280a18 18 0 0 0 0-36zM324 452c0 30.928 25.072 56 56 56h276c30.928 0 56-25.072 56-56V344c0-30.928-25.072-56-56-56H380c-30.928 0-56 25.072-56 56v108z" fill="#C9C9C9" p-id="5911"></path><path d="M94 260c0 30.928 25.072 56 56 56h24c30.928 0 56-25.072 56-56v-12c0-30.928-25.072-56-56-56h-24c-30.928 0-56 25.072-56 56v12zM808 260c0 30.928 25.072 56 56 56h24c30.928 0 56-25.072 56-56v-12c0-30.928-25.072-56-56-56h-24c-30.928 0-56 25.072-56 56v12z" fill="#C9C9C9" p-id="5912"></path><path d="M44 316c0 26.508 21.492 48 48 48h856c26.508 0 48-21.492 48-48s-21.492-48-48-48H92c-26.508 0-48 21.492-48 48 0 0 0-26.508 0 0z" fill="#D6D6D6" p-id="5913"></path><path d="M656 416h38v82H656zM836.364 286s27.636 30 4 60h145.088l1.524-58s-109.616-23.74-150.612-2z" fill="#4A4A4A" fill-opacity="0" p-id="5914"></path><path d="M522.368 775.176m-222.352 0a222.352 222.352 0 1 0 444.704 0 222.352 222.352 0 1 0-444.704 0Z" fill="#84E8E3" p-id="5915"></path><path d="M520 1003.82c-126.224 0-228.912-102.692-228.912-228.912S393.776 546 520 546c126.22 0 228.912 102.692 228.912 228.912S646.22 1003.82 520 1003.82z m0-420.108c-105.428 0-191.196 85.768-191.196 191.2s85.768 191.2 191.196 191.2 191.2-85.768 191.2-191.2-85.772-191.2-191.2-191.2z" fill="#C9C9C9" p-id="5916"></path><path d="M520 774.912m-130.028 0a130.028 130.028 0 1 0 260.056 0 130.028 130.028 0 1 0-260.056 0Z" fill="#37BFC4" p-id="5917"></path><path d="M520.6 778.552m-70.376 0a70.376 70.376 0 1 0 140.752 0 70.376 70.376 0 1 0-140.752 0Z" fill="#3785C4" p-id="5918"></path></svg>