<?xml version="1.0" standalone="no"?><!DOCTYPE svg PUBLIC "-//W3C//DTD SVG 1.1//EN" "http://www.w3.org/Graphics/SVG/1.1/DTD/svg11.dtd"><svg t="1723044993613" class="icon" viewBox="0 0 1024 1024" version="1.1" xmlns="http://www.w3.org/2000/svg" p-id="2141" xmlns:xlink="http://www.w3.org/1999/xlink" width="256" height="256"><path d="M264.875355 352.817548V779.932903C264.875355 914.167742 374.707613 1024 508.938323 1024h6.106838c134.238968 0 244.062968-109.832258 244.062968-244.062968V352.817548" fill="#6F7D7D" p-id="2142"></path><path d="M759.108129 352.817548h-124.283871c-1.998452 19.612903-15.665548 41.356387-16.061935 65.263484l4.930064 454.032516s79.388903 23.097806 131.778065-50.654967a243.447742 243.447742 0 0 0 3.633548-41.533936V352.817548z" fill="#5C6969" p-id="2143"></path><path d="M435.970065 205.638194c22.755097 2.415484 48.594581 3.786323 76.019612 3.786322 25.112774 0 48.900129-1.147871 70.197678-3.195871 73.761032 46.988387 176.924903 125.733161 176.924903 151.708903 0 37.912774-110.641548 68.645161-247.122581 68.645162C375.512774 426.586839 264.875355 395.854452 264.875355 357.941677c0-26.087226 96.801032-105.38529 171.09471-152.303483z" fill="#819191" p-id="2144"></path><path d="M738.768516 20.645161c0-11.354839-9.290323-20.645161-20.645161-20.645161H289.583484c-11.354839 0-20.645161 9.290323-20.645161 20.645161v47.182452c0 11.354839 7.452903 26.194581 16.561548 32.974452l133.908645 99.691354c9.108645 6.779871 25.856 12.32929 37.210839 12.329291H561.546323c11.354839 0 28.060903-5.598968 37.115871-12.440775l123.631483-93.361548c9.059097-6.841806 16.474839-21.731097 16.474839-33.085935V20.645161z" fill="#5C6969" p-id="2145"></path><path d="M508.921806 0H289.583484c-11.354839 0-20.645161 9.290323-20.645161 20.645161v47.182452c0 11.354839 7.452903 26.194581 16.561548 32.974452l133.908645 99.691354c9.108645 6.779871 25.856 12.32929 37.210839 12.329291h52.31071" fill="#6F7D7D" p-id="2146"></path><path d="M582.187355 206.232774c-21.297548 2.043871-45.084903 3.191742-70.197678 3.191742-0.990968 0-1.969548-0.012387-2.956387-0.016516-0.04129 1.135484-0.107355 2.258581-0.107355 3.410581 0 0 64.565677 98.964645 109.844646 205.262451l58.66529-9.154064c50.151226-12.560516 81.676387-30.748903 81.676387-50.985291-0.004129-25.979871-103.159742-104.720516-176.924903-151.708903z" fill="#6F7D7D" p-id="2147"></path><path d="M758.984258 776.258065c0.033032 0.677161 0.119742 1.350194 0.119742 2.035612V776.258065h-0.119742zM265.19329 792.344774C271.708903 920.869161 378.865548 1024 508.938323 1024h6.106838c134.238968 0 244.058839-109.832258 244.058839-244.062968v-1.57729C759.06271 836.492387 648.008258 883.612903 511.019355 883.612903c-125.799226 0-229.665032-39.754323-245.826065-91.268129z" fill="#B85C3B" p-id="2148"></path><path d="M623.696516 872.117677c0 94.075871-50.877935 144.842323-90.578581 151.139097 125.86529-9.348129 225.977806-115.175226 225.977807-243.323871v-1.57729c-0.024774 40.914581-55.064774 76.341677-135.399226 93.762064zM758.984258 776.258065c0.033032 0.677161 0.119742 1.350194 0.119742 2.035612V776.258065h-0.119742z" fill="#9C482A" p-id="2149"></path></svg>