<?xml version="1.0" standalone="no"?><!DOCTYPE svg PUBLIC "-//W3C//DTD SVG 1.1//EN" "http://www.w3.org/Graphics/SVG/1.1/DTD/svg11.dtd"><svg t="1723045019738" class="icon" viewBox="0 0 1146 1024" version="1.1" xmlns="http://www.w3.org/2000/svg" p-id="2675" xmlns:xlink="http://www.w3.org/1999/xlink" width="286.5" height="256"><path d="M531.735273 307.733157c-11.682909 0-21.157025-9.871868-21.157025-22.041388V93.683306H451.215868c-11.682909 0-21.157025-9.867636-21.157025-22.037157s9.474116-22.037157 21.157025-22.037157h80.519405c11.682909 0 21.157025 9.867636 21.157025 22.037157v214.04562c0 12.173752-9.474116 22.041388-21.157025 22.041388zM587.132826 316.551405c-11.682909 0-21.157025-9.871868-21.157024-22.041388v-264.005819c0-12.169521 9.474116-22.041388 21.157024-22.041388 11.68714 0 21.157025 9.871868 21.157025 22.041388V294.510017c0 12.169521-9.469884 22.041388-21.157025 22.041388z" fill="#FFAD47" p-id="2676"></path><path d="M751.209785 360.464926c0.672793 58.147967-118.686678 104.096793-261.318876 113.431272-143.216132 9.194843-257.933752-58.588033-250.604959-108.586314-11.59405 2.297653 45.216793-246.652826 228.830149-255.843438 74.862017-4.66724 160.230612 0.850512 204.431868 48.64 42.432529 48.982744 77.55319 113.790942 78.661818 202.35848z" fill="#FFB961" p-id="2677"></path><path d="M672.547967 158.284165c-19.527934-21.114711-47.099769-33.965488-78.242909-41.345058 40.122182 15.097653 74.959339 56.099967 17.632264 165.426777-40.955769 78.103273 12.660364 126.392066 91.588761 138.929719 30.136066-17.446083 47.94605-38.124959 47.687934-60.652958-1.11286-88.567537-36.233521-153.375736-78.66605-202.35848z" fill="#E69837" p-id="2678"></path><path d="M355.603041 393.42757c75.458645-10.053818 1.104397-256.545851 184.721984-265.740694 29.560595-1.840661 60.758744-2.081851 90.416661 1.227107-45.978446-20.755041-107.173025-22.904595-162.617124-19.447537-183.617587 9.190612-240.424198 258.145322-228.83438 255.843438-5.801256 39.580562 64.918215 90.272793 165.680661 105.133488-60.360992-22.464529-53.649983-47.814876-49.367802-77.015802z" fill="#FFC473" p-id="2679"></path><path d="M587.132826 278.879207a26.937124 25.858116 90 1 0 51.716232 0 26.937124 25.858116 90 1 0-51.716232 0Z" fill="#E69837" p-id="2680"></path><path d="M556.658248 241.731702a10.214612 9.804165 90 1 0 19.608331 0 10.214612 9.804165 90 1 0-19.608331 0Z" fill="#E69837" p-id="2681"></path><path d="M1094.317488 861.315174c-37.579107 33.529653-75.158215 57.58519-112.733091 72.124297-28.515438-19.925686-57.098579-48.72886-85.309356-81.10757 0.905521-134.321719 6.313256-267.031273 16.214744-398.103273 30.085289-32.573355 57.88562-61.338446 82.872066-80.752132 24.880661 11.797157 49.824793 29.044364 74.832397 51.627372 15.351537 148.970843 23.391207 294.374612 24.12324 436.211306z" fill="#E69837" p-id="2682"></path><path d="M983.518149 914.076562c-63.526083-35.014876 79.055339-102.298446 68.438744-116.981422-1.536-2.124165-109.711868 68.430281-104.50724 75.991802 16.912926 24.592926-34.232066-53.023736-50.599141-71.777322-0.262347 17.16681-0.456992 34.36324-0.575471 51.585058 28.210777 32.370248 56.793917 61.173421 85.309356 81.10757 37.574876-14.54757 75.153983-38.603107 112.733091-72.13276a4075.134942 4075.134942 0 0 0-0.60086-51.720463c0.60086 51.720463-72.822479 89.464595-110.198479 103.927537z" fill="#D18A32" p-id="2683"></path><path d="M247.672595 350.736926c-8.242777 22.654942-11.086281 15.106116-8.386645 14.568727-7.328793 49.99405 107.388826 117.781157 250.604959 108.586314 142.632198-9.338711 261.991669-55.283306 261.318876-113.435504-0.258116-20.513851-2.403438-4.434512-5.978975-22.49838-64.359669-19.341752-76.664595-59.307372-213.491306-65.493686-106.123636-4.78995-176.301488 18.969388-284.066909 78.272529z" fill="#E69837" p-id="2684"></path><path d="M1123.459174 615.521322c21.855207 91.427967-29.869488 164.982479-144.210513 232.642645-114.489124 66.026843-291.590347 126.155107-523.873322 153.007603-335.685818 38.048793-487.39438-176.919273-429.022149-374.817851C52.689455 526.471405 120.146512 443.624727 203.894479 386.682711c85.127405-56.77276 186.54995-87.64086 312.518876-79.609653 159.828628 10.189223 294.899306 66.928132 404.649257 126.387835 107.888132 60.911074 190.451306 124.538711 202.396562 182.060429z" fill="#FFB961" p-id="2685"></path><path d="M182.54281 908.49957c-63.471074-212.687339-8.175074-376.823537 75.577124-433.761322 85.127405-56.77276 191.403372-109.301421 317.372297-101.265984 159.828628 10.193455 266.523504 29.158612 376.273455 88.618315 38.154579 21.537851 73.110215 43.418446 102.928926 65.252495-35.81038-31.227769-84.099174-62.908298-138.972033-93.882181-109.74995-59.459702-244.816397-116.19438-404.649257-126.387835-125.968926-8.031207-227.391471 22.836893-312.518876 79.609653C114.802248 443.624727 47.34519 526.471405 21.013157 626.353719c-34.617124 117.362248 4.650314 240.711934 112.343802 313.741752-80.041256-74.168066 79.939702 71.464198 49.185851-31.595901z" fill="#FFC87A" p-id="2686"></path><path d="M1113.092231 588.58843c15.27114 90.695934 15.27114 102.264595-129.612165 188.289058-113.689388 67.503603-251.891306 129.709488-484.174281 156.561983-250.621884 28.413884-499.305785-24.935669-473.024529-290.744066-45.572231 193.180562 106.855669 395.479802 433.325488 358.480397 232.282975-26.852496 409.384198-86.984992 523.873322-153.007604 114.341025-67.660165 166.065719-141.214678 144.210513-232.642644-1.832198-8.847868-9.584132-17.839603-14.598348-26.937124z" fill="#E69837" p-id="2687"></path><path d="M178.683769 647.002975a189.262281 181.683835 90 1 0 363.367669 0 189.262281 181.683835 90 1 0-363.367669 0Z" fill="#4293A1" p-id="2688"></path><path d="M300.72595 693.404562a86.832661 83.358678 90 1 0 166.717356 0 86.832661 83.358678 90 1 0-166.717356 0Z" fill="#FFFFFF" opacity=".1" p-id="2689"></path><path d="M557.593388 632.104198a138.392331 132.853421 90 1 0 265.706843 0 138.392331 132.853421 90 1 0-265.706843 0Z" fill="#4293A1" p-id="2690"></path><path d="M666.281256 668.777785a53.975802 51.817785 90 1 0 103.63557 0 53.975802 51.817785 90 1 0-103.63557 0Z" fill="#FFFFFF" opacity=".1" p-id="2691"></path><path d="M847.216132 614.048793a87.264264 83.760661 90 1 0 167.521323 0 87.264264 83.760661 90 1 0-167.521323 0Z" fill="#4293A1" p-id="2692"></path><path d="M883.648529 618.271736a49.295868 47.328264 90 1 0 94.656529 0 49.295868 47.328264 90 1 0-94.656529 0Z" fill="#FFFFFF" opacity=".1" p-id="2693"></path><path d="M861.797554 817.824793a49.824793 47.82757 90 1 0 95.65514 0 49.824793 47.82757 90 1 0-95.65514 0Z" fill="#E69837" p-id="2694"></path><path d="M947.458116 791.141554a37.562182 36.060033 90 1 0 72.120066 0 37.562182 36.060033 90 1 0-72.120066 0Z" fill="#E69837" p-id="2695"></path><path d="M777.169455 754.091372a13.917091 13.354314 90 1 0 26.708628 0 13.917091 13.354314 90 1 0-26.708628 0Z" fill="#E69837" p-id="2696"></path><path d="M962.035306 807.106645c0 44.958678-50.861488 81.412231-113.600529 81.412231-62.717884 0-82.550479 44.958678-82.550479 0 0-44.975603 33.195372-120.510413 95.913256-120.510413 62.743273 0 100.237752-5.877421 100.237752 39.098182z" fill="#E69837" p-id="2697"></path><path d="M672.759537 839.265322a28.388496 27.250248 90 1 0 54.500496 0 28.388496 27.250248 90 1 0-54.500496 0Z" fill="#E69837" p-id="2698"></path><path d="M972.127207 474.429355l47.840264-52.960264 50.226777 3.630545s-47.793719-43.52-74.832397-51.627372l-69.12 65.984529 45.885356 34.972562z" fill="#FFB457" p-id="2699"></path></svg>