<?xml version="1.0" standalone="no"?><!DOCTYPE svg PUBLIC "-//W3C//DTD SVG 1.1//EN" "http://www.w3.org/Graphics/SVG/1.1/DTD/svg11.dtd"><svg t="1723045047797" class="icon" viewBox="0 0 1024 1024" version="1.1" xmlns="http://www.w3.org/2000/svg" p-id="3264" xmlns:xlink="http://www.w3.org/1999/xlink" width="256" height="256"><path d="M512.002097 529.359273m-482.058504 0a482.058504 482.058504 0 1 0 964.117008 0 482.058504 482.058504 0 1 0-964.117008 0Z" p-id="3265"></path><path d="M509.745685 484.075854m-366.885031 0a366.885032 366.885032 0 1 0 733.770063 0 366.885032 366.885032 0 1 0-733.770063 0Z" fill="#2E2E2E" p-id="3266"></path><path d="M407.951309 76.49572c11.458211 16.26462-31.816247 66.476077-96.665022 112.141157-64.840388 45.66508-126.774282 65.133973-138.219911 48.865159-11.454017-16.26462 31.895935-62.101657 96.74471-107.770932 64.840388-45.66508 126.6904-69.49581 138.140223-53.235384z" opacity=".47" p-id="3267"></path><path d="M365.956044 96.417573c13.827863 20.471276-20.446112 67.805598-76.558631 105.724223-56.116713 37.922819-112.820597 52.073626-126.652654 31.606543l-26.435249-41.231944 203.211284-137.326572 26.43525 41.22775z" p-id="3268"></path><path d="M339.5166 55.189823c13.827863 20.471276-20.446112 67.801404-76.562825 105.720029-56.116713 37.927013-112.816403 52.07782-126.64846 31.606543-13.836251-20.471276-16.419801-58.494753 63.577972-123.221901 62.751739-50.769269 125.801257-34.575948 139.633313-14.104671z" fill="#D1AC8A" p-id="3269"></path><path d="M241.199436 130.455088a36.903659 101.190429 55.944 1 0-41.332314-61.148672 36.903659 101.190429 55.944 1 0 41.332314 61.148672Z" fill="#E4BC96" p-id="3270"></path><path d="M228.774814 107.224925a17.803845 48.802248 55.952 1 0-19.936292-29.503421 17.803845 48.802248 55.952 1 0 19.936292 29.503421Z" fill="#5A3D1C" p-id="3271"></path><path d="M783.279012 660.130508m-130.775428 0a130.775429 130.775429 0 1 0 261.550857 0 130.775429 130.775429 0 1 0-261.550857 0Z" p-id="3272"></path><path d="M696.876889 822.780901m-86.397929 0a86.397929 86.397929 0 1 0 172.795858 0 86.397929 86.397929 0 1 0-172.795858 0Z" p-id="3273"></path><path d="M879.684003 576.953628m-96.409185 0a96.409184 96.409184 0 1 0 192.818369 0 96.409184 96.409184 0 1 0-192.818369 0Z" p-id="3274"></path><path d="M685.192198 748.071856m-74.709044 0a74.709044 74.709044 0 1 0 149.418089 0 74.709044 74.709044 0 1 0-149.418089 0Z" p-id="3275"></path><path d="M613.389648 553.152256m-23.797178 0a23.797177 23.797177 0 1 0 47.594355 0 23.797177 23.797177 0 1 0-47.594355 0Z" p-id="3276"></path><path d="M486.837652 708.362361m-48.231854 0a48.231854 48.231854 0 1 0 96.463707 0 48.231854 48.231854 0 1 0-96.463707 0Z" p-id="3277"></path><path d="M613.389648 790.905936m-88.029425 0a88.029424 88.029424 0 1 0 176.058849 0 88.029424 88.029424 0 1 0-176.058849 0Z" fill="#2E2E2E" p-id="3278"></path><path d="M758.697543 275.403884m-73.505345 0a73.505345 73.505345 0 1 0 147.01069 0 73.505345 73.505345 0 1 0-147.01069 0Z" fill="#2E2E2E" p-id="3279"></path></svg>