<?xml version="1.0" standalone="no"?><!DOCTYPE svg PUBLIC "-//W3C//DTD SVG 1.1//EN" "http://www.w3.org/Graphics/SVG/1.1/DTD/svg11.dtd"><svg t="1723045072419" class="icon" viewBox="0 0 1024 1024" version="1.1" xmlns="http://www.w3.org/2000/svg" p-id="3851" xmlns:xlink="http://www.w3.org/1999/xlink" width="256" height="256"><path d="M860.869084 378.81169m-131.382715 0a131.382716 131.382716 0 1 0 262.765431 0 131.382716 131.382716 0 1 0-262.765431 0Z" fill="#81AFBA" p-id="3852"></path><path d="M860.869084 378.81169m-68.592413 0a68.592413 68.592413 0 1 0 137.184827 0 68.592413 68.592413 0 1 0-137.184827 0Z" fill="#41636B" p-id="3853"></path><path d="M164.970806 397.218666m-131.382715 0a131.382716 131.382716 0 1 0 262.765431 0 131.382716 131.382716 0 1 0-262.765431 0Z" fill="#81AFBA" p-id="3854"></path><path d="M164.970806 397.218666m-68.592413 0a68.592413 68.592413 0 1 0 137.184827 0 68.592413 68.592413 0 1 0-137.184827 0Z" fill="#41636B" p-id="3855"></path><path d="M575.290623 124.317697L553.510515 24.628711h-66.30869l-27.666952 100.762256c-10.248514 30.995701-71.089984 104.3452-129.268455 104.3452h367.578674c-68.092092 0-115.779959-72.38517-122.554469-105.41847z" fill="#81AFBA" p-id="3856"></path><path d="M964.621162 794.675388c-33.154345 172.727801-200.572286 174.434542-451.442986 174.434542-250.86263 0-426.047654-1.710775-456.994937-174.434542-40.731789-227.363676 203.364401-312.765266 454.222996-312.765266s497.75497 85.930155 454.214927 312.765266z" fill="#658991" p-id="3857"></path><path d="M746.618333 961.056374c0 20.03302-16.389552 36.422572-36.422572 36.422571h-32.428072c-20.03302 0-36.422572-16.389552-36.422572-36.422571v-141.485975c0-20.03302 16.389552-36.422572 36.422572-36.422571h32.428072c20.03302 0 36.422572 16.389552 36.422572 36.422571v141.485975z" p-id="3858"></path><path d="M848.292463 961.056374c0 20.03302-16.389552 36.422572-36.422571 36.422571h-32.424037c-20.037054 0-36.426606-16.389552-36.426607-36.422571v-141.485975c0-20.03302 16.389552-36.422572 36.426607-36.422571h32.424037c20.03302 0 36.422572 16.389552 36.422571 36.422571v141.485975z" p-id="3859"></path><path d="M746.618333 961.056374c0 20.03302-16.389552 36.422572-36.422572 36.422571h-32.428072c-20.03302 0-36.422572-16.389552-36.422572-36.422571v-141.485975c0-20.03302 16.389552-36.422572 36.422572-36.422571h32.428072c20.03302 0 36.422572 16.389552 36.422572 36.422571v141.485975z" fill="#020202" opacity=".75" p-id="3860"></path><path d="M848.292463 961.056374c0 20.03302-16.389552 36.422572-36.422571 36.422571h-32.424037c-20.037054 0-36.426606-16.389552-36.426607-36.422571v-141.485975c0-20.03302 16.389552-36.422572 36.426607-36.422571h32.424037c20.03302 0 36.422572 16.389552 36.422571 36.422571v141.485975z" fill="#020202" opacity=".75" p-id="3861"></path><path d="M290.478784 961.056374c0 20.03302-16.389552 36.422572-36.426607 36.422571h-32.428072c-20.03302 0-36.426606-16.389552-36.426606-36.422571v-141.485975c0-20.03302 16.389552-36.422572 36.426606-36.422571h32.428072c20.03302 0 36.426606 16.389552 36.426607 36.422571v141.485975z" p-id="3862"></path><path d="M392.152914 961.056374c0 20.03302-16.389552 36.422572-36.426606 36.422571h-32.432107c-20.03302 0-36.422572-16.389552-36.422571-36.422571v-141.485975c0-20.03302 16.389552-36.422572 36.422571-36.422571h32.432107c20.03302 0 36.426606 16.389552 36.426606 36.422571v141.485975z" p-id="3863"></path><path d="M290.478784 961.056374c0 20.03302-16.389552 36.422572-36.426607 36.422571h-32.428072c-20.03302 0-36.426606-16.389552-36.426606-36.422571v-141.485975c0-20.03302 16.389552-36.422572 36.426606-36.422571h32.428072c20.03302 0 36.426606 16.389552 36.426607 36.422571v141.485975z" fill="#020202" opacity=".75" p-id="3864"></path><path d="M392.152914 961.056374c0 20.03302-16.389552 36.422572-36.426606 36.422571h-32.432107c-20.03302 0-36.422572-16.389552-36.422571-36.422571v-141.485975c0-20.03302 16.389552-36.422572 36.422571-36.422571h32.432107c20.03302 0 36.426606 16.389552 36.426606 36.422571v141.485975z" fill="#020202" opacity=".75" p-id="3865"></path><path d="M160.250034 407.196845s75.742164-91.518419 0-91.518419H3.601102V214.060783h1012.762948v101.621678h-140.642691c-75.750233 0-3.58698 90.715484-3.58698 90.715484" fill="#81AFBA" p-id="3866"></path><path d="M948.130739 637.308252c-3.268227 212.358077-151.54485 333.661743-434.948529 333.661743-263.503808 0-431.886079-104.667988-434.952563-333.661743-2.747731-205.220431 193.620244-407.572085 434.948529-407.572085 255.700413 0 431.688371 191.263892 434.952563 407.572085z" fill="#81AFBA" p-id="3867"></path><path d="M290.111612 420.055905l41.974523 67.462656c68.604518-28.740221 129.66387-39.452742 181.067831-40.72372V331.656423c-132.072675-1.706741-217.942306 61.737207-217.942306 61.737207-8.170567 6.036132-10.46236 18.03577-5.100048 26.662275z m248.925903-87.245515v114.129706c94.915761 3.486109 150.608766 38.189835 150.608766 38.189835 8.626505 5.378452 19.343061 2.303898 23.805602-6.814858l36.208725-73.942622c-76.718597-46.921246-148.159613-66.772697-210.623093-71.562061z" fill="#41636B" p-id="3868"></path><path d="M539.037515 332.814425v29.139671c59.441378 4.555343 127.037184 22.808995 199.563575 65.005433l11.059518-22.587078c-76.718597-46.921246-148.159613-66.772697-210.623093-71.558026z m-248.925903 87.24148l2.824394 4.539204a18.802391 18.802391 0 0 1 2.275654-2.065843s85.869632-63.443948 217.942306-61.737206v-29.139672c-132.072675-1.706741-217.942306 61.737207-217.942306 61.737207-8.170567 6.044202-10.46236 18.04384-5.100048 26.66631z" fill="#324B52" p-id="3869"></path><path d="M878.045431 415.605468a326.879163 326.879163 0 0 1 11.894732 87.544093c0 193.285351-168.882591 294.761775-377.217925 294.761775s-377.22196-101.476423-377.22196-294.761775c0-25.831096 3.042275-51.000477 8.767724-75.233773-42.668516 63.399564-67.022858 136.212428-66.046424 209.392464 3.066484 228.993755 171.448755 333.661743 434.952563 333.661743 283.411748 0 431.688371-121.303666 434.948528-333.661743-1.202385-80.168392-26.157919-156.878919-70.077238-221.702784z" fill="#6F97A1" opacity=".6" p-id="3870"></path><path d="M341.075776 765.43888c1.279047-97.538412 59.893281-153.251591 171.928901-153.251591 104.155562 0 170.726517 48.063108 171.928902 153.251591 1.093444 94.26615-76.532994 167.248478-171.924867 167.248478-101.081008 0-170.65389-67.89842-171.932936-167.248478z" fill="#81AFBA" p-id="3871"></path><path d="M592.636434 708.285261c0 42.240822-34.247789 50.996442-76.49668 50.996442-42.244857 0-76.492645-8.75562-76.492646-50.996442 0-42.248892 34.247789-76.49668 76.492646-76.496681 42.248892 0 76.49668 34.251823 76.49668 76.496681z" fill="#A6C7CF" opacity=".5" p-id="3872"></path></svg>