<?xml version="1.0" standalone="no"?><!DOCTYPE svg PUBLIC "-//W3C//DTD SVG 1.1//EN" "http://www.w3.org/Graphics/SVG/1.1/DTD/svg11.dtd"><svg t="1723045178854" class="icon" viewBox="0 0 1556 1024" version="1.1" xmlns="http://www.w3.org/2000/svg" p-id="6083" xmlns:xlink="http://www.w3.org/1999/xlink" width="389" height="256"><path d="M1439.148245 570.234182c-291.56579-55.059581-1211.491118 13.911033-1211.491119 13.911032s-10.092805-11.087783-44.917026-11.087783l-34.818003 1.175318s-3.955037-79.635531 615.169864-56.657764c619.118682 22.940456 676.056283 52.659197 676.056284 52.659197z" fill="#FFFFFF" fill-opacity="0" p-id="6084"></path><path d="M1324.620088 284.345983h194.194781c13.575228 0 24.569732-12.200915 24.569731-27.256171s-11.000723-27.256172-24.569731-27.256172h-194.194781c-13.569009 0-24.569732 12.200915-24.569732 27.256172s11.006941 27.256172 24.569732 27.256171z" fill="#637A87" p-id="6085"></path><path d="M88.882606 628.75131H181.334694c13.569009 0 24.569732-12.207133 24.569731-27.256171 0-15.055257-11.000723-27.26239-24.569731-27.26239H88.882606c-13.569009 0-24.569732 12.207133-24.569732 27.26239 0.006219 15.049038 11.01316 27.256172 24.569732 27.256171z" fill="#C2C2C2" p-id="6086"></path><path d="M1496.925358 540.87612c-12.375036-13.718256-38.09521-42.230587-418.506294-61.856523-213.770968-11.006941-438.934431-13.92347-528.134186-13.92347h-9.191107c-198.864958-0.024874-386.691881-0.049749-458.106409 101.301172-20.987812 29.774709-34.009583 42.653452-43.51162 52.055992-13.693381 13.550353-22.47406 23.158107-30.147826 49.058621-6.49223 21.908166-2.804594 43.567588 10.677355 62.596537 75.860834 107.109354 499.621855 120.479367 647.879758 107.476252 170.91852-14.974415 465.7553-95.113654 652.052445-163.941239l26.77112-9.856498c117.892425-43.393467 153.481535-56.502299 160.098137-87.558041 2.692659-12.511845-0.920354-25.403025-9.881373-35.352803z" fill="#566A75" p-id="6087"></path><path d="M1479.668713 162.137842c-3.438892-6.585509-9.184888-11.268123-15.876113-12.940929l-177.597309 0.764889c-10.87635-2.717533-22.044976 3.016026-27.206423 13.991874l-171.621223 345.02097c-3.712511 7.87898-3.712511 17.269082-0.012437 25.154281s10.621387 13.270516 18.550116 14.439614l242.631541 35.763232c11.883765 1.772304 23.158107-6.237267 26.708934-18.929452l106.605647-381.542871a30.048328 30.048328 0 0 0-2.182733-21.721608z" fill="#637A87" p-id="6088"></path><path d="M306.061372 557.038289l597.3722-180.980232-597.01152 151.137119z" fill="#FFFFFF" fill-opacity="0" p-id="6089"></path><path d="M317.167811 611.631474l309.189334 1.958863a22.840958 22.840958 0 0 0 12.53672-3.731167l365.274985-236.823358c9.582879-6.218611 14.197089-18.780205 11.32409-30.657752-2.91031-11.883765-12.62378-20.135862-23.724-20.135862h-93.838839c-1.853146 0-3.693855 0.22387-5.50347 0.696484L317.167811 469.318564s-53.256184 35.340366-53.256183 79.455192c0 44.127263 27.100706 62.857719 53.256183 62.857718z" fill="#637A87" p-id="6090"></path><path d="M1049.123188 524.508736h378.899962V613.590337h-378.899962z" fill="#566A75" p-id="6091"></path><path d="M883.129807 494.615873c-0.04353-0.976322-0.080842-1.958862-0.211432-2.916528a29.221253 29.221253 0 0 0-2.475007-8.189911c-3.003589-6.349202-8.221004-11.317872-14.719452-13.488167l-75.108383-25.005034a22.828521 22.828521 0 0 0-5.341787-1.013634l-0.547237-0.04353c-0.385554-0.018656-0.783545-0.093279-1.169099-0.093279H569.220548c-13.569009 0-24.57595 12.207133-24.57595 27.26239v117.886207c0 15.055257 11.006941 27.256172 24.57595 27.256171h214.29955c1.399187 0 2.792156-0.161684 4.178907-0.422865 0.22387-0.037312 0.453959-0.087061 0.684047-0.13681 1.355657-0.298493 2.698877-0.67161 4.017222-1.231285L867.49622 582.310724c9.477163-4.054534 15.745523-14.159777 15.745522-25.415463V496.133214c0.006219-0.516145-0.080842-1.013634-0.111935-1.517341zM87.962251 618.055299c17.10118 0 31.093054-13.991875 31.093055-31.093054v-4.763456c0-17.10118-5.061949-31.093054-11.249468-31.093054s-13.450855 2.754845-16.143513 6.13155l-2.269793 3.227459c-20.987812 29.76849-34.009583 42.653452-43.511621 52.049773l-1.927769 1.909114c-1.946425 1.996174 10.447266 3.631669 27.548446 3.631668h16.460663z" fill="#637A87" p-id="6092"></path></svg>