<?xml version="1.0" standalone="no"?><!DOCTYPE svg PUBLIC "-//W3C//DTD SVG 1.1//EN" "http://www.w3.org/Graphics/SVG/1.1/DTD/svg11.dtd"><svg t="1723045087746" class="icon" viewBox="0 0 1024 1024" version="1.1" xmlns="http://www.w3.org/2000/svg" p-id="4226" xmlns:xlink="http://www.w3.org/1999/xlink" width="256" height="256"><path d="M136.692 240.46c-15.4-0.084-28 0.832-28 2.028V804.76c0 15.4 11.52 33.1 25.604 39.336l335.516 148.56c14.084 6.236 31.78 11.336 39.328 11.336s25.292-5 39.424-11.112l335.328-145.004c14.132-6.112 25.7-23.716 25.7-39.112V272.672c0-15.4-12.6-28.068-28-28.152L136.692 240.46z" fill="#809ED6" p-id="4227"></path><path d="M522.868 1003.992V475.628l386.724-146.392V844.76z" fill="#6483BD" p-id="4228"></path><path d="M495.416 475.628h27.448v528.364h-27.448z" fill="#809ED6" p-id="4229"></path><path d="M108.692 475.624L522.868 886.2l0.664-264.184zM587.788 570.196l321.804 270.36v-393.064z" opacity=".05" p-id="4230"></path><path d="M174.972 281.572l327.78-127.708 340.556 127.708-334.172 120.724z" fill="#B0CCFF" p-id="4231"></path><path d="M181.364 396.204l327.776-127.704 340.56 127.704-334.172 120.72z" fill="#B0CCFF" p-id="4232"></path><path d="M849.688 262.86v128.204l-178.784 72.752V343.988l-144.736 47.068h-42.34L360.152 339.648v124.168L181.364 396.204V265.328L27.56 201.396v254.132l461.076 188.496h37.008l465.084-188.496V206.972z" fill="#85A4DE" p-id="4233"></path><path d="M181.364 265.328l161.76-59.632v128.14l-161.76 62.368z" fill="#6C8ECC" p-id="4234"></path><path d="M343.124 205.696L192.416 141.468 27.56 201.396l153.804 63.932zM518.616 27.764l132.42 45.42-160.364 55.384-129.576-52.452 131.016-48.048z" fill="#B0CCFF" p-id="4235"></path><path d="M490.672 128.568V273.88L361.096 210.528V76.116z" fill="#85A4DE" p-id="4236"></path><path d="M651.036 73.184v137.344L490.672 273.88V128.568z" fill="#6C8ECC" p-id="4237"></path><path d="M849.7 265.328l-161.764-54.8v123.308l161.764 62.368z" fill="#85A4DE" p-id="4238"></path><path d="M687.936 210.528l144.316-60.232 158.476 56.676-141.028 58.356zM360.152 339.648l131.676 52.34h38.34l140.736-48-164.832-61.08z" fill="#B0CCFF" p-id="4239"></path><path d="M525.644 644.024V391.988l145.26-48v119.828l178.796-67.612V265.328l141.028-58.356v248.556z" fill="#6C8ECC" p-id="4240"></path><path d="M488.636 644.024l2.036-252.036h34.972v252.036z" fill="#85A4DE" p-id="4241"></path><path d="M490.672 273.88h197.264V223.308l-36.9-12.78zM181.364 396.204h178.788V339.648l-17.028-5.812z" opacity=".1" p-id="4242"></path></svg>